<svg xmlns="http://www.w3.org/2000/svg" id="Outline" height="512px" viewBox="0 0 512 512" width="512px"><g><path d="m472 24h-432a24.028 24.028 0 0 0 -24 24v416a24.028 24.028 0 0 0 24 24h432a24.028 24.028 0 0 0 24-24v-416a24.028 24.028 0 0 0 -24-24zm-432 16h432a8.009 8.009 0 0 1 8 8v40h-448v-40a8.009 8.009 0 0 1 8-8zm432 432h-432a8.009 8.009 0 0 1 -8-8v-360h448v360a8.009 8.009 0 0 1 -8 8z" data-original="#000000" class="active-path" data-old_color="#000000" fill="#B0CE38"></path><circle cx="120" cy="64" r="8" data-original="#000000" class="active-path" data-old_color="#000000" fill="#B0CE38"></circle><circle cx="88" cy="64" r="8" data-original="#000000" class="active-path" data-old_color="#000000" fill="#B0CE38"></circle><circle cx="56" cy="64" r="8" data-original="#000000" class="active-path" data-old_color="#000000" fill="#B0CE38"></circle><path d="m216 152h80a8 8 0 0 0 0-16h-80a8 8 0 0 0 0 16z" data-original="#000000" class="active-path" data-old_color="#000000" fill="#B0CE38"></path><path d="m352 168h-192a8 8 0 0 0 -8 8v32a8 8 0 0 0 8 8h192a8 8 0 0 0 8-8v-32a8 8 0 0 0 -8-8zm-8 32h-176v-16h176z" data-original="#000000" class="active-path" data-old_color="#000000" fill="#B0CE38"></path><path d="m352 232h-192a8 8 0 0 0 -8 8v32a8 8 0 0 0 8 8h192a8 8 0 0 0 8-8v-32a8 8 0 0 0 -8-8zm-8 32h-176v-16h176z" data-original="#000000" class="active-path" data-old_color="#000000" fill="#B0CE38"></path><path d="m352 296h-192a8 8 0 0 0 -8 8v64a8 8 0 0 0 8 8h192a8 8 0 0 0 8-8v-64a8 8 0 0 0 -8-8zm-8 64h-176v-48h176z" data-original="#000000" class="active-path" data-old_color="#000000" fill="#B0CE38"></path><path d="m272 392h-32a24 24 0 0 0 0 48h32a24 24 0 0 0 0-48zm0 32h-32a8 8 0 0 1 0-16h32a8 8 0 0 1 0 16z" data-original="#000000" class="active-path" data-old_color="#000000" fill="#B0CE38"></path></g></svg>