<svg xmlns="http://www.w3.org/2000/svg" xmlns:xlink="http://www.w3.org/1999/xlink" id="Layer_1" x="0px" y="0px" viewBox="0 0 512 512" style="enable-background:new 0 0 512 512;" xml:space="preserve">
<style type="text/css">
	.st0{fill:#FFFFFF;}
	.st1{fill:#B0CE38;}
</style>
<path class="st0" d="M317.72,77.36c-9.77-13.72-24.94-22.91-41.97-25.01c-2.46-0.3-4.95-0.46-7.48-0.46h-1.68  c-0.63,0-1.23,0.16-1.74,0.46c-1.09,0.61-1.83,1.78-1.83,3.12c0,1.97,1.61,3.57,3.57,3.57h1.68c15.84,0,30.41,6.91,40.36,18.32  c1,1.15,1.96,2.34,2.86,3.57c0.85,1.15,1.64,2.34,2.41,3.57c2.04,3.32,3.75,6.91,5.04,10.71h7.54l-0.6-1.79  c-1.04-3.11-2.31-6.09-3.79-8.92h44.55v-7.15H317.72z M317.72,77.36c-9.77-13.72-24.94-22.91-41.97-25.01  c-2.46-0.3-4.95-0.46-7.48-0.46h-1.68c-0.63,0-1.23,0.16-1.74,0.46c-1.09,0.61-1.83,1.78-1.83,3.12c0,1.97,1.61,3.57,3.57,3.57h1.68  c15.84,0,30.41,6.91,40.36,18.32c1,1.15,1.96,2.34,2.86,3.57c0.85,1.15,1.64,2.34,2.41,3.57c2.04,3.32,3.75,6.91,5.04,10.71h7.54  l-0.6-1.79c-1.04-3.11-2.31-6.09-3.79-8.92h44.55v-7.15H317.72z M395.24,93.83c-3.34-9.21-11.81-15.58-21.46-16.38V47.1  c0-1.96-1.6-3.57-3.57-3.57c-1.97,0-3.57,1.6-3.57,3.57v30.26h-48.92c-9.77-13.72-24.94-22.91-41.97-25.01  c-2.46-0.3-4.95-0.46-7.48-0.46h-1.68c-0.63,0-1.23,0.16-1.74,0.46c-1.09,0.61-1.83,1.78-1.83,3.12c0,1.97,1.61,3.57,3.57,3.57h1.68  c15.84,0,30.41,6.91,40.36,18.32c1,1.15,1.96,2.34,2.86,3.57c0.85,1.15,1.64,2.34,2.41,3.57c2.04,3.32,3.75,6.91,5.04,10.71h7.54  l-0.6-1.79c-1.04-3.11-2.31-6.09-3.79-8.92h44.55v13.84c0,1.97,1.6,3.57,3.57,3.57c1.98,0,3.57-1.6,3.57-3.57V84.63  c6.65,0.77,12.42,5.25,14.74,11.64l6.12,16.82h7.61L395.24,93.83z M395.24,93.83c-3.34-9.21-11.81-15.58-21.46-16.38V47.1  c0-1.96-1.6-3.57-3.57-3.57c-1.97,0-3.57,1.6-3.57,3.57v30.26h-48.92c-9.77-13.72-24.94-22.91-41.97-25.01  c-2.46-0.3-4.95-0.46-7.48-0.46h-1.68c-0.63,0-1.23,0.16-1.74,0.46c-1.09,0.61-1.83,1.78-1.83,3.12c0,1.97,1.61,3.57,3.57,3.57h1.68  c15.84,0,30.41,6.91,40.36,18.32c1,1.15,1.96,2.34,2.86,3.57c0.85,1.15,1.64,2.34,2.41,3.57c2.04,3.32,3.75,6.91,5.04,10.71h7.54  l-0.6-1.79c-1.04-3.11-2.31-6.09-3.79-8.92h44.55v13.84c0,1.97,1.6,3.57,3.57,3.57c1.98,0,3.57-1.6,3.57-3.57V84.63  c6.65,0.77,12.42,5.25,14.74,11.64l6.12,16.82h7.61L395.24,93.83z M395.24,93.83c-3.34-9.21-11.81-15.58-21.46-16.38V47.1  c0-1.96-1.6-3.57-3.57-3.57c-1.97,0-3.57,1.6-3.57,3.57v30.26h-48.92c-9.77-13.72-24.94-22.91-41.97-25.01  c-2.46-0.3-4.95-0.46-7.48-0.46h-1.68c-0.63,0-1.23,0.16-1.74,0.46c-1.09,0.61-1.83,1.78-1.83,3.12c0,1.97,1.61,3.57,3.57,3.57h1.68  c15.84,0,30.41,6.91,40.36,18.32c1,1.15,1.96,2.34,2.86,3.57c0.85,1.15,1.64,2.34,2.41,3.57c2.04,3.32,3.75,6.91,5.04,10.71h7.54  l-0.6-1.79c-1.04-3.11-2.31-6.09-3.79-8.92h44.55v13.84c0,1.97,1.6,3.57,3.57,3.57c1.98,0,3.57-1.6,3.57-3.57V84.63  c6.65,0.77,12.42,5.25,14.74,11.64l6.12,16.82h7.61L395.24,93.83z M395.24,93.83c-3.34-9.21-11.81-15.58-21.46-16.38V47.1  c0-1.96-1.6-3.57-3.57-3.57c-1.97,0-3.57,1.6-3.57,3.57v30.26h-48.92c-9.77-13.72-24.94-22.91-41.97-25.01  c-2.46-0.3-4.95-0.46-7.48-0.46h-1.68c-0.63,0-1.23,0.16-1.74,0.46c-1.09,0.61-1.83,1.78-1.83,3.12c0,1.97,1.61,3.57,3.57,3.57h1.68  c15.84,0,30.41,6.91,40.36,18.32c1,1.15,1.96,2.34,2.86,3.57c0.85,1.15,1.64,2.34,2.41,3.57c2.04,3.32,3.75,6.91,5.04,10.71h7.54  l-0.6-1.79c-1.04-3.11-2.31-6.09-3.79-8.92h44.55v13.84c0,1.97,1.6,3.57,3.57,3.57c1.98,0,3.57-1.6,3.57-3.57V84.63  c6.65,0.77,12.42,5.25,14.74,11.64l6.12,16.82h7.61L395.24,93.83z M395.24,93.83c-3.34-9.21-11.81-15.58-21.46-16.38V47.1  c0-1.96-1.6-3.57-3.57-3.57c-1.97,0-3.57,1.6-3.57,3.57v30.26h-48.92c-9.77-13.72-24.94-22.91-41.97-25.01  c-2.46-0.3-4.95-0.46-7.48-0.46h-1.68c-0.63,0-1.23,0.16-1.74,0.46c-1.09,0.61-1.83,1.78-1.83,3.12c0,1.97,1.61,3.57,3.57,3.57h1.68  c15.84,0,30.41,6.91,40.36,18.32c1,1.15,1.96,2.34,2.86,3.57c0.85,1.15,1.64,2.34,2.41,3.57c2.04,3.32,3.75,6.91,5.04,10.71h7.54  l-0.6-1.79c-1.04-3.11-2.31-6.09-3.79-8.92h44.55v13.84c0,1.97,1.6,3.57,3.57,3.57c1.98,0,3.57-1.6,3.57-3.57V84.63  c6.65,0.77,12.42,5.25,14.74,11.64l6.12,16.82h7.61L395.24,93.83z M395.24,93.83c-3.34-9.21-11.81-15.58-21.46-16.38V47.1  c0-1.96-1.6-3.57-3.57-3.57c-1.97,0-3.57,1.6-3.57,3.57v30.26h-48.92c-9.77-13.72-24.94-22.91-41.97-25.01  c-2.46-0.3-4.95-0.46-7.48-0.46h-1.68c-0.63,0-1.23,0.16-1.74,0.46c-1.09,0.61-1.83,1.78-1.83,3.12c0,1.97,1.61,3.57,3.57,3.57h1.68  c15.84,0,30.41,6.91,40.36,18.32c1,1.15,1.96,2.34,2.86,3.57c0.85,1.15,1.64,2.34,2.41,3.57c2.04,3.32,3.75,6.91,5.04,10.71h7.54  l-0.6-1.79c-1.04-3.11-2.31-6.09-3.79-8.92h44.55v13.84c0,1.97,1.6,3.57,3.57,3.57c1.98,0,3.57-1.6,3.57-3.57V84.63  c6.65,0.77,12.42,5.25,14.74,11.64l6.12,16.82h7.61L395.24,93.83z M395.24,93.83c-3.34-9.21-11.81-15.58-21.46-16.38V47.1  c0-1.96-1.6-3.57-3.57-3.57c-1.97,0-3.57,1.6-3.57,3.57v30.26h-48.92c-9.77-13.72-24.94-22.91-41.97-25.01  c-2.46-0.3-4.95-0.46-7.48-0.46h-1.68c-0.63,0-1.23,0.16-1.74,0.46c-1.09,0.61-1.83,1.78-1.83,3.12c0,1.97,1.61,3.57,3.57,3.57h1.68  c15.84,0,30.41,6.91,40.36,18.32c1,1.15,1.96,2.34,2.86,3.57c0.85,1.15,1.64,2.34,2.41,3.57c2.04,3.32,3.75,6.91,5.04,10.71h7.54  l-0.6-1.79c-1.04-3.11-2.31-6.09-3.79-8.92h44.55v13.84c0,1.97,1.6,3.57,3.57,3.57c1.98,0,3.57-1.6,3.57-3.57V84.63  c6.65,0.77,12.42,5.25,14.74,11.64l6.12,16.82h7.61L395.24,93.83z M395.24,93.83c-3.34-9.21-11.81-15.58-21.46-16.38V47.1  c0-1.96-1.6-3.57-3.57-3.57c-1.97,0-3.57,1.6-3.57,3.57v30.26h-48.92c-9.77-13.72-24.94-22.91-41.97-25.01  c-2.46-0.3-4.95-0.46-7.48-0.46h-1.68c-0.63,0-1.23,0.16-1.74,0.46c-1.09,0.61-1.83,1.78-1.83,3.12c0,1.97,1.61,3.57,3.57,3.57h1.68  c15.84,0,30.41,6.91,40.36,18.32c1,1.15,1.96,2.34,2.86,3.57c0.85,1.15,1.64,2.34,2.41,3.57c2.04,3.32,3.75,6.91,5.04,10.71h7.54  l-0.6-1.79c-1.04-3.11-2.31-6.09-3.79-8.92h44.55v13.84c0,1.97,1.6,3.57,3.57,3.57c1.98,0,3.57-1.6,3.57-3.57V84.63  c6.65,0.77,12.42,5.25,14.74,11.64l6.12,16.82h7.61L395.24,93.83z M395.24,93.83c-3.34-9.21-11.81-15.58-21.46-16.38V47.1  c0-1.96-1.6-3.57-3.57-3.57c-1.97,0-3.57,1.6-3.57,3.57v30.26h-48.92c-9.77-13.72-24.94-22.91-41.97-25.01  c-2.46-0.3-4.95-0.46-7.48-0.46h-1.68c-0.63,0-1.23,0.16-1.74,0.46c-1.09,0.61-1.83,1.78-1.83,3.12c0,1.97,1.61,3.57,3.57,3.57h1.68  c15.84,0,30.41,6.91,40.36,18.32c1,1.15,1.96,2.34,2.86,3.57c0.85,1.15,1.64,2.34,2.41,3.57c2.04,3.32,3.75,6.91,5.04,10.71h7.54  l-0.6-1.79c-1.04-3.11-2.31-6.09-3.79-8.92h44.55v13.84c0,1.97,1.6,3.57,3.57,3.57c1.98,0,3.57-1.6,3.57-3.57V84.63  c6.65,0.77,12.42,5.25,14.74,11.64l6.12,16.82h7.61L395.24,93.83z M395.24,93.83c-3.34-9.21-11.81-15.58-21.46-16.38V47.1  c0-1.96-1.6-3.57-3.57-3.57c-1.97,0-3.57,1.6-3.57,3.57v30.26h-48.92c-9.77-13.72-24.94-22.91-41.97-25.01  c-2.46-0.3-4.95-0.46-7.48-0.46h-1.68c-0.63,0-1.23,0.16-1.74,0.46c-1.09,0.61-1.83,1.78-1.83,3.12c0,1.97,1.61,3.57,3.57,3.57h1.68  c15.84,0,30.41,6.91,40.36,18.32c1,1.15,1.96,2.34,2.86,3.57c0.85,1.15,1.64,2.34,2.41,3.57c2.04,3.32,3.75,6.91,5.04,10.71h7.54  l-0.6-1.79c-1.04-3.11-2.31-6.09-3.79-8.92h44.55v13.84c0,1.97,1.6,3.57,3.57,3.57c1.98,0,3.57-1.6,3.57-3.57V84.63  c6.65,0.77,12.42,5.25,14.74,11.64l6.12,16.82h7.61L395.24,93.83z M395.24,93.83c-3.34-9.21-11.81-15.58-21.46-16.38V47.1  c0-1.96-1.6-3.57-3.57-3.57c-1.97,0-3.57,1.6-3.57,3.57v30.26h-48.92c-9.77-13.72-24.94-22.91-41.97-25.01  c-2.46-0.3-4.95-0.46-7.48-0.46h-1.68c-0.63,0-1.23,0.16-1.74,0.46c-1.09,0.61-1.83,1.78-1.83,3.12c0,1.97,1.61,3.57,3.57,3.57h1.68  c15.84,0,30.41,6.91,40.36,18.32c1,1.15,1.96,2.34,2.86,3.57c0.85,1.15,1.64,2.34,2.41,3.57c2.04,3.32,3.75,6.91,5.04,10.71h7.54  l-0.6-1.79c-1.04-3.11-2.31-6.09-3.79-8.92h44.55v13.84c0,1.97,1.6,3.57,3.57,3.57c1.98,0,3.57-1.6,3.57-3.57V84.63  c6.65,0.77,12.42,5.25,14.74,11.64l6.12,16.82h7.61L395.24,93.83z M395.24,93.83c-3.34-9.21-11.81-15.58-21.46-16.38V47.1  c0-1.96-1.6-3.57-3.57-3.57c-1.97,0-3.57,1.6-3.57,3.57v30.26h-48.92c-9.77-13.72-24.94-22.91-41.97-25.01  c-2.46-0.3-4.95-0.46-7.48-0.46h-1.68c-0.63,0-1.23,0.16-1.74,0.46c-1.09,0.61-1.83,1.78-1.83,3.12c0,1.97,1.61,3.57,3.57,3.57h1.68  c15.84,0,30.41,6.91,40.36,18.32c1,1.15,1.96,2.34,2.86,3.57c0.85,1.15,1.64,2.34,2.41,3.57c2.04,3.32,3.75,6.91,5.04,10.71h7.54  l-0.6-1.79c-1.04-3.11-2.31-6.09-3.79-8.92h44.55v13.84c0,1.97,1.6,3.57,3.57,3.57c1.98,0,3.57-1.6,3.57-3.57V84.63  c6.65,0.77,12.42,5.25,14.74,11.64l6.12,16.82h7.61L395.24,93.83z M395.24,93.83c-3.34-9.21-11.81-15.58-21.46-16.38V47.1  c0-1.96-1.6-3.57-3.57-3.57c-1.97,0-3.57,1.6-3.57,3.57v30.26h-48.92c-9.77-13.72-24.94-22.91-41.97-25.01  c-2.46-0.3-4.95-0.46-7.48-0.46h-1.68c-0.63,0-1.23,0.16-1.74,0.46c-1.09,0.61-1.83,1.78-1.83,3.12c0,1.97,1.61,3.57,3.57,3.57h1.68  c15.84,0,30.41,6.91,40.36,18.32c1,1.15,1.96,2.34,2.86,3.57c0.85,1.15,1.64,2.34,2.41,3.57c2.04,3.32,3.75,6.91,5.04,10.71h7.54  l-0.6-1.79c-1.04-3.11-2.31-6.09-3.79-8.92h44.55v13.84c0,1.97,1.6,3.57,3.57,3.57c1.98,0,3.57-1.6,3.57-3.57V84.63  c6.65,0.77,12.42,5.25,14.74,11.64l6.12,16.82h7.61L395.24,93.83z M395.24,93.83c-3.34-9.21-11.81-15.58-21.46-16.38V47.1  c0-1.96-1.6-3.57-3.57-3.57c-1.97,0-3.57,1.6-3.57,3.57v30.26h-48.92c-9.77-13.72-24.94-22.91-41.97-25.01  c-2.46-0.3-4.95-0.46-7.48-0.46h-1.68c-0.63,0-1.23,0.16-1.74,0.46c-1.09,0.61-1.83,1.78-1.83,3.12c0,1.97,1.61,3.57,3.57,3.57h1.68  c15.84,0,30.41,6.91,40.36,18.32c1,1.15,1.96,2.34,2.86,3.57c0.85,1.15,1.64,2.34,2.41,3.57c2.04,3.32,3.75,6.91,5.04,10.71h7.54  l-0.6-1.79c-1.04-3.11-2.31-6.09-3.79-8.92h44.55v13.84c0,1.97,1.6,3.57,3.57,3.57c1.98,0,3.57-1.6,3.57-3.57V84.63  c6.65,0.77,12.42,5.25,14.74,11.64l6.12,16.82h7.61L395.24,93.83z M373.91,141.67h-14.29c-1.97,0-3.57,1.6-3.57,3.57  s1.6,3.57,3.57,3.57h14.29c1.97,0,3.57-1.6,3.57-3.57S375.88,141.67,373.91,141.67z M395.24,93.83  c-3.34-9.21-11.81-15.58-21.46-16.38V47.1c0-1.96-1.6-3.57-3.57-3.57c-1.97,0-3.57,1.6-3.57,3.57v30.26h-48.92  c-9.77-13.72-24.94-22.91-41.97-25.01c-2.46-0.3-4.95-0.46-7.48-0.46h-1.68c-0.63,0-1.23,0.16-1.74,0.46  c-1.09,0.61-1.83,1.78-1.83,3.12c0,1.97,1.61,3.57,3.57,3.57h1.68c15.84,0,30.41,6.91,40.36,18.32c1,1.15,1.96,2.34,2.86,3.57  c0.85,1.15,1.64,2.34,2.41,3.57c2.04,3.32,3.75,6.91,5.04,10.71h7.54l-0.6-1.79c-1.04-3.11-2.31-6.09-3.79-8.92h44.55v13.84  c0,1.97,1.6,3.57,3.57,3.57c1.98,0,3.57-1.6,3.57-3.57V84.63c6.65,0.77,12.42,5.25,14.74,11.64l6.12,16.82h7.61L395.24,93.83z   M373.91,141.67h-14.29c-1.97,0-3.57,1.6-3.57,3.57s1.6,3.57,3.57,3.57h14.29c1.97,0,3.57-1.6,3.57-3.57  S375.88,141.67,373.91,141.67z M373.91,141.67h-14.29c-1.97,0-3.57,1.6-3.57,3.57s1.6,3.57,3.57,3.57h14.29  c1.97,0,3.57-1.6,3.57-3.57S375.88,141.67,373.91,141.67z M395.24,93.83c-3.34-9.21-11.81-15.58-21.46-16.38V47.1  c0-1.96-1.6-3.57-3.57-3.57c-1.97,0-3.57,1.6-3.57,3.57v30.26h-48.92c-9.77-13.72-24.94-22.91-41.97-25.01  c-2.46-0.3-4.95-0.46-7.48-0.46h-1.68c-0.63,0-1.23,0.16-1.74,0.46c-1.09,0.61-1.83,1.78-1.83,3.12c0,1.97,1.61,3.57,3.57,3.57h1.68  c15.84,0,30.41,6.91,40.36,18.32c1,1.15,1.96,2.34,2.86,3.57c0.85,1.15,1.64,2.34,2.41,3.57c2.04,3.32,3.75,6.91,5.04,10.71h7.54  l-0.6-1.79c-1.04-3.11-2.31-6.09-3.79-8.92h44.55v13.84c0,1.97,1.6,3.57,3.57,3.57c1.98,0,3.57-1.6,3.57-3.57V84.63  c6.65,0.77,12.42,5.25,14.74,11.64l6.12,16.82h7.61L395.24,93.83z M373.91,141.67h-14.29c-1.97,0-3.57,1.6-3.57,3.57  s1.6,3.57,3.57,3.57h14.29c1.97,0,3.57-1.6,3.57-3.57S375.88,141.67,373.91,141.67z M338.18,141.67h-39.3v2.62l0.55,0.95h42.33  C341.75,143.27,340.15,141.67,338.18,141.67z M373.91,141.67h-14.29c-1.97,0-3.57,1.6-3.57,3.57s1.6,3.57,3.57,3.57h14.29  c1.97,0,3.57-1.6,3.57-3.57S375.88,141.67,373.91,141.67z M395.24,93.83c-3.34-9.21-11.81-15.58-21.46-16.38V47.1  c0-1.96-1.6-3.57-3.57-3.57c-1.97,0-3.57,1.6-3.57,3.57v30.26h-48.92c-9.77-13.72-24.94-22.91-41.97-25.01  c-2.46-0.3-4.95-0.46-7.48-0.46h-1.68c-0.63,0-1.23,0.16-1.74,0.46c-1.09,0.61-1.83,1.78-1.83,3.12c0,1.97,1.61,3.57,3.57,3.57h1.68  c15.84,0,30.41,6.91,40.36,18.32c1,1.15,1.96,2.34,2.86,3.57c0.85,1.15,1.64,2.34,2.41,3.57c2.04,3.32,3.75,6.91,5.04,10.71h7.54  l-0.6-1.79c-1.04-3.11-2.31-6.09-3.79-8.92h44.55v13.84c0,1.97,1.6,3.57,3.57,3.57c1.98,0,3.57-1.6,3.57-3.57V84.63  c6.65,0.77,12.42,5.25,14.74,11.64l6.12,16.82h7.61L395.24,93.83z M373.91,141.67h-14.29c-1.97,0-3.57,1.6-3.57,3.57  s1.6,3.57,3.57,3.57h14.29c1.97,0,3.57-1.6,3.57-3.57S375.88,141.67,373.91,141.67z M338.18,141.67h-39.3v2.62l0.55,0.95h42.33  C341.75,143.27,340.15,141.67,338.18,141.67z M373.91,141.67h-14.29c-1.97,0-3.57,1.6-3.57,3.57s1.6,3.57,3.57,3.57h14.29  c1.97,0,3.57-1.6,3.57-3.57S375.88,141.67,373.91,141.67z M395.24,93.83c-3.34-9.21-11.81-15.58-21.46-16.38V47.1  c0-1.96-1.6-3.57-3.57-3.57c-1.97,0-3.57,1.6-3.57,3.57v30.26h-48.92c-9.77-13.72-24.94-22.91-41.97-25.01  c-2.46-0.3-4.95-0.46-7.48-0.46h-1.68c-0.63,0-1.23,0.16-1.74,0.46c-1.09,0.61-1.83,1.78-1.83,3.12c0,1.97,1.61,3.57,3.57,3.57h1.68  c15.84,0,30.41,6.91,40.36,18.32c1,1.15,1.96,2.34,2.86,3.57c0.85,1.15,1.64,2.34,2.41,3.57c2.04,3.32,3.75,6.91,5.04,10.71h7.54  l-0.6-1.79c-1.04-3.11-2.31-6.09-3.79-8.92h44.55v13.84c0,1.97,1.6,3.57,3.57,3.57c1.98,0,3.57-1.6,3.57-3.57V84.63  c6.65,0.77,12.42,5.25,14.74,11.64l6.12,16.82h7.61L395.24,93.83z M373.91,141.67h-14.29c-1.97,0-3.57,1.6-3.57,3.57  s1.6,3.57,3.57,3.57h14.29c1.97,0,3.57-1.6,3.57-3.57S375.88,141.67,373.91,141.67z M338.18,141.67h-39.3v2.62l0.55,0.95h42.33  C341.75,143.27,340.15,141.67,338.18,141.67z M373.91,141.67h-14.29c-1.97,0-3.57,1.6-3.57,3.57s1.6,3.57,3.57,3.57h14.29  c1.97,0,3.57-1.6,3.57-3.57S375.88,141.67,373.91,141.67z M338.18,141.67h-39.3v2.62l0.55,0.95h42.33  C341.75,143.27,340.15,141.67,338.18,141.67z M373.91,141.67h-14.29c-1.97,0-3.57,1.6-3.57,3.57s1.6,3.57,3.57,3.57h14.29  c1.97,0,3.57-1.6,3.57-3.57S375.88,141.67,373.91,141.67z M445.36,130.95L445.36,130.95l-3.57-9.83v20.55h-10.72  c-1.97,0-3.57,1.6-3.57,3.57s1.6,3.57,3.57,3.57h8.13l-6.13,10.72l-8.51,14.91l-2.33,4.07l-2.32,4.06l-6.97,12.19v0.01l1.25,3.45  c0.11,0.32,0.22,0.63,0.34,0.95c0.54,1.61,0.99,3.24,1.32,4.9l7.25-12.69l2.32-4.06l2.33-4.07l20.71-36.24  c0.01-0.03,0.03-0.05,0.03-0.07c0.11-0.21,0.2-0.42,0.27-0.64c0.03-0.09,0.05-0.17,0.08-0.27c0-0.02,0.01-0.03,0.01-0.06  c0.01-0.06,0.02-0.11,0.03-0.16c0.02-0.05,0.03-0.11,0.03-0.17c0.02-0.13,0.03-0.26,0.03-0.4v-4.47L445.36,130.95z M427.49,340.67  v-19.26l-6.42,9.62L427.49,340.67z M301.46,148.82h-4.12l6.13,10.72l46.95,82.17h4.12l-46.95-82.17L301.46,148.82z M373.91,141.67  h-14.29c-1.97,0-3.57,1.6-3.57,3.57s1.6,3.57,3.57,3.57h14.29c1.97,0,3.57-1.6,3.57-3.57S375.88,141.67,373.91,141.67z   M338.18,141.67h-39.3v2.62l0.55,0.95h42.33C341.75,143.27,340.15,141.67,338.18,141.67z M395.24,93.83  c-3.34-9.21-11.81-15.58-21.46-16.38V47.1c0-1.96-1.6-3.57-3.57-3.57c-1.97,0-3.57,1.6-3.57,3.57v30.26h-48.92  c-9.77-13.72-24.94-22.91-41.97-25.01c-2.46-0.3-4.95-0.46-7.48-0.46h-1.68c-0.63,0-1.23,0.16-1.74,0.46  c-1.09,0.61-1.83,1.78-1.83,3.12c0,1.97,1.61,3.57,3.57,3.57h1.68c15.84,0,30.41,6.91,40.36,18.32c1,1.15,1.96,2.34,2.86,3.57  c0.85,1.15,1.64,2.34,2.41,3.57c2.04,3.32,3.75,6.91,5.04,10.71h7.54l-0.6-1.79c-1.04-3.11-2.31-6.09-3.79-8.92h44.55v13.84  c0,1.97,1.6,3.57,3.57,3.57c1.98,0,3.57-1.6,3.57-3.57V84.63c6.65,0.77,12.42,5.25,14.74,11.64l6.12,16.82h7.61L395.24,93.83z   M373.91,141.67h-14.29c-1.97,0-3.57,1.6-3.57,3.57s1.6,3.57,3.57,3.57h14.29c1.97,0,3.57-1.6,3.57-3.57  S375.88,141.67,373.91,141.67z M338.18,141.67h-39.3v2.62l0.55,0.95h42.33C341.75,143.27,340.15,141.67,338.18,141.67z   M373.91,141.67h-14.29c-1.97,0-3.57,1.6-3.57,3.57s1.6,3.57,3.57,3.57h14.29c1.97,0,3.57-1.6,3.57-3.57  S375.88,141.67,373.91,141.67z M445.36,130.95L445.36,130.95l-3.57-9.83v20.55h-10.72c-1.97,0-3.57,1.6-3.57,3.57  s1.6,3.57,3.57,3.57h8.13l-6.13,10.72l-8.51,14.91l-2.33,4.07l-2.32,4.06l-6.97,12.19v0.01l1.25,3.45c0.11,0.32,0.22,0.63,0.34,0.95  c0.54,1.61,0.99,3.24,1.32,4.9l7.25-12.69l2.32-4.06l2.33-4.07l20.71-36.24c0.01-0.03,0.03-0.05,0.03-0.07  c0.11-0.21,0.2-0.42,0.27-0.64c0.03-0.09,0.05-0.17,0.08-0.27c0-0.02,0.01-0.03,0.01-0.06c0.01-0.06,0.02-0.11,0.03-0.16  c0.02-0.05,0.03-0.11,0.03-0.17c0.02-0.13,0.03-0.26,0.03-0.4v-4.47L445.36,130.95z M427.49,340.67v-19.26l-6.42,9.62L427.49,340.67  z M301.46,148.82h-4.12l6.13,10.72l46.95,82.17h4.12l-46.95-82.17L301.46,148.82z M395.24,93.83c-3.34-9.21-11.81-15.58-21.46-16.38  V47.1c0-1.96-1.6-3.57-3.57-3.57c-1.97,0-3.57,1.6-3.57,3.57v30.26h-48.92c-9.77-13.72-24.94-22.91-41.97-25.01  c-2.46-0.3-4.95-0.46-7.48-0.46h-1.68c-0.63,0-1.23,0.16-1.74,0.46c-1.09,0.61-1.83,1.78-1.83,3.12c0,1.97,1.61,3.57,3.57,3.57h1.68  c15.84,0,30.41,6.91,40.36,18.32c1,1.15,1.96,2.34,2.86,3.57c0.85,1.15,1.64,2.34,2.41,3.57c2.04,3.32,3.75,6.91,5.04,10.71h7.54  l-0.6-1.79c-1.04-3.11-2.31-6.09-3.79-8.92h44.55v13.84c0,1.97,1.6,3.57,3.57,3.57c1.98,0,3.57-1.6,3.57-3.57V84.63  c6.65,0.77,12.42,5.25,14.74,11.64l6.12,16.82h7.61L395.24,93.83z M373.91,141.67h-14.29c-1.97,0-3.57,1.6-3.57,3.57  s1.6,3.57,3.57,3.57h14.29c1.97,0,3.57-1.6,3.57-3.57S375.88,141.67,373.91,141.67z M338.18,141.67h-39.3v2.62l0.55,0.95h42.33  C341.75,143.27,340.15,141.67,338.18,141.67z M373.91,141.67h-14.29c-1.97,0-3.57,1.6-3.57,3.57s1.6,3.57,3.57,3.57h14.29  c1.97,0,3.57-1.6,3.57-3.57S375.88,141.67,373.91,141.67z M445.36,130.95L445.36,130.95l-3.57-9.83v20.55h-10.72  c-1.97,0-3.57,1.6-3.57,3.57s1.6,3.57,3.57,3.57h8.13l-6.13,10.72l-8.51,14.91l-2.33,4.07l-2.32,4.06l-6.97,12.19v0.01l1.25,3.45  c0.11,0.32,0.22,0.63,0.34,0.95c0.54,1.61,0.99,3.24,1.32,4.9l7.25-12.69l2.32-4.06l2.33-4.07l20.71-36.24  c0.01-0.03,0.03-0.05,0.03-0.07c0.11-0.21,0.2-0.42,0.27-0.64c0.03-0.09,0.05-0.17,0.08-0.27c0-0.02,0.01-0.03,0.01-0.06  c0.01-0.06,0.02-0.11,0.03-0.16c0.02-0.05,0.03-0.11,0.03-0.17c0.02-0.13,0.03-0.26,0.03-0.4v-4.47L445.36,130.95z M427.49,340.67  v-19.26l-6.42,9.62L427.49,340.67z M301.46,148.82h-4.12l6.13,10.72l46.95,82.17h4.12l-46.95-82.17L301.46,148.82z M395.24,93.83  c-3.34-9.21-11.81-15.58-21.46-16.38V47.1c0-1.96-1.6-3.57-3.57-3.57c-1.97,0-3.57,1.6-3.57,3.57v30.26h-48.92  c-9.77-13.72-24.94-22.91-41.97-25.01c-2.46-0.3-4.95-0.46-7.48-0.46h-1.68c-0.63,0-1.23,0.16-1.74,0.46  c-1.09,0.61-1.83,1.78-1.83,3.12c0,1.97,1.61,3.57,3.57,3.57h1.68c15.84,0,30.41,6.91,40.36,18.32c1,1.15,1.96,2.34,2.86,3.57  c0.85,1.15,1.64,2.34,2.41,3.57c2.04,3.32,3.75,6.91,5.04,10.71h7.54l-0.6-1.79c-1.04-3.11-2.31-6.09-3.79-8.92h44.55v13.84  c0,1.97,1.6,3.57,3.57,3.57c1.98,0,3.57-1.6,3.57-3.57V84.63c6.65,0.77,12.42,5.25,14.74,11.64l6.12,16.82h7.61L395.24,93.83z   M373.91,141.67h-14.29c-1.97,0-3.57,1.6-3.57,3.57s1.6,3.57,3.57,3.57h14.29c1.97,0,3.57-1.6,3.57-3.57  S375.88,141.67,373.91,141.67z M338.18,141.67h-39.3v2.62l0.55,0.95h42.33C341.75,143.27,340.15,141.67,338.18,141.67z   M126.95,176.32l0.42,0.77l1.15-2.1C128,175.45,127.49,175.89,126.95,176.32z M373.91,141.67h-14.29c-1.97,0-3.57,1.6-3.57,3.57  s1.6,3.57,3.57,3.57h14.29c1.97,0,3.57-1.6,3.57-3.57S375.88,141.67,373.91,141.67z M445.36,130.95L445.36,130.95l-3.57-9.83v20.55  h-10.72c-1.97,0-3.57,1.6-3.57,3.57s1.6,3.57,3.57,3.57h8.13l-6.13,10.72l-8.51,14.91l-2.33,4.07l-2.32,4.06l-6.97,12.19v0.01  l1.25,3.45c0.11,0.32,0.22,0.63,0.34,0.95c0.54,1.61,0.99,3.24,1.32,4.9l7.25-12.69l2.32-4.06l2.33-4.07l20.71-36.24  c0.01-0.03,0.03-0.05,0.03-0.07c0.11-0.21,0.2-0.42,0.27-0.64c0.03-0.09,0.05-0.17,0.08-0.27c0-0.02,0.01-0.03,0.01-0.06  c0.01-0.06,0.02-0.11,0.03-0.16c0.02-0.05,0.03-0.11,0.03-0.17c0.02-0.13,0.03-0.26,0.03-0.4v-4.47L445.36,130.95z M427.49,340.67  v-19.26l-6.42,9.62L427.49,340.67z M303.47,159.54l46.95,82.17h4.12l-46.95-82.17H303.47z M373.91,141.67h-14.29  c-1.97,0-3.57,1.6-3.57,3.57s1.6,3.57,3.57,3.57h14.29c1.97,0,3.57-1.6,3.57-3.57S375.88,141.67,373.91,141.67z M145.24,154.17  l-1.74-0.95l-0.29,0.7l2.01,0.32l0.22,0.03L145.24,154.17z M373.91,141.67h-14.29c-1.97,0-3.57,1.6-3.57,3.57s1.6,3.57,3.57,3.57  h14.29c1.97,0,3.57-1.6,3.57-3.57S375.88,141.67,373.91,141.67z M445.36,130.95L445.36,130.95l-3.57-9.83v20.55h-10.72  c-1.97,0-3.57,1.6-3.57,3.57s1.6,3.57,3.57,3.57h8.13l-6.13,10.72l-8.51,14.91l-2.33,4.07l-2.32,4.06l-6.97,12.19v0.01l1.25,3.45  c0.11,0.32,0.22,0.63,0.34,0.95c0.54,1.61,0.99,3.24,1.32,4.9l7.25-12.69l2.32-4.06l2.33-4.07l20.71-36.24  c0.01-0.03,0.03-0.05,0.03-0.07c0.11-0.21,0.2-0.42,0.27-0.64c0.03-0.09,0.05-0.17,0.08-0.27c0-0.02,0.01-0.03,0.01-0.06  c0.01-0.06,0.02-0.11,0.03-0.16c0.02-0.05,0.03-0.11,0.03-0.17c0.02-0.13,0.03-0.26,0.03-0.4v-4.47L445.36,130.95z M427.49,340.67  v-19.26l-6.42,9.62L427.49,340.67z M303.47,159.54l46.95,82.17h4.12l-46.95-82.17H303.47z M373.91,141.67h-14.29  c-1.97,0-3.57,1.6-3.57,3.57s1.6,3.57,3.57,3.57h14.29c1.97,0,3.57-1.6,3.57-3.57S375.88,141.67,373.91,141.67z M373.91,141.67  h-14.29c-1.97,0-3.57,1.6-3.57,3.57s1.6,3.57,3.57,3.57h14.29c1.97,0,3.57-1.6,3.57-3.57S375.88,141.67,373.91,141.67z   M445.36,130.95L445.36,130.95l-3.57-9.83v20.55h-10.72c-1.97,0-3.57,1.6-3.57,3.57s1.6,3.57,3.57,3.57h8.13l-6.13,10.72  l-8.51,14.91l-2.33,4.07l-2.32,4.06l-6.97,12.19v0.01l1.25,3.45c0.11,0.32,0.22,0.63,0.34,0.95c0.54,1.61,0.99,3.24,1.32,4.9  l7.25-12.69l2.32-4.06l2.33-4.07l20.71-36.24c0.01-0.03,0.03-0.05,0.03-0.07c0.11-0.21,0.2-0.42,0.27-0.64  c0.03-0.09,0.05-0.17,0.08-0.27c0-0.02,0.01-0.03,0.01-0.06c0.01-0.06,0.02-0.11,0.03-0.16c0.02-0.05,0.03-0.11,0.03-0.17  c0.02-0.13,0.03-0.26,0.03-0.4v-4.47L445.36,130.95z M427.49,340.67v-19.26l-6.42,9.62L427.49,340.67z M303.47,159.54l46.95,82.17  h4.12l-46.95-82.17H303.47z M373.91,141.67h-14.29c-1.97,0-3.57,1.6-3.57,3.57s1.6,3.57,3.57,3.57h14.29c1.97,0,3.57-1.6,3.57-3.57  S375.88,141.67,373.91,141.67z M373.91,141.67h-14.29c-1.97,0-3.57,1.6-3.57,3.57s1.6,3.57,3.57,3.57h14.29  c1.97,0,3.57-1.6,3.57-3.57S375.88,141.67,373.91,141.67z M445.36,130.95L445.36,130.95l-3.57-9.83v20.55h-10.72  c-1.97,0-3.57,1.6-3.57,3.57s1.6,3.57,3.57,3.57h8.13l-6.13,10.72l-8.51,14.91l-2.33,4.07l-2.32,4.06l-6.97,12.19v0.01l1.25,3.45  c0.11,0.32,0.22,0.63,0.34,0.95c0.54,1.61,0.99,3.24,1.32,4.9l7.25-12.69l2.32-4.06l2.33-4.07l20.71-36.24  c0.01-0.03,0.03-0.05,0.03-0.07c0.11-0.21,0.2-0.42,0.27-0.64c0.03-0.09,0.05-0.17,0.08-0.27c0-0.02,0.01-0.03,0.01-0.06  c0.01-0.06,0.02-0.11,0.03-0.16c0.02-0.05,0.03-0.11,0.03-0.17c0.02-0.13,0.03-0.26,0.03-0.4v-4.47L445.36,130.95z M427.49,340.67  v-19.26l-6.42,9.62L427.49,340.67z M303.47,159.54l46.95,82.17h4.12l-46.95-82.17H303.47z M373.91,141.67h-14.29  c-1.97,0-3.57,1.6-3.57,3.57s1.6,3.57,3.57,3.57h14.29c1.97,0,3.57-1.6,3.57-3.57S375.88,141.67,373.91,141.67z M373.91,141.67  h-14.29c-1.97,0-3.57,1.6-3.57,3.57s1.6,3.57,3.57,3.57h14.29c1.97,0,3.57-1.6,3.57-3.57S375.88,141.67,373.91,141.67z   M373.91,141.67h-14.29c-1.97,0-3.57,1.6-3.57,3.57s1.6,3.57,3.57,3.57h14.29c1.97,0,3.57-1.6,3.57-3.57  S375.88,141.67,373.91,141.67z M373.91,141.67h-14.29c-1.97,0-3.57,1.6-3.57,3.57s1.6,3.57,3.57,3.57h14.29  c1.97,0,3.57-1.6,3.57-3.57S375.88,141.67,373.91,141.67z M373.91,141.67h-14.29c-1.97,0-3.57,1.6-3.57,3.57s1.6,3.57,3.57,3.57  h14.29c1.97,0,3.57-1.6,3.57-3.57S375.88,141.67,373.91,141.67z M468.79,181.06l-19.85-54.59l-3.57-9.81l-1.3-3.57l-12.77-35.13  l-2.54-6.97c-0.08-0.21-0.16-0.42-0.23-0.61c-0.93,0.96-1.83,1.96-2.71,2.99c-0.62,0.74-1.23,1.49-1.81,2.26  c-4.06,5.26-7.28,11.26-9.47,17.82l-1.26,3.79c-0.62,1.86,0.39,3.89,2.26,4.52c0.38,0.13,0.75,0.18,1.12,0.18  c1.5,0,2.9-0.94,3.4-2.44l1.26-3.79c1.57-4.69,3.73-9.06,6.39-13.01c0.37,0.86,0.72,1.72,1.04,2.6l10.12,27.81h-36.63l-7-19.26  c-3.34-9.21-11.81-15.58-21.46-16.38V47.1c0-1.96-1.6-3.57-3.57-3.57c-1.97,0-3.57,1.6-3.57,3.57v30.26h-48.92  c-9.77-13.72-24.94-22.91-41.97-25.01c-2.46-0.3-4.95-0.46-7.48-0.46h-1.68c-0.63,0-1.23,0.16-1.74,0.46  c-1.09,0.61-1.83,1.78-1.83,3.12c0,1.97,1.61,3.57,3.57,3.57h1.68c15.84,0,30.41,6.91,40.36,18.32c1,1.15,1.96,2.34,2.86,3.57  c0.85,1.15,1.64,2.34,2.41,3.57c2.04,3.32,3.75,6.91,5.04,10.71h-83.4c-5.75,0-10.94,3.44-13.17,8.75l-30.49,72.42  c-11.22,26.72-33.21,48.02-60.29,58.44l-27.21,10.47c-5.52,2.12-9.16,7.42-9.16,13.33v143.86c0,7.9,6.39,14.29,14.29,14.29h196.54  c-3.96-9.41-7.17-21.44-7.17-35.73c0-21.15,7.36-33.11,13.27-42.72c4.56-7.41,8.16-13.25,8.16-21.6v-35.73  c0-5.91,4.81-10.71,10.72-10.71c6.99,0,13.32,2.88,17.86,7.52v-36.11h5.65l-46.95-82.17l-6.13-10.72h36.71  c1.97,0,3.57-1.6,3.57-3.57s-1.6-3.57-3.57-3.57h-39.3v-21.43h142.59l0.32,0.88v20.55h-10.72c-1.97,0-3.57,1.6-3.57,3.57  s1.6,3.57,3.57,3.57h8.13l-6.13,10.72l-8.51,14.91l-2.33,4.07l-2.32,4.06l-6.97,12.19v0.01l1.25,3.45c0.11,0.32,0.22,0.63,0.34,0.95  c0.54,1.61,0.99,3.24,1.32,4.9l7.25-12.69l2.32-4.06l2.33-4.07l20.71-36.24c0.01-0.03,0.03-0.05,0.03-0.07  c0.11-0.21,0.2-0.42,0.27-0.64c0.03-0.09,0.05-0.17,0.08-0.27c0-0.02,0.01-0.03,0.01-0.06c0.01-0.06,0.02-0.11,0.03-0.16  c0.02-0.05,0.03-0.11,0.03-0.17c0.02-0.13,0.03-0.26,0.03-0.4v-4.47l19.85,54.59c0.14,0.39,0.29,0.78,0.42,1.18  c3.13,9.04,4.74,18.54,4.74,28.12v-14.29C473.94,200.37,472.2,190.45,468.79,181.06z M120.23,341.75c-3.95,0-7.15-3.2-7.15-7.15  s3.2-7.15,7.15-7.15c3.95,0,7.14,3.2,7.14,7.15S124.18,341.75,120.23,341.75z M148.82,398.91c-3.95,0-7.15-3.2-7.15-7.15  c0-3.95,3.2-7.14,7.15-7.14s7.15,3.19,7.15,7.14C155.96,395.71,152.76,398.91,148.82,398.91z M148.82,270.29  c-3.95,0-7.15-3.2-7.15-7.15s3.2-7.15,7.15-7.15s7.15,3.2,7.15,7.15S152.76,270.29,148.82,270.29z M205.98,191.69  c3.95,0,7.15,3.19,7.15,7.15c0,3.95-3.2,7.14-7.15,7.14s-7.14-3.19-7.14-7.14C198.84,194.88,202.03,191.69,205.98,191.69z   M191.69,341.75c-3.95,0-7.15-3.2-7.15-7.15s3.2-7.15,7.15-7.15c3.95,0,7.15,3.2,7.15,7.15S195.64,341.75,191.69,341.75z   M198.84,277.43c0-3.95,3.19-7.14,7.14-7.14s7.15,3.19,7.15,7.14c0,3.95-3.2,7.15-7.15,7.15S198.84,281.38,198.84,277.43z   M213.12,391.77c-3.95,0-7.15-3.19-7.15-7.14c0-3.95,3.2-7.15,7.15-7.15c3.95,0,7.15,3.19,7.15,7.15  C220.27,388.57,217.07,391.77,213.12,391.77z M378.45,99.93c-0.78-2.15-2.54-3.76-4.66-4.4V84.63c6.65,0.77,12.42,5.25,14.74,11.64  l6.12,16.82h-11.4L378.45,99.93z M325.89,93.43c-1.04-3.11-2.31-6.09-3.79-8.92h44.55v10.71h-40.16L325.89,93.43z M284.58,163.11  c3.95,0,7.15,3.19,7.15,7.14c0,3.95-3.2,7.15-7.15,7.15s-7.15-3.2-7.15-7.15C277.43,166.3,280.64,163.11,284.58,163.11z   M234.57,141.67c-3.95,0-7.15-3.2-7.15-7.15c0-3.95,3.2-7.15,7.15-7.15c3.95,0,7.14,3.2,7.14,7.15  C241.71,138.47,238.51,141.67,234.57,141.67z M248.85,220.27c0-3.95,3.2-7.15,7.15-7.15s7.15,3.2,7.15,7.15  c0,3.95-3.2,7.15-7.15,7.15S248.85,224.22,248.85,220.27z M263.15,334.6c-3.95,0-7.15-3.2-7.15-7.15s3.2-7.15,7.15-7.15  s7.15,3.2,7.15,7.15S267.09,334.6,263.15,334.6z M284.58,391.77c-3.95,0-7.15-3.19-7.15-7.14c0-3.95,3.2-7.15,7.15-7.15  s7.15,3.19,7.15,7.15C291.73,388.57,288.53,391.77,284.58,391.77z M291.73,277.43c-3.95,0-7.15-3.19-7.15-7.14s3.2-7.15,7.15-7.15  s7.15,3.2,7.15,7.15S295.67,277.43,291.73,277.43z M313.16,234.57c-3.95,0-7.14-3.2-7.14-7.15c0-3.95,3.19-7.15,7.14-7.15  s7.15,3.2,7.15,7.15C320.31,231.36,317.11,234.57,313.16,234.57z M427.49,340.67v-19.26l-6.42,9.62L427.49,340.67z M388.19,311.64  l3.57-3.13v-4.72l-3.57,3.13V311.64z M373.91,141.67h-14.29c-1.97,0-3.57,1.6-3.57,3.57s1.6,3.57,3.57,3.57h14.29  c1.97,0,3.57-1.6,3.57-3.57S375.88,141.67,373.91,141.67z M352.46,341.73c0.85,0,1.69-0.3,2.34-0.88l1.23-1.07v-4.72l-3.57,3.12  V341.73z M373.91,141.67h-14.29c-1.97,0-3.57,1.6-3.57,3.57s1.6,3.57,3.57,3.57h14.29c1.97,0,3.57-1.6,3.57-3.57  S375.88,141.67,373.91,141.67z M373.91,141.67h-14.29c-1.97,0-3.57,1.6-3.57,3.57s1.6,3.57,3.57,3.57h14.29  c1.97,0,3.57-1.6,3.57-3.57S375.88,141.67,373.91,141.67z M373.91,141.67h-14.29c-1.97,0-3.57,1.6-3.57,3.57s1.6,3.57,3.57,3.57  h14.29c1.97,0,3.57-1.6,3.57-3.57S375.88,141.67,373.91,141.67z M445.36,130.95L445.36,130.95l-3.57-9.83v20.55h-10.72  c-1.97,0-3.57,1.6-3.57,3.57s1.6,3.57,3.57,3.57h8.13l-6.13,10.72l-8.51,14.91l-2.33,4.07l-2.32,4.06l-6.97,12.19v0.01l1.25,3.45  c0.11,0.32,0.22,0.63,0.34,0.95c0.54,1.61,0.99,3.24,1.32,4.9l7.25-12.69l2.32-4.06l2.33-4.07l20.71-36.24  c0.01-0.03,0.03-0.05,0.03-0.07c0.11-0.21,0.2-0.42,0.27-0.64c0.03-0.09,0.05-0.17,0.08-0.27c0-0.02,0.01-0.03,0.01-0.06  c0.01-0.06,0.02-0.11,0.03-0.16c0.02-0.05,0.03-0.11,0.03-0.17c0.02-0.13,0.03-0.26,0.03-0.4v-4.47L445.36,130.95z M427.49,340.67  v-19.26l-6.42,9.62L427.49,340.67z M373.91,141.67h-14.29c-1.97,0-3.57,1.6-3.57,3.57s1.6,3.57,3.57,3.57h14.29  c1.97,0,3.57-1.6,3.57-3.57S375.88,141.67,373.91,141.67z M373.91,141.67h-14.29c-1.97,0-3.57,1.6-3.57,3.57s1.6,3.57,3.57,3.57  h14.29c1.97,0,3.57-1.6,3.57-3.57S375.88,141.67,373.91,141.67z M445.36,130.95L445.36,130.95l-3.57-9.83v20.55h-10.72  c-1.97,0-3.57,1.6-3.57,3.57s1.6,3.57,3.57,3.57h8.13l-6.13,10.72l-8.51,14.91l-2.33,4.07l-2.32,4.06l-6.97,12.19v0.01l1.25,3.45  c0.11,0.32,0.22,0.63,0.34,0.95c0.54,1.61,0.99,3.24,1.32,4.9l7.25-12.69l2.32-4.06l2.33-4.07l20.71-36.24  c0.01-0.03,0.03-0.05,0.03-0.07c0.11-0.21,0.2-0.42,0.27-0.64c0.03-0.09,0.05-0.17,0.08-0.27c0-0.02,0.01-0.03,0.01-0.06  c0.01-0.06,0.02-0.11,0.03-0.16c0.02-0.05,0.03-0.11,0.03-0.17c0.02-0.13,0.03-0.26,0.03-0.4v-4.47L445.36,130.95z M427.49,340.67  v-19.26l-6.42,9.62L427.49,340.67z M303.47,159.54l46.95,82.17h4.12l-46.95-82.17H303.47z M373.91,141.67h-14.29  c-1.97,0-3.57,1.6-3.57,3.57s1.6,3.57,3.57,3.57h14.29c1.97,0,3.57-1.6,3.57-3.57S375.88,141.67,373.91,141.67z M373.91,141.67  h-14.29c-1.97,0-3.57,1.6-3.57,3.57s1.6,3.57,3.57,3.57h14.29c1.97,0,3.57-1.6,3.57-3.57S375.88,141.67,373.91,141.67z   M445.36,130.95L445.36,130.95l-3.57-9.83v20.55h-10.72c-1.97,0-3.57,1.6-3.57,3.57s1.6,3.57,3.57,3.57h8.13l-6.13,10.72  l-8.51,14.91l-2.33,4.07l-2.32,4.06l-6.97,12.19v0.01l1.25,3.45c0.11,0.32,0.22,0.63,0.34,0.95c0.54,1.61,0.99,3.24,1.32,4.9  l7.25-12.69l2.32-4.06l2.33-4.07l20.71-36.24c0.01-0.03,0.03-0.05,0.03-0.07c0.11-0.21,0.2-0.42,0.27-0.64  c0.03-0.09,0.05-0.17,0.08-0.27c0-0.02,0.01-0.03,0.01-0.06c0.01-0.06,0.02-0.11,0.03-0.16c0.02-0.05,0.03-0.11,0.03-0.17  c0.02-0.13,0.03-0.26,0.03-0.4v-4.47L445.36,130.95z M427.49,340.67v-19.26l-6.42,9.62L427.49,340.67z M303.47,159.54l46.95,82.17  h4.12l-46.95-82.17H303.47z M373.91,141.67h-14.29c-1.97,0-3.57,1.6-3.57,3.57s1.6,3.57,3.57,3.57h14.29c1.97,0,3.57-1.6,3.57-3.57  S375.88,141.67,373.91,141.67z M373.91,141.67h-14.29c-1.97,0-3.57,1.6-3.57,3.57s1.6,3.57,3.57,3.57h14.29  c1.97,0,3.57-1.6,3.57-3.57S375.88,141.67,373.91,141.67z M445.36,130.95L445.36,130.95l-3.57-9.83v20.55h-10.72  c-1.97,0-3.57,1.6-3.57,3.57s1.6,3.57,3.57,3.57h8.13l-6.13,10.72l-8.51,14.91l-2.33,4.07l-2.32,4.06l-6.97,12.19v0.01l1.25,3.45  c0.11,0.32,0.22,0.63,0.34,0.95c0.54,1.61,0.99,3.24,1.32,4.9l7.25-12.69l2.32-4.06l2.33-4.07l20.71-36.24  c0.01-0.03,0.03-0.05,0.03-0.07c0.11-0.21,0.2-0.42,0.27-0.64c0.03-0.09,0.05-0.17,0.08-0.27c0-0.02,0.01-0.03,0.01-0.06  c0.01-0.06,0.02-0.11,0.03-0.16c0.02-0.05,0.03-0.11,0.03-0.17c0.02-0.13,0.03-0.26,0.03-0.4v-4.47L445.36,130.95z M427.49,340.67  v-19.26l-6.42,9.62L427.49,340.67z M303.47,159.54l46.95,82.17h4.12l-46.95-82.17H303.47z M373.91,141.67h-14.29  c-1.97,0-3.57,1.6-3.57,3.57s1.6,3.57,3.57,3.57h14.29c1.97,0,3.57-1.6,3.57-3.57S375.88,141.67,373.91,141.67z M338.18,141.67  h-39.3v2.62l0.55,0.95h42.33C341.75,143.27,340.15,141.67,338.18,141.67z M373.91,141.67h-14.29c-1.97,0-3.57,1.6-3.57,3.57  s1.6,3.57,3.57,3.57h14.29c1.97,0,3.57-1.6,3.57-3.57S375.88,141.67,373.91,141.67z M395.24,93.83  c-3.34-9.21-11.81-15.58-21.46-16.38V47.1c0-1.96-1.6-3.57-3.57-3.57c-1.97,0-3.57,1.6-3.57,3.57v30.26h-48.92  c-9.77-13.72-24.94-22.91-41.97-25.01c-2.46-0.3-4.95-0.46-7.48-0.46h-1.68c-0.63,0-1.23,0.16-1.74,0.46  c-1.09,0.61-1.83,1.78-1.83,3.12c0,1.97,1.61,3.57,3.57,3.57h1.68c15.84,0,30.41,6.91,40.36,18.32c1,1.15,1.96,2.34,2.86,3.57  c0.85,1.15,1.64,2.34,2.41,3.57c2.04,3.32,3.75,6.91,5.04,10.71h-83.4c-5.75,0-10.94,3.44-13.17,8.75l-30.49,72.42  c-11.22,26.72-33.21,48.02-60.29,58.44l-27.21,10.47c-5.52,2.12-9.16,7.42-9.16,13.33v143.86c0,7.9,6.39,14.29,14.29,14.29h196.54  c-3.96-9.41-7.17-21.44-7.17-35.73c0-21.15,7.36-33.11,13.27-42.72c4.56-7.41,8.16-13.25,8.16-21.6v-35.73  c0-5.91,4.81-10.71,10.72-10.71c6.99,0,13.32,2.88,17.86,7.52v-36.11h5.65l-46.95-82.17h-4.12l-6.13-10.72h-2.04  c-0.23,0-0.47-0.03-0.69-0.07c-0.03-0.01-0.08-0.02-0.11-0.03c-0.02,0-0.03-0.01-0.05-0.01c-0.07-0.01-0.14-0.03-0.21-0.06  c-0.14-0.04-0.27-0.1-0.41-0.16c-0.14-0.06-0.28-0.13-0.41-0.22c-0.06-0.03-0.11-0.06-0.16-0.1c-0.05-0.03-0.1-0.08-0.16-0.12  c-0.11-0.09-0.23-0.18-0.33-0.29c-0.11-0.11-0.22-0.23-0.31-0.35c-0.04-0.06-0.09-0.11-0.13-0.17c-0.03-0.05-0.06-0.1-0.09-0.16  c-0.03-0.04-0.06-0.1-0.09-0.14c-0.1-0.2-0.2-0.42-0.27-0.64c-0.03-0.09-0.05-0.17-0.08-0.27c0-0.02-0.01-0.03-0.01-0.06  c-0.01-0.06-0.02-0.11-0.03-0.16c-0.02-0.05-0.03-0.11-0.03-0.17c-0.02-0.13-0.03-0.26-0.03-0.4v-28.58c0-1.97,1.6-3.57,3.57-3.57  h87.93l-4.79-13.16c-0.78-2.15-2.54-3.76-4.66-4.4V84.63c6.65,0.77,12.42,5.25,14.74,11.64l6.12,16.82h7.61L395.24,93.83z   M120.23,341.75c-3.95,0-7.15-3.2-7.15-7.15s3.2-7.15,7.15-7.15c3.95,0,7.14,3.2,7.14,7.15S124.18,341.75,120.23,341.75z   M148.82,398.91c-3.95,0-7.15-3.2-7.15-7.15c0-3.95,3.2-7.14,7.15-7.14s7.15,3.19,7.15,7.14  C155.96,395.71,152.76,398.91,148.82,398.91z M148.82,270.29c-3.95,0-7.15-3.2-7.15-7.15s3.2-7.15,7.15-7.15s7.15,3.2,7.15,7.15  S152.76,270.29,148.82,270.29z M205.98,191.69c3.95,0,7.15,3.19,7.15,7.15c0,3.95-3.2,7.14-7.15,7.14s-7.14-3.19-7.14-7.14  C198.84,194.88,202.03,191.69,205.98,191.69z M191.69,341.75c-3.95,0-7.15-3.2-7.15-7.15s3.2-7.15,7.15-7.15  c3.95,0,7.15,3.2,7.15,7.15S195.64,341.75,191.69,341.75z M198.84,277.43c0-3.95,3.19-7.14,7.14-7.14s7.15,3.19,7.15,7.14  c0,3.95-3.2,7.15-7.15,7.15S198.84,281.38,198.84,277.43z M213.12,391.77c-3.95,0-7.15-3.19-7.15-7.14c0-3.95,3.2-7.15,7.15-7.15  c3.95,0,7.15,3.19,7.15,7.15C220.27,388.57,217.07,391.77,213.12,391.77z M284.58,163.11c3.95,0,7.15,3.19,7.15,7.14  c0,3.95-3.2,7.15-7.15,7.15s-7.15-3.2-7.15-7.15C277.43,166.3,280.64,163.11,284.58,163.11z M234.57,141.67  c-3.95,0-7.15-3.2-7.15-7.15c0-3.95,3.2-7.15,7.15-7.15c3.95,0,7.14,3.2,7.14,7.15C241.71,138.47,238.51,141.67,234.57,141.67z   M248.85,220.27c0-3.95,3.2-7.15,7.15-7.15s7.15,3.2,7.15,7.15c0,3.95-3.2,7.15-7.15,7.15S248.85,224.22,248.85,220.27z   M263.15,334.6c-3.95,0-7.15-3.2-7.15-7.15s3.2-7.15,7.15-7.15s7.15,3.2,7.15,7.15S267.09,334.6,263.15,334.6z M284.58,391.77  c-3.95,0-7.15-3.19-7.15-7.14c0-3.95,3.2-7.15,7.15-7.15s7.15,3.19,7.15,7.15C291.73,388.57,288.53,391.77,284.58,391.77z   M313.16,234.57c-3.95,0-7.14-3.2-7.14-7.15c0-3.95,3.19-7.15,7.14-7.15s7.15,3.2,7.15,7.15  C320.31,231.36,317.11,234.57,313.16,234.57z M298.88,270.29c0,3.95-3.2,7.14-7.15,7.14s-7.15-3.19-7.15-7.14s3.2-7.15,7.15-7.15  S298.88,266.35,298.88,270.29z M325.89,93.43c-1.04-3.11-2.31-6.09-3.79-8.92h44.55v10.71h-40.16L325.89,93.43z M445.36,130.95  L445.36,130.95l-3.57-9.83v20.55h-10.72c-1.97,0-3.57,1.6-3.57,3.57s1.6,3.57,3.57,3.57h8.13l-6.13,10.72l-8.51,14.91l-2.33,4.07  l-2.32,4.06l-6.97,12.19v0.01l1.25,3.45c0.11,0.32,0.22,0.63,0.34,0.95c0.54,1.61,0.99,3.24,1.32,4.9l7.25-12.69l2.32-4.06  l2.33-4.07l20.71-36.24c0.01-0.03,0.03-0.05,0.03-0.07c0.11-0.21,0.2-0.42,0.27-0.64c0.03-0.09,0.05-0.17,0.08-0.27  c0-0.02,0.01-0.03,0.01-0.06c0.01-0.06,0.02-0.11,0.03-0.16c0.02-0.05,0.03-0.11,0.03-0.17c0.02-0.13,0.03-0.26,0.03-0.4v-4.47  L445.36,130.95z M427.49,340.67v-19.26l-6.42,9.62L427.49,340.67z M301.46,148.82h-4.12l6.13,10.72l46.95,82.17h4.12l-46.95-82.17  L301.46,148.82z M373.91,141.67h-14.29c-1.97,0-3.57,1.6-3.57,3.57s1.6,3.57,3.57,3.57h14.29c1.97,0,3.57-1.6,3.57-3.57  S375.88,141.67,373.91,141.67z M338.18,141.67h-39.3v2.62l0.55,0.95h42.33C341.75,143.27,340.15,141.67,338.18,141.67z   M373.91,141.67h-14.29c-1.97,0-3.57,1.6-3.57,3.57s1.6,3.57,3.57,3.57h14.29c1.97,0,3.57-1.6,3.57-3.57  S375.88,141.67,373.91,141.67z M395.24,93.83c-3.34-9.21-11.81-15.58-21.46-16.38V47.1c0-1.96-1.6-3.57-3.57-3.57  c-1.97,0-3.57,1.6-3.57,3.57v30.26h-48.92c-9.77-13.72-24.94-22.91-41.97-25.01c-2.46-0.3-4.95-0.46-7.48-0.46h-1.68  c-0.63,0-1.23,0.16-1.74,0.46c-1.09,0.61-1.83,1.78-1.83,3.12c0,1.97,1.61,3.57,3.57,3.57h1.68c15.84,0,30.41,6.91,40.36,18.32  c1,1.15,1.96,2.34,2.86,3.57c0.85,1.15,1.64,2.34,2.41,3.57c2.04,3.32,3.75,6.91,5.04,10.71h7.54l-0.6-1.79  c-1.04-3.11-2.31-6.09-3.79-8.92h44.55v13.84c0,1.97,1.6,3.57,3.57,3.57c1.98,0,3.57-1.6,3.57-3.57V84.63  c6.65,0.77,12.42,5.25,14.74,11.64l6.12,16.82h7.61L395.24,93.83z M445.36,130.95L445.36,130.95l-3.57-9.83v20.55h-10.72  c-1.97,0-3.57,1.6-3.57,3.57s1.6,3.57,3.57,3.57h8.13l-6.13,10.72l-8.51,14.91l-2.33,4.07l-2.32,4.06l-6.97,12.19v0.01l1.25,3.45  c0.11,0.32,0.22,0.63,0.34,0.95c0.54,1.61,0.99,3.24,1.32,4.9l7.25-12.69l2.32-4.06l2.33-4.07l20.71-36.24  c0.01-0.03,0.03-0.05,0.03-0.07c0.11-0.21,0.2-0.42,0.27-0.64c0.03-0.09,0.05-0.17,0.08-0.27c0-0.02,0.01-0.03,0.01-0.06  c0.01-0.06,0.02-0.11,0.03-0.16c0.02-0.05,0.03-0.11,0.03-0.17c0.02-0.13,0.03-0.26,0.03-0.4v-4.47L445.36,130.95z M427.49,340.67  v-19.26l-6.42,9.62L427.49,340.67z M301.46,148.82h-4.12l6.13,10.72l46.95,82.17h4.12l-46.95-82.17L301.46,148.82z M373.91,141.67  h-14.29c-1.97,0-3.57,1.6-3.57,3.57s1.6,3.57,3.57,3.57h14.29c1.97,0,3.57-1.6,3.57-3.57S375.88,141.67,373.91,141.67z   M338.18,141.67h-39.3v2.62l0.55,0.95h42.33C341.75,143.27,340.15,141.67,338.18,141.67z M373.91,141.67h-14.29  c-1.97,0-3.57,1.6-3.57,3.57s1.6,3.57,3.57,3.57h14.29c1.97,0,3.57-1.6,3.57-3.57S375.88,141.67,373.91,141.67z M395.24,93.83  c-3.34-9.21-11.81-15.58-21.46-16.38V47.1c0-1.96-1.6-3.57-3.57-3.57c-1.97,0-3.57,1.6-3.57,3.57v30.26h-48.92  c-9.77-13.72-24.94-22.91-41.97-25.01c-2.46-0.3-4.95-0.46-7.48-0.46h-1.68c-0.63,0-1.23,0.16-1.74,0.46  c-1.09,0.61-1.83,1.78-1.83,3.12c0,1.97,1.61,3.57,3.57,3.57h1.68c15.84,0,30.41,6.91,40.36,18.32c1,1.15,1.96,2.34,2.86,3.57  c0.85,1.15,1.64,2.34,2.41,3.57c2.04,3.32,3.75,6.91,5.04,10.71h7.54l-0.6-1.79c-1.04-3.11-2.31-6.09-3.79-8.92h44.55v13.84  c0,1.97,1.6,3.57,3.57,3.57c1.98,0,3.57-1.6,3.57-3.57V84.63c6.65,0.77,12.42,5.25,14.74,11.64l6.12,16.82h7.61L395.24,93.83z   M338.18,141.67h-39.3v2.62l0.55,0.95h42.33C341.75,143.27,340.15,141.67,338.18,141.67z M373.91,141.67h-14.29  c-1.97,0-3.57,1.6-3.57,3.57s1.6,3.57,3.57,3.57h14.29c1.97,0,3.57-1.6,3.57-3.57S375.88,141.67,373.91,141.67z M445.36,130.95  L445.36,130.95l-3.57-9.83v20.55h-10.72c-1.97,0-3.57,1.6-3.57,3.57s1.6,3.57,3.57,3.57h8.13l-6.13,10.72l-8.51,14.91l-2.33,4.07  l-2.32,4.06l-6.97,12.19v0.01l1.25,3.45c0.11,0.32,0.22,0.63,0.34,0.95c0.54,1.61,0.99,3.24,1.32,4.9l7.25-12.69l2.32-4.06  l2.33-4.07l20.71-36.24c0.01-0.03,0.03-0.05,0.03-0.07c0.11-0.21,0.2-0.42,0.27-0.64c0.03-0.09,0.05-0.17,0.08-0.27  c0-0.02,0.01-0.03,0.01-0.06c0.01-0.06,0.02-0.11,0.03-0.16c0.02-0.05,0.03-0.11,0.03-0.17c0.02-0.13,0.03-0.26,0.03-0.4v-4.47  L445.36,130.95z M427.49,340.67v-19.26l-6.42,9.62L427.49,340.67z M301.46,148.82h-4.12l6.13,10.72l46.95,82.17h4.12l-46.95-82.17  L301.46,148.82z M373.91,141.67h-14.29c-1.97,0-3.57,1.6-3.57,3.57s1.6,3.57,3.57,3.57h14.29c1.97,0,3.57-1.6,3.57-3.57  S375.88,141.67,373.91,141.67z M338.18,141.67h-39.3v2.62l0.55,0.95h42.33C341.75,143.27,340.15,141.67,338.18,141.67z   M373.91,141.67h-14.29c-1.97,0-3.57,1.6-3.57,3.57s1.6,3.57,3.57,3.57h14.29c1.97,0,3.57-1.6,3.57-3.57  S375.88,141.67,373.91,141.67z M395.24,93.83c-3.34-9.21-11.81-15.58-21.46-16.38V47.1c0-1.96-1.6-3.57-3.57-3.57  c-1.97,0-3.57,1.6-3.57,3.57v30.26h-48.92c-9.77-13.72-24.94-22.91-41.97-25.01c-2.46-0.3-4.95-0.46-7.48-0.46h-1.68  c-0.63,0-1.23,0.16-1.74,0.46c-1.09,0.61-1.83,1.78-1.83,3.12c0,1.97,1.61,3.57,3.57,3.57h1.68c15.84,0,30.41,6.91,40.36,18.32  c1,1.15,1.96,2.34,2.86,3.57c0.85,1.15,1.64,2.34,2.41,3.57c2.04,3.32,3.75,6.91,5.04,10.71h7.54l-0.6-1.79  c-1.04-3.11-2.31-6.09-3.79-8.92h44.55v13.84c0,1.97,1.6,3.57,3.57,3.57c1.98,0,3.57-1.6,3.57-3.57V84.63  c6.65,0.77,12.42,5.25,14.74,11.64l6.12,16.82h7.61L395.24,93.83z M373.91,141.67h-14.29c-1.97,0-3.57,1.6-3.57,3.57  s1.6,3.57,3.57,3.57h14.29c1.97,0,3.57-1.6,3.57-3.57S375.88,141.67,373.91,141.67z M338.18,141.67h-39.3v2.62l0.55,0.95h42.33  C341.75,143.27,340.15,141.67,338.18,141.67z M373.91,141.67h-14.29c-1.97,0-3.57,1.6-3.57,3.57s1.6,3.57,3.57,3.57h14.29  c1.97,0,3.57-1.6,3.57-3.57S375.88,141.67,373.91,141.67z M395.24,93.83c-3.34-9.21-11.81-15.58-21.46-16.38V47.1  c0-1.96-1.6-3.57-3.57-3.57c-1.97,0-3.57,1.6-3.57,3.57v30.26h-48.92c-9.77-13.72-24.94-22.91-41.97-25.01  c-2.46-0.3-4.95-0.46-7.48-0.46h-1.68c-0.63,0-1.23,0.16-1.74,0.46c-1.09,0.61-1.83,1.78-1.83,3.12c0,1.97,1.61,3.57,3.57,3.57h1.68  c15.84,0,30.41,6.91,40.36,18.32c1,1.15,1.96,2.34,2.86,3.57c0.85,1.15,1.64,2.34,2.41,3.57c2.04,3.32,3.75,6.91,5.04,10.71h7.54  l-0.6-1.79c-1.04-3.11-2.31-6.09-3.79-8.92h44.55v13.84c0,1.97,1.6,3.57,3.57,3.57c1.98,0,3.57-1.6,3.57-3.57V84.63  c6.65,0.77,12.42,5.25,14.74,11.64l6.12,16.82h7.61L395.24,93.83z M373.91,141.67h-14.29c-1.97,0-3.57,1.6-3.57,3.57  s1.6,3.57,3.57,3.57h14.29c1.97,0,3.57-1.6,3.57-3.57S375.88,141.67,373.91,141.67z M338.18,141.67h-39.3v2.62l0.55,0.95h42.33  C341.75,143.27,340.15,141.67,338.18,141.67z M373.91,141.67h-14.29c-1.97,0-3.57,1.6-3.57,3.57s1.6,3.57,3.57,3.57h14.29  c1.97,0,3.57-1.6,3.57-3.57S375.88,141.67,373.91,141.67z M395.24,93.83c-3.34-9.21-11.81-15.58-21.46-16.38V47.1  c0-1.96-1.6-3.57-3.57-3.57c-1.97,0-3.57,1.6-3.57,3.57v30.26h-48.92c-9.77-13.72-24.94-22.91-41.97-25.01  c-2.46-0.3-4.95-0.46-7.48-0.46h-1.68c-0.63,0-1.23,0.16-1.74,0.46c-1.09,0.61-1.83,1.78-1.83,3.12c0,1.97,1.61,3.57,3.57,3.57h1.68  c15.84,0,30.41,6.91,40.36,18.32c1,1.15,1.96,2.34,2.86,3.57c0.85,1.15,1.64,2.34,2.41,3.57c2.04,3.32,3.75,6.91,5.04,10.71h7.54  l-0.6-1.79c-1.04-3.11-2.31-6.09-3.79-8.92h44.55v13.84c0,1.97,1.6,3.57,3.57,3.57c1.98,0,3.57-1.6,3.57-3.57V84.63  c6.65,0.77,12.42,5.25,14.74,11.64l6.12,16.82h7.61L395.24,93.83z M373.91,141.67h-14.29c-1.97,0-3.57,1.6-3.57,3.57  s1.6,3.57,3.57,3.57h14.29c1.97,0,3.57-1.6,3.57-3.57S375.88,141.67,373.91,141.67z M338.18,141.67h-39.3v2.62l0.55,0.95h42.33  C341.75,143.27,340.15,141.67,338.18,141.67z M373.91,141.67h-14.29c-1.97,0-3.57,1.6-3.57,3.57s1.6,3.57,3.57,3.57h14.29  c1.97,0,3.57-1.6,3.57-3.57S375.88,141.67,373.91,141.67z M395.24,93.83c-3.34-9.21-11.81-15.58-21.46-16.38V47.1  c0-1.96-1.6-3.57-3.57-3.57c-1.97,0-3.57,1.6-3.57,3.57v30.26h-48.92c-9.77-13.72-24.94-22.91-41.97-25.01  c-2.46-0.3-4.95-0.46-7.48-0.46h-1.68c-0.63,0-1.23,0.16-1.74,0.46c-1.09,0.61-1.83,1.78-1.83,3.12c0,1.97,1.61,3.57,3.57,3.57h1.68  c15.84,0,30.41,6.91,40.36,18.32c1,1.15,1.96,2.34,2.86,3.57c0.85,1.15,1.64,2.34,2.41,3.57c2.04,3.32,3.75,6.91,5.04,10.71h7.54  l-0.6-1.79c-1.04-3.11-2.31-6.09-3.79-8.92h44.55v13.84c0,1.97,1.6,3.57,3.57,3.57c1.98,0,3.57-1.6,3.57-3.57V84.63  c6.65,0.77,12.42,5.25,14.74,11.64l6.12,16.82h7.61L395.24,93.83z M373.91,141.67h-14.29c-1.97,0-3.57,1.6-3.57,3.57  s1.6,3.57,3.57,3.57h14.29c1.97,0,3.57-1.6,3.57-3.57S375.88,141.67,373.91,141.67z M373.91,141.67h-14.29  c-1.97,0-3.57,1.6-3.57,3.57s1.6,3.57,3.57,3.57h14.29c1.97,0,3.57-1.6,3.57-3.57S375.88,141.67,373.91,141.67z M395.24,93.83  c-3.34-9.21-11.81-15.58-21.46-16.38V47.1c0-1.96-1.6-3.57-3.57-3.57c-1.97,0-3.57,1.6-3.57,3.57v30.26h-48.92  c-9.77-13.72-24.94-22.91-41.97-25.01c-2.46-0.3-4.95-0.46-7.48-0.46h-1.68c-0.63,0-1.23,0.16-1.74,0.46  c-1.09,0.61-1.83,1.78-1.83,3.12c0,1.97,1.61,3.57,3.57,3.57h1.68c15.84,0,30.41,6.91,40.36,18.32c1,1.15,1.96,2.34,2.86,3.57  c0.85,1.15,1.64,2.34,2.41,3.57c2.04,3.32,3.75,6.91,5.04,10.71h7.54l-0.6-1.79c-1.04-3.11-2.31-6.09-3.79-8.92h44.55v13.84  c0,1.97,1.6,3.57,3.57,3.57c1.98,0,3.57-1.6,3.57-3.57V84.63c6.65,0.77,12.42,5.25,14.74,11.64l6.12,16.82h7.61L395.24,93.83z   M373.91,141.67h-14.29c-1.97,0-3.57,1.6-3.57,3.57s1.6,3.57,3.57,3.57h14.29c1.97,0,3.57-1.6,3.57-3.57  S375.88,141.67,373.91,141.67z M395.24,93.83c-3.34-9.21-11.81-15.58-21.46-16.38V47.1c0-1.96-1.6-3.57-3.57-3.57  c-1.97,0-3.57,1.6-3.57,3.57v30.26h-48.92c-9.77-13.72-24.94-22.91-41.97-25.01c-2.46-0.3-4.95-0.46-7.48-0.46h-1.68  c-0.63,0-1.23,0.16-1.74,0.46c-1.09,0.61-1.83,1.78-1.83,3.12c0,1.97,1.61,3.57,3.57,3.57h1.68c15.84,0,30.41,6.91,40.36,18.32  c1,1.15,1.96,2.34,2.86,3.57c0.85,1.15,1.64,2.34,2.41,3.57c2.04,3.32,3.75,6.91,5.04,10.71h7.54l-0.6-1.79  c-1.04-3.11-2.31-6.09-3.79-8.92h44.55v13.84c0,1.97,1.6,3.57,3.57,3.57c1.98,0,3.57-1.6,3.57-3.57V84.63  c6.65,0.77,12.42,5.25,14.74,11.64l6.12,16.82h7.61L395.24,93.83z M395.24,93.83c-3.34-9.21-11.81-15.58-21.46-16.38V47.1  c0-1.96-1.6-3.57-3.57-3.57c-1.97,0-3.57,1.6-3.57,3.57v30.26h-48.92c-9.77-13.72-24.94-22.91-41.97-25.01  c-2.46-0.3-4.95-0.46-7.48-0.46h-1.68c-0.63,0-1.23,0.16-1.74,0.46c-1.09,0.61-1.83,1.78-1.83,3.12c0,1.97,1.61,3.57,3.57,3.57h1.68  c15.84,0,30.41,6.91,40.36,18.32c1,1.15,1.96,2.34,2.86,3.57c0.85,1.15,1.64,2.34,2.41,3.57c2.04,3.32,3.75,6.91,5.04,10.71h7.54  l-0.6-1.79c-1.04-3.11-2.31-6.09-3.79-8.92h44.55v13.84c0,1.97,1.6,3.57,3.57,3.57c1.98,0,3.57-1.6,3.57-3.57V84.63  c6.65,0.77,12.42,5.25,14.74,11.64l6.12,16.82h7.61L395.24,93.83z M395.24,93.83c-3.34-9.21-11.81-15.58-21.46-16.38V47.1  c0-1.96-1.6-3.57-3.57-3.57c-1.97,0-3.57,1.6-3.57,3.57v30.26h-48.92c-9.77-13.72-24.94-22.91-41.97-25.01  c-2.46-0.3-4.95-0.46-7.48-0.46h-1.68c-0.63,0-1.23,0.16-1.74,0.46c-1.09,0.61-1.83,1.78-1.83,3.12c0,1.97,1.61,3.57,3.57,3.57h1.68  c15.84,0,30.41,6.91,40.36,18.32c1,1.15,1.96,2.34,2.86,3.57c0.85,1.15,1.64,2.34,2.41,3.57c2.04,3.32,3.75,6.91,5.04,10.71h7.54  l-0.6-1.79c-1.04-3.11-2.31-6.09-3.79-8.92h44.55v13.84c0,1.97,1.6,3.57,3.57,3.57c1.98,0,3.57-1.6,3.57-3.57V84.63  c6.65,0.77,12.42,5.25,14.74,11.64l6.12,16.82h7.61L395.24,93.83z M395.24,93.83c-3.34-9.21-11.81-15.58-21.46-16.38V47.1  c0-1.96-1.6-3.57-3.57-3.57c-1.97,0-3.57,1.6-3.57,3.57v30.26h-48.92c-9.77-13.72-24.94-22.91-41.97-25.01  c-2.46-0.3-4.95-0.46-7.48-0.46h-1.68c-0.63,0-1.23,0.16-1.74,0.46c-1.09,0.61-1.83,1.78-1.83,3.12c0,1.97,1.61,3.57,3.57,3.57h1.68  c15.84,0,30.41,6.91,40.36,18.32c1,1.15,1.96,2.34,2.86,3.57c0.85,1.15,1.64,2.34,2.41,3.57c2.04,3.32,3.75,6.91,5.04,10.71h7.54  l-0.6-1.79c-1.04-3.11-2.31-6.09-3.79-8.92h44.55v13.84c0,1.97,1.6,3.57,3.57,3.57c1.98,0,3.57-1.6,3.57-3.57V84.63  c6.65,0.77,12.42,5.25,14.74,11.64l6.12,16.82h7.61L395.24,93.83z M395.24,93.83c-3.34-9.21-11.81-15.58-21.46-16.38V47.1  c0-1.96-1.6-3.57-3.57-3.57c-1.97,0-3.57,1.6-3.57,3.57v30.26h-48.92c-9.77-13.72-24.94-22.91-41.97-25.01  c-2.46-0.3-4.95-0.46-7.48-0.46h-1.68c-0.63,0-1.23,0.16-1.74,0.46c-1.09,0.61-1.83,1.78-1.83,3.12c0,1.97,1.61,3.57,3.57,3.57h1.68  c15.84,0,30.41,6.91,40.36,18.32c1,1.15,1.96,2.34,2.86,3.57c0.85,1.15,1.64,2.34,2.41,3.57c2.04,3.32,3.75,6.91,5.04,10.71h7.54  l-0.6-1.79c-1.04-3.11-2.31-6.09-3.79-8.92h44.55v13.84c0,1.97,1.6,3.57,3.57,3.57c1.98,0,3.57-1.6,3.57-3.57V84.63  c6.65,0.77,12.42,5.25,14.74,11.64l6.12,16.82h7.61L395.24,93.83z M395.24,93.83c-3.34-9.21-11.81-15.58-21.46-16.38V47.1  c0-1.96-1.6-3.57-3.57-3.57c-1.97,0-3.57,1.6-3.57,3.57v30.26h-48.92c-9.77-13.72-24.94-22.91-41.97-25.01  c-2.46-0.3-4.95-0.46-7.48-0.46h-1.68c-0.63,0-1.23,0.16-1.74,0.46c-1.09,0.61-1.83,1.78-1.83,3.12c0,1.97,1.61,3.57,3.57,3.57h1.68  c15.84,0,30.41,6.91,40.36,18.32c1,1.15,1.96,2.34,2.86,3.57c0.85,1.15,1.64,2.34,2.41,3.57c2.04,3.32,3.75,6.91,5.04,10.71h7.54  l-0.6-1.79c-1.04-3.11-2.31-6.09-3.79-8.92h44.55v13.84c0,1.97,1.6,3.57,3.57,3.57c1.98,0,3.57-1.6,3.57-3.57V84.63  c6.65,0.77,12.42,5.25,14.74,11.64l6.12,16.82h7.61L395.24,93.83z M395.24,93.83c-3.34-9.21-11.81-15.58-21.46-16.38V47.1  c0-1.96-1.6-3.57-3.57-3.57c-1.97,0-3.57,1.6-3.57,3.57v30.26h-48.92c-9.77-13.72-24.94-22.91-41.97-25.01  c-2.46-0.3-4.95-0.46-7.48-0.46h-1.68c-0.63,0-1.23,0.16-1.74,0.46c-1.09,0.61-1.83,1.78-1.83,3.12c0,1.97,1.61,3.57,3.57,3.57h1.68  c15.84,0,30.41,6.91,40.36,18.32c1,1.15,1.96,2.34,2.86,3.57c0.85,1.15,1.64,2.34,2.41,3.57c2.04,3.32,3.75,6.91,5.04,10.71h7.54  l-0.6-1.79c-1.04-3.11-2.31-6.09-3.79-8.92h44.55v13.84c0,1.97,1.6,3.57,3.57,3.57c1.98,0,3.57-1.6,3.57-3.57V84.63  c6.65,0.77,12.42,5.25,14.74,11.64l6.12,16.82h7.61L395.24,93.83z M395.24,93.83c-3.34-9.21-11.81-15.58-21.46-16.38V47.1  c0-1.96-1.6-3.57-3.57-3.57c-1.97,0-3.57,1.6-3.57,3.57v30.26h-48.92c-9.77-13.72-24.94-22.91-41.97-25.01  c-2.46-0.3-4.95-0.46-7.48-0.46h-1.68c-0.63,0-1.23,0.16-1.74,0.46c-1.09,0.61-1.83,1.78-1.83,3.12c0,1.97,1.61,3.57,3.57,3.57h1.68  c15.84,0,30.41,6.91,40.36,18.32c1,1.15,1.96,2.34,2.86,3.57c0.85,1.15,1.64,2.34,2.41,3.57c2.04,3.32,3.75,6.91,5.04,10.71h7.54  l-0.6-1.79c-1.04-3.11-2.31-6.09-3.79-8.92h44.55v13.84c0,1.97,1.6,3.57,3.57,3.57c1.98,0,3.57-1.6,3.57-3.57V84.63  c6.65,0.77,12.42,5.25,14.74,11.64l6.12,16.82h7.61L395.24,93.83z M395.24,93.83c-3.34-9.21-11.81-15.58-21.46-16.38V47.1  c0-1.96-1.6-3.57-3.57-3.57c-1.97,0-3.57,1.6-3.57,3.57v30.26h-48.92c-9.77-13.72-24.94-22.91-41.97-25.01  c-2.46-0.3-4.95-0.46-7.48-0.46h-1.68c-0.63,0-1.23,0.16-1.74,0.46c-1.09,0.61-1.83,1.78-1.83,3.12c0,1.97,1.61,3.57,3.57,3.57h1.68  c15.84,0,30.41,6.91,40.36,18.32c1,1.15,1.96,2.34,2.86,3.57c0.85,1.15,1.64,2.34,2.41,3.57c2.04,3.32,3.75,6.91,5.04,10.71h7.54  l-0.6-1.79c-1.04-3.11-2.31-6.09-3.79-8.92h44.55v13.84c0,1.97,1.6,3.57,3.57,3.57c1.98,0,3.57-1.6,3.57-3.57V84.63  c6.65,0.77,12.42,5.25,14.74,11.64l6.12,16.82h7.61L395.24,93.83z M395.24,93.83c-3.34-9.21-11.81-15.58-21.46-16.38V47.1  c0-1.96-1.6-3.57-3.57-3.57c-1.97,0-3.57,1.6-3.57,3.57v30.26h-48.92c-9.77-13.72-24.94-22.91-41.97-25.01  c-2.46-0.3-4.95-0.46-7.48-0.46h-1.68c-0.63,0-1.23,0.16-1.74,0.46c-1.09,0.61-1.83,1.78-1.83,3.12c0,1.97,1.61,3.57,3.57,3.57h1.68  c15.84,0,30.41,6.91,40.36,18.32c1,1.15,1.96,2.34,2.86,3.57c0.85,1.15,1.64,2.34,2.41,3.57c2.04,3.32,3.75,6.91,5.04,10.71h7.54  l-0.6-1.79c-1.04-3.11-2.31-6.09-3.79-8.92h44.55v13.84c0,1.97,1.6,3.57,3.57,3.57c1.98,0,3.57-1.6,3.57-3.57V84.63  c6.65,0.77,12.42,5.25,14.74,11.64l6.12,16.82h7.61L395.24,93.83z M395.24,93.83c-3.34-9.21-11.81-15.58-21.46-16.38V47.1  c0-1.96-1.6-3.57-3.57-3.57c-1.97,0-3.57,1.6-3.57,3.57v30.26h-48.92c-9.77-13.72-24.94-22.91-41.97-25.01  c-2.46-0.3-4.95-0.46-7.48-0.46h-1.68c-0.63,0-1.23,0.16-1.74,0.46c-1.09,0.61-1.83,1.78-1.83,3.12c0,1.97,1.61,3.57,3.57,3.57h1.68  c15.84,0,30.41,6.91,40.36,18.32c1,1.15,1.96,2.34,2.86,3.57c0.85,1.15,1.64,2.34,2.41,3.57c2.04,3.32,3.75,6.91,5.04,10.71h7.54  l-0.6-1.79c-1.04-3.11-2.31-6.09-3.79-8.92h44.55v13.84c0,1.97,1.6,3.57,3.57,3.57c1.98,0,3.57-1.6,3.57-3.57V84.63  c6.65,0.77,12.42,5.25,14.74,11.64l6.12,16.82h7.61L395.24,93.83z M395.24,93.83c-3.34-9.21-11.81-15.58-21.46-16.38V47.1  c0-1.96-1.6-3.57-3.57-3.57c-1.97,0-3.57,1.6-3.57,3.57v30.26h-48.92c-9.77-13.72-24.94-22.91-41.97-25.01  c-2.46-0.3-4.95-0.46-7.48-0.46h-1.68c-0.63,0-1.23,0.16-1.74,0.46c-1.09,0.61-1.83,1.78-1.83,3.12c0,1.97,1.61,3.57,3.57,3.57h1.68  c15.84,0,30.41,6.91,40.36,18.32c1,1.15,1.96,2.34,2.86,3.57c0.85,1.15,1.64,2.34,2.41,3.57c2.04,3.32,3.75,6.91,5.04,10.71h7.54  l-0.6-1.79c-1.04-3.11-2.31-6.09-3.79-8.92h44.55v13.84c0,1.97,1.6,3.57,3.57,3.57c1.98,0,3.57-1.6,3.57-3.57V84.63  c6.65,0.77,12.42,5.25,14.74,11.64l6.12,16.82h7.61L395.24,93.83z M395.24,93.83c-3.34-9.21-11.81-15.58-21.46-16.38V47.1  c0-1.96-1.6-3.57-3.57-3.57c-1.97,0-3.57,1.6-3.57,3.57v30.26h-48.92c-9.77-13.72-24.94-22.91-41.97-25.01  c-2.46-0.3-4.95-0.46-7.48-0.46h-1.68c-0.63,0-1.23,0.16-1.74,0.46c-1.09,0.61-1.83,1.78-1.83,3.12c0,1.97,1.61,3.57,3.57,3.57h1.68  c15.84,0,30.41,6.91,40.36,18.32c1,1.15,1.96,2.34,2.86,3.57c0.85,1.15,1.64,2.34,2.41,3.57c2.04,3.32,3.75,6.91,5.04,10.71h7.54  l-0.6-1.79c-1.04-3.11-2.31-6.09-3.79-8.92h44.55v13.84c0,1.97,1.6,3.57,3.57,3.57c1.98,0,3.57-1.6,3.57-3.57V84.63  c6.65,0.77,12.42,5.25,14.74,11.64l6.12,16.82h7.61L395.24,93.83z M395.24,93.83c-3.34-9.21-11.81-15.58-21.46-16.38V47.1  c0-1.96-1.6-3.57-3.57-3.57c-1.97,0-3.57,1.6-3.57,3.57v30.26h-48.92c-9.77-13.72-24.94-22.91-41.97-25.01  c-2.46-0.3-4.95-0.46-7.48-0.46h-1.68c-0.63,0-1.23,0.16-1.74,0.46c-1.09,0.61-1.83,1.78-1.83,3.12c0,1.97,1.61,3.57,3.57,3.57h1.68  c15.84,0,30.41,6.91,40.36,18.32c1,1.15,1.96,2.34,2.86,3.57c0.85,1.15,1.64,2.34,2.41,3.57c2.04,3.32,3.75,6.91,5.04,10.71h-83.4  c-5.75,0-10.94,3.44-13.17,8.75l-30.49,72.42c-11.22,26.72-33.21,48.02-60.29,58.44l-27.21,10.47c-5.52,2.12-9.16,7.42-9.16,13.33  v143.86c0,7.9,6.39,14.29,14.29,14.29h196.54c-3.96-9.41-7.17-21.44-7.17-35.73c0-21.15,7.36-33.11,13.27-42.72  c4.56-7.41,8.16-13.25,8.16-21.6v-35.73c0-5.91,4.81-10.71,10.72-10.71c6.99,0,13.32,2.88,17.86,7.52v-36.11h5.65l-46.95-82.17  h-4.12l-6.13-10.72h-2.04c-0.23,0-0.47-0.03-0.69-0.07c-0.03-0.01-0.08-0.02-0.11-0.03c-0.02,0-0.03-0.01-0.05-0.01  c-0.07-0.01-0.14-0.03-0.21-0.06c-0.14-0.04-0.27-0.1-0.41-0.16c-0.14-0.06-0.28-0.13-0.41-0.22c-0.06-0.03-0.11-0.06-0.16-0.1  c-0.05-0.03-0.1-0.08-0.16-0.12c-0.11-0.09-0.23-0.18-0.33-0.29c-0.11-0.11-0.22-0.23-0.31-0.35c-0.08-0.1-0.16-0.22-0.22-0.33  c-0.03-0.04-0.06-0.1-0.09-0.14c-0.1-0.2-0.2-0.42-0.27-0.64c-0.03-0.09-0.05-0.17-0.08-0.27c0-0.02-0.01-0.03-0.01-0.06  c-0.01-0.06-0.02-0.11-0.03-0.16c-0.02-0.05-0.03-0.11-0.03-0.17c-0.02-0.13-0.03-0.26-0.03-0.4v-28.58c0-1.97,1.6-3.57,3.57-3.57  h87.93l-4.79-13.16c-0.78-2.15-2.54-3.76-4.66-4.4V84.63c6.65,0.77,12.42,5.25,14.74,11.64l6.12,16.82h7.61L395.24,93.83z   M120.23,341.75c-3.95,0-7.15-3.2-7.15-7.15s3.2-7.15,7.15-7.15c3.95,0,7.14,3.2,7.14,7.15S124.18,341.75,120.23,341.75z   M148.82,398.91c-3.95,0-7.15-3.2-7.15-7.15c0-3.95,3.2-7.14,7.15-7.14s7.15,3.19,7.15,7.14  C155.96,395.71,152.76,398.91,148.82,398.91z M148.82,270.29c-3.95,0-7.15-3.2-7.15-7.15s3.2-7.15,7.15-7.15s7.15,3.2,7.15,7.15  S152.76,270.29,148.82,270.29z M205.98,191.69c3.95,0,7.15,3.19,7.15,7.15c0,3.95-3.2,7.14-7.15,7.14s-7.14-3.19-7.14-7.14  C198.84,194.88,202.03,191.69,205.98,191.69z M191.69,341.75c-3.95,0-7.15-3.2-7.15-7.15s3.2-7.15,7.15-7.15  c3.95,0,7.15,3.2,7.15,7.15S195.64,341.75,191.69,341.75z M198.84,277.43c0-3.95,3.19-7.14,7.14-7.14s7.15,3.19,7.15,7.14  c0,3.95-3.2,7.15-7.15,7.15S198.84,281.38,198.84,277.43z M213.12,391.77c-3.95,0-7.15-3.19-7.15-7.14c0-3.95,3.2-7.15,7.15-7.15  c3.95,0,7.15,3.19,7.15,7.15C220.27,388.57,217.07,391.77,213.12,391.77z M284.58,163.11c3.95,0,7.15,3.19,7.15,7.14  c0,3.95-3.2,7.15-7.15,7.15s-7.15-3.2-7.15-7.15C277.43,166.3,280.64,163.11,284.58,163.11z M234.57,141.67  c-3.95,0-7.15-3.2-7.15-7.15c0-3.95,3.2-7.15,7.15-7.15c3.95,0,7.14,3.2,7.14,7.15C241.71,138.47,238.51,141.67,234.57,141.67z   M248.85,220.27c0-3.95,3.2-7.15,7.15-7.15s7.15,3.2,7.15,7.15c0,3.95-3.2,7.15-7.15,7.15S248.85,224.22,248.85,220.27z   M263.15,334.6c-3.95,0-7.15-3.2-7.15-7.15s3.2-7.15,7.15-7.15s7.15,3.2,7.15,7.15S267.09,334.6,263.15,334.6z M284.58,391.77  c-3.95,0-7.15-3.19-7.15-7.14c0-3.95,3.2-7.15,7.15-7.15s7.15,3.19,7.15,7.15C291.73,388.57,288.53,391.77,284.58,391.77z   M313.16,234.57c-3.95,0-7.14-3.2-7.14-7.15c0-3.95,3.19-7.15,7.14-7.15s7.15,3.2,7.15,7.15  C320.31,231.36,317.11,234.57,313.16,234.57z M298.88,270.29c0,3.95-3.2,7.14-7.15,7.14s-7.15-3.19-7.15-7.14s3.2-7.15,7.15-7.15  S298.88,266.35,298.88,270.29z M325.89,93.43c-1.04-3.11-2.31-6.09-3.79-8.92h44.55v10.71h-40.16L325.89,93.43z M317.72,77.36  c-9.77-13.72-24.94-22.91-41.97-25.01c-2.46-0.3-4.95-0.46-7.48-0.46h-1.68c-0.63,0-1.23,0.16-1.74,0.46  c-1.09,0.61-1.83,1.78-1.83,3.12c0,1.97,1.61,3.57,3.57,3.57h1.68c15.84,0,30.41,6.91,40.36,18.32c1,1.15,1.96,2.34,2.86,3.57  c0.85,1.15,1.64,2.34,2.41,3.57c2.04,3.32,3.75,6.91,5.04,10.71h7.54l-0.6-1.79c-1.04-3.11-2.31-6.09-3.79-8.92h44.55v-7.15H317.72z   M317.72,77.36c-9.77-13.72-24.94-22.91-41.97-25.01c-2.46-0.3-4.95-0.46-7.48-0.46h-1.68c-0.63,0-1.23,0.16-1.74,0.46  c-1.09,0.61-1.83,1.78-1.83,3.12c0,1.97,1.61,3.57,3.57,3.57h1.68c15.84,0,30.41,6.91,40.36,18.32c1,1.15,1.96,2.34,2.86,3.57  c0.85,1.15,1.64,2.34,2.41,3.57c2.04,3.32,3.75,6.91,5.04,10.71h7.54l-0.6-1.79c-1.04-3.11-2.31-6.09-3.79-8.92h44.55v-7.15H317.72z  "></path>
<path class="st0" d="M275.75,52.35h-10.89c0.51-0.29,1.11-0.46,1.74-0.46h1.68C270.81,51.89,273.3,52.05,275.75,52.35z"></path>
<path class="st0" d="M373.78,47.1v5.25h-7.14V47.1c0-1.96,1.6-3.57,3.57-3.57C372.18,43.53,373.78,45.13,373.78,47.1z"></path>
<path class="st0" d="M128.52,174.99l-1.15,2.1l-0.42-0.77C127.49,175.89,128,175.45,128.52,174.99z"></path>
<polygon class="st0" points="143.5,153.22 145.24,154.17 145.22,154.24 143.21,153.92 "></polygon>
<path class="st0" d="M473.94,210.36v14.29c0-9.58-1.61-19.08-4.74-28.12c-0.13-0.4-0.28-0.79-0.42-1.18l-19.85-54.59l-3.57-9.82  v-0.01l-3.57-9.82l-0.32-0.88l-1.3-3.57l-1.3-3.57l-10.12-27.81c-0.32-0.88-0.67-1.75-1.04-2.6c-1.05-2.47-2.29-4.83-3.71-7.06  c0.58-0.77,1.19-1.52,1.81-2.26c0.87-1.03,1.77-2.02,2.71-2.99c0.08,0.2,0.16,0.41,0.23,0.61l2.54,6.97l12.77,35.13l1.3,3.57  l3.57,9.81l19.85,54.59C472.2,190.45,473.94,200.37,473.94,210.36z"></path>
<path class="st0" d="M373.91,141.67h-14.29c-1.97,0-3.57,1.6-3.57,3.57s1.6,3.57,3.57,3.57h14.29c1.97,0,3.57-1.6,3.57-3.57  S375.88,141.67,373.91,141.67z M373.91,141.67h-14.29c-1.97,0-3.57,1.6-3.57,3.57s1.6,3.57,3.57,3.57h14.29  c1.97,0,3.57-1.6,3.57-3.57S375.88,141.67,373.91,141.67z M421.07,331.03l6.42,9.64v-19.26L421.07,331.03z M425.43,187.32l-1.6-4.4  l-1.6-4.4l-2.32,4.06l-6.97,12.19v0.01l1.25,3.45c0.11,0.32,0.22,0.63,0.34,0.95c0.54,1.61,0.99,3.24,1.32,4.9l7.25-12.69  L425.43,187.32z M398.45,113.09l-6.56-18.04c-2.85-7.83-9.93-13.23-18.1-14.01c-0.67-0.07-1.36-0.1-2.05-0.1H311.5  c0.85,1.15,1.64,2.34,2.41,3.57c2.04,3.32,3.75,6.91,5.04,10.71h-83.4c-5.75,0-10.94,3.44-13.17,8.75l-30.49,72.42  c-11.22,26.72-33.21,48.02-60.29,58.44l-27.21,10.47c-5.52,2.12-9.16,7.42-9.16,13.33v143.86c0,7.9,6.39,14.29,14.29,14.29h196.54  c-3.96-9.41-7.17-21.44-7.17-35.73c0-21.15,7.36-33.11,13.27-42.72c4.56-7.41,8.16-13.25,8.16-21.6v-35.73  c0-5.91,4.81-10.71,10.72-10.71c6.99,0,13.32,2.88,17.86,7.52v-36.11h5.65l-46.95-82.17l-6.13-10.72h36.71  c1.97,0,3.57-1.6,3.57-3.57s-1.6-3.57-3.57-3.57h-39.3v-21.43h102.17l-1.3-3.57L398.45,113.09z M120.23,341.75  c-3.95,0-7.15-3.2-7.15-7.15s3.2-7.15,7.15-7.15c3.95,0,7.14,3.2,7.14,7.15S124.18,341.75,120.23,341.75z M148.82,398.91  c-3.95,0-7.15-3.2-7.15-7.15c0-3.95,3.2-7.14,7.15-7.14s7.15,3.19,7.15,7.14C155.96,395.71,152.76,398.91,148.82,398.91z   M148.82,270.29c-3.95,0-7.15-3.2-7.15-7.15s3.2-7.15,7.15-7.15s7.15,3.2,7.15,7.15S152.76,270.29,148.82,270.29z M205.98,191.69  c3.95,0,7.15,3.19,7.15,7.15c0,3.95-3.2,7.14-7.15,7.14s-7.14-3.19-7.14-7.14C198.84,194.88,202.03,191.69,205.98,191.69z   M191.69,341.75c-3.95,0-7.15-3.2-7.15-7.15s3.2-7.15,7.15-7.15c3.95,0,7.15,3.2,7.15,7.15S195.64,341.75,191.69,341.75z   M198.84,277.43c0-3.95,3.19-7.14,7.14-7.14s7.15,3.19,7.15,7.14c0,3.95-3.2,7.15-7.15,7.15S198.84,281.38,198.84,277.43z   M213.12,391.77c-3.95,0-7.15-3.19-7.15-7.14c0-3.95,3.2-7.15,7.15-7.15c3.95,0,7.15,3.19,7.15,7.15  C220.27,388.57,217.07,391.77,213.12,391.77z M388.52,96.27l6.12,16.82h-11.4l-4.79-13.16c-0.78-2.15-2.54-3.76-4.66-4.4V84.63  C380.43,85.4,386.2,89.88,388.52,96.27z M325.89,93.43c-1.04-3.11-2.31-6.09-3.79-8.92h44.55v10.71h-40.16L325.89,93.43z   M284.58,163.11c3.95,0,7.15,3.19,7.15,7.14c0,3.95-3.2,7.15-7.15,7.15s-7.15-3.2-7.15-7.15  C277.43,166.3,280.64,163.11,284.58,163.11z M234.57,141.67c-3.95,0-7.15-3.2-7.15-7.15c0-3.95,3.2-7.15,7.15-7.15  c3.95,0,7.14,3.2,7.14,7.15C241.71,138.47,238.51,141.67,234.57,141.67z M248.85,220.27c0-3.95,3.2-7.15,7.15-7.15  s7.15,3.2,7.15,7.15c0,3.95-3.2,7.15-7.15,7.15S248.85,224.22,248.85,220.27z M263.15,334.6c-3.95,0-7.15-3.2-7.15-7.15  s3.2-7.15,7.15-7.15s7.15,3.2,7.15,7.15S267.09,334.6,263.15,334.6z M284.58,391.77c-3.95,0-7.15-3.19-7.15-7.14  c0-3.95,3.2-7.15,7.15-7.15s7.15,3.19,7.15,7.15C291.73,388.57,288.53,391.77,284.58,391.77z M291.73,277.43  c-3.95,0-7.15-3.19-7.15-7.14s3.2-7.15,7.15-7.15s7.15,3.2,7.15,7.15S295.67,277.43,291.73,277.43z M313.16,234.57  c-3.95,0-7.14-3.2-7.14-7.15c0-3.95,3.19-7.15,7.14-7.15s7.15,3.2,7.15,7.15C320.31,231.36,317.11,234.57,313.16,234.57z   M388.19,311.64l3.57-3.13v-4.72l-3.57,3.13V311.64z M352.46,341.73c0.85,0,1.69-0.3,2.34-0.88l1.23-1.07v-4.72l-3.57,3.12V341.73z   M373.91,141.67h-14.29c-1.97,0-3.57,1.6-3.57,3.57s1.6,3.57,3.57,3.57h14.29c1.97,0,3.57-1.6,3.57-3.57  S375.88,141.67,373.91,141.67z M373.91,141.67h-14.29c-1.97,0-3.57,1.6-3.57,3.57s1.6,3.57,3.57,3.57h14.29  c1.97,0,3.57-1.6,3.57-3.57S375.88,141.67,373.91,141.67z M373.91,141.67h-14.29c-1.97,0-3.57,1.6-3.57,3.57s1.6,3.57,3.57,3.57  h14.29c1.97,0,3.57-1.6,3.57-3.57S375.88,141.67,373.91,141.67z"></path>
<path class="st0" d="M352.46,338.18v3.56c0.85,0,1.69-0.3,2.34-0.88l1.23-1.07v-4.72L352.46,338.18z"></path>
<path class="st0" d="M377.48,145.24h-21.44c0-1.97,1.6-3.57,3.57-3.57h14.29C375.88,141.67,377.48,143.27,377.48,145.24z"></path>
<path class="st0" d="M445.36,116.66v28.58h-17.87c0-1.97,1.6-3.57,3.57-3.57h10.72v-20.55l-0.32-0.88H298.88v21.43h39.3  c1.97,0,3.57,1.6,3.57,3.57H295.3v-28.58H445.36z"></path>
<polygon class="st0" points="445.36,116.66 445.36,130.95 441.79,130.95 441.79,121.12 441.47,120.23 298.88,120.23 298.88,130.95   295.3,130.95 295.3,116.66 "></polygon>
<path class="st0" d="M356.04,145.24c0,1.97,1.6,3.57,3.57,3.57h14.29c1.97,0,3.57-1.6,3.57-3.57H356.04z M356.04,145.24  c0,1.97,1.6,3.57,3.57,3.57h14.29c1.97,0,3.57-1.6,3.57-3.57H356.04z M356.04,145.24c0,1.97,1.6,3.57,3.57,3.57h14.29  c1.97,0,3.57-1.6,3.57-3.57H356.04z M356.04,145.24c0,1.97,1.6,3.57,3.57,3.57h14.29c1.97,0,3.57-1.6,3.57-3.57H356.04z   M356.04,145.24c0,1.97,1.6,3.57,3.57,3.57h14.29c1.97,0,3.57-1.6,3.57-3.57H356.04z M356.04,145.24c0,1.97,1.6,3.57,3.57,3.57  h14.29c1.97,0,3.57-1.6,3.57-3.57H356.04z M427.49,145.24c0,1.97,1.6,3.57,3.57,3.57h8.13l-6.13,10.72l-8.51,14.91l-2.33,4.07  l-2.32,4.06l-6.97,12.19v0.01l1.25,3.45c0.11,0.32,0.22,0.63,0.34,0.95l6.97-12.2l2.32-4.06l2.33-4.08l11.03-19.3l6.13-10.72  l2.04-3.57H427.49z M301.46,148.82h36.71c1.97,0,3.57-1.6,3.57-3.57H295.3l2.04,3.57l6.13,10.72l46.95,82.17h4.12l-46.95-82.17  L301.46,148.82z M356.04,145.24c0,1.97,1.6,3.57,3.57,3.57h14.29c1.97,0,3.57-1.6,3.57-3.57H356.04z M356.04,145.24  c0,1.97,1.6,3.57,3.57,3.57h14.29c1.97,0,3.57-1.6,3.57-3.57H356.04z M356.04,145.24c0,1.97,1.6,3.57,3.57,3.57h14.29  c1.97,0,3.57-1.6,3.57-3.57H356.04z M356.04,145.24c0,1.97,1.6,3.57,3.57,3.57h14.29c1.97,0,3.57-1.6,3.57-3.57H356.04z   M356.04,145.24c0,1.97,1.6,3.57,3.57,3.57h14.29c1.97,0,3.57-1.6,3.57-3.57H356.04z M356.04,145.24c0,1.97,1.6,3.57,3.57,3.57  h14.29c1.97,0,3.57-1.6,3.57-3.57H356.04z"></path>
<path class="st0" d="M341.75,145.24c0,1.97-1.6,3.57-3.57,3.57h-36.71l6.13,10.72h-4.12l-6.13-10.72l-2.04-3.57H341.75z"></path>
<path class="st0" d="M377.48,145.24c0,1.97-1.6,3.57-3.57,3.57h-14.29c-1.97,0-3.57-1.6-3.57-3.57H377.48z"></path>
<path class="st0" d="M445.36,145.24l-2.04,3.57l-6.13,10.72h-4.12l6.13-10.72h-8.13c-1.97,0-3.57-1.6-3.57-3.57H445.36z"></path>
<path class="st0" d="M388.19,306.91v4.72l3.57-3.13v-4.72L388.19,306.91z M352.46,341.73c0.85,0,1.69-0.3,2.34-0.88l1.23-1.07v-4.72  l-3.57,3.12V341.73z"></path>
<path class="st0" d="M352.46,338.18l3.57-3.12v4.72l-1.23,1.07c-0.66,0.58-1.5,0.88-2.34,0.88V338.18z"></path>
<polygon class="st0" points="391.77,303.78 391.77,308.51 388.19,311.64 388.19,306.91 "></polygon>
<path class="st0" d="M80.32,60.1L70.21,41.63L60.1,60.1L41.63,70.21L60.1,80.32l10.11,18.47l10.11-18.47l18.47-10.11L80.32,60.1z   M78.6,77.19C78,77.51,77.51,78,77.19,78.6l-6.97,12.75L63.24,78.6c-0.32-0.6-0.81-1.09-1.41-1.41l-12.75-6.97l3.06-1.68l0.01-0.01  h0.01l9.67-5.29c0.6-0.32,1.09-0.81,1.41-1.41l6.97-12.75l6.97,12.75c0.32,0.6,0.81,1.09,1.41,1.41l9.67,5.29h0.01l0.01,0.01  l3.06,1.68L78.6,77.19z"></path>
<path class="st0" d="M98.79,70.21l-10.5-1.68l-0.01-0.01h-0.01l-9.67-5.29c-0.6-0.32-1.09-0.81-1.41-1.41l-6.97-12.75l-6.97,12.75  c-0.32,0.6-0.81,1.09-1.41,1.41l-9.67,5.29h-0.01l-0.01,0.01l-10.5,1.68L60.1,60.1l10.11-18.47L80.32,60.1L98.79,70.21z"></path>
<path class="st0" d="M145.24,154.17l-0.03,0.07l0.22,0.03L145.24,154.17z M126.95,176.32l0.42,0.77l1.15-2.1  C128,175.45,127.49,175.89,126.95,176.32z M145.24,154.17l-1.74-0.95l-0.29,0.7l2.01,0.32l0.22,0.03L145.24,154.17z M126.95,176.32  l0.42,0.77l1.15-2.1C128,175.45,127.49,175.89,126.95,176.32z"></path>
<polygon class="st0" points="145.43,154.28 145.22,154.24 143.21,153.92 143.5,153.22 145.24,154.17 "></polygon>
<g>
	<path class="st1" d="M472.14,179.84l-23.36-64.24c-0.03-0.12-0.08-0.24-0.13-0.36l-14.63-40.25c9.84-9.99,23.45-15.95,38.15-15.95   h1.67c1.97,0,3.57-1.6,3.57-3.57c0-1.96-1.6-3.57-3.57-3.57h-1.67c-15.51,0-29.94,5.86-40.86,15.78   c-8.21-19.95-27.86-33.19-49.56-33.19H221.32c-21.62,0-41,12.88-49.39,32.79l-31.9,75.77l-9.51-17.38c-1.25-2.29-5.01-2.29-6.26,0   l-9.6,17.56l-17.57,9.6c-1.14,0.62-1.86,1.82-1.86,3.13c0,1.31,0.72,2.51,1.86,3.12l17.57,9.61l3.01,5.49   c-2.48,1.56-5.11,2.87-7.87,3.94l-40.94,15.76c-20.55,7.9-34.36,28-34.36,50.02v180.01c0,29.56,24.04,53.6,53.6,53.6h335.84   c29.56,0,53.6-24.04,53.6-53.6V210.36C477.52,199.92,475.71,189.64,472.14,179.84z M425.31,298.79l-3.69-3.7   c-1.45-1.45-3.09-2.59-4.84-3.43v-78.79c0-2.96-0.31-5.91-0.92-8.8l7.25-12.69l1.16,3.18c2.14,5.89,3.22,12.06,3.22,18.32v88.56   C426.87,300.5,426.14,299.61,425.31,298.79z M427.49,321.41v19.26l-6.42-9.64L427.49,321.41z M424.56,174.45l-2.33,4.07l-2.32,4.06   l-6.97,12.19v0.01l-26.82,46.93h-31.58l-46.95-82.17l-6.13-10.72h36.71c1.97,0,3.57-1.6,3.57-3.57s-1.6-3.57-3.57-3.57h-39.3   v-10.72v-10.71h86.96h11.4h7.61h36.62h0.32v21.43h-10.72c-1.97,0-3.57,1.6-3.57,3.57s1.6,3.57,3.57,3.57h8.13l-6.13,10.72   L424.56,174.45z M384.63,248.85v56.44l-28.59,25.01v-81.45H384.63z M313.91,84.51c2.04,3.32,3.75,6.91,5.04,10.71h-83.4   c-5.75,0-10.94,3.44-13.17,8.75l-30.49,72.42c-11.22,26.72-33.21,48.02-60.29,58.44l-27.21,10.47c-5.52,2.12-9.16,7.42-9.16,13.33   v143.86c0,7.9,6.39,14.29,14.29,14.29h196.54c1.72,4.07,3.58,7.65,5.38,10.71H102.37c-9.86,0-17.86-8.01-17.86-17.86V253.72   c0-7.34,4.59-14.04,11.45-16.67l31.79-12.24c24.38-9.37,44.16-28.55,54.27-52.6l32.34-76.79c2.8-6.64,9.26-10.93,16.47-10.93   H313.91z M320.31,227.42c0,3.95-3.2,7.15-7.15,7.15s-7.14-3.2-7.14-7.15c0-3.95,3.19-7.15,7.14-7.15S320.31,223.47,320.31,227.42z    M284.58,377.48c3.95,0,7.15,3.19,7.15,7.15c0,3.95-3.2,7.14-7.15,7.14s-7.15-3.19-7.15-7.14   C277.43,380.67,280.64,377.48,284.58,377.48z M277.43,170.25c0-3.95,3.2-7.14,7.15-7.14s7.15,3.19,7.15,7.14   c0,3.95-3.2,7.15-7.15,7.15S277.43,174.19,277.43,170.25z M284.58,270.29c0-3.95,3.2-7.15,7.15-7.15s7.15,3.2,7.15,7.15   s-3.2,7.14-7.15,7.14S284.58,274.24,284.58,270.29z M383.23,113.09l-4.79-13.16c-0.78-2.15-2.54-3.76-4.66-4.4V84.63   c6.65,0.77,12.42,5.25,14.74,11.64l6.12,16.82H383.23z M366.65,95.22h-40.16l-0.6-1.79c-1.04-3.11-2.31-6.09-3.79-8.92h44.55V95.22   z M263.15,320.31c3.95,0,7.15,3.2,7.15,7.15s-3.2,7.15-7.15,7.15s-7.15-3.2-7.15-7.15S259.2,320.31,263.15,320.31z M248.85,220.27   c0-3.95,3.2-7.15,7.15-7.15s7.15,3.2,7.15,7.15c0,3.95-3.2,7.15-7.15,7.15S248.85,224.22,248.85,220.27z M241.71,134.52   c0,3.95-3.19,7.15-7.14,7.15c-3.95,0-7.15-3.2-7.15-7.15c0-3.95,3.2-7.15,7.15-7.15C238.51,127.37,241.71,130.57,241.71,134.52z    M205.98,270.29c3.95,0,7.15,3.19,7.15,7.14c0,3.95-3.2,7.15-7.15,7.15s-7.14-3.2-7.14-7.15   C198.84,273.49,202.03,270.29,205.98,270.29z M198.84,198.84c0-3.95,3.19-7.15,7.14-7.15s7.15,3.19,7.15,7.15   c0,3.95-3.2,7.14-7.15,7.14S198.84,202.78,198.84,198.84z M213.12,377.48c3.95,0,7.15,3.19,7.15,7.15c0,3.95-3.2,7.14-7.15,7.14   c-3.95,0-7.15-3.19-7.15-7.14C205.98,380.67,209.18,377.48,213.12,377.48z M198.84,334.6c0,3.95-3.2,7.15-7.15,7.15   c-3.95,0-7.15-3.2-7.15-7.15s3.2-7.15,7.15-7.15C195.64,327.46,198.84,330.66,198.84,334.6z M148.82,270.29   c-3.95,0-7.15-3.2-7.15-7.15s3.2-7.15,7.15-7.15s7.15,3.2,7.15,7.15S152.76,270.29,148.82,270.29z M155.96,391.77   c0,3.95-3.2,7.15-7.15,7.15s-7.15-3.2-7.15-7.15c0-3.95,3.2-7.14,7.15-7.14S155.96,387.82,155.96,391.77z M127.37,334.6   c0,3.95-3.19,7.15-7.14,7.15c-3.95,0-7.15-3.2-7.15-7.15s3.2-7.15,7.15-7.15C124.18,327.46,127.37,330.66,127.37,334.6z    M106.24,155.96l3.08-1.69l9.67-5.29c0.6-0.32,1.09-0.81,1.41-1.42l6.97-12.75l6.98,12.75c0.32,0.6,0.8,1.09,1.41,1.42l1.43,0.78   l3.16,1.73l3.15,1.72l1.74,0.95l0.19,0.1l3.08,1.69l-5.23,2.86l-3.18,1.74l-4.34,2.37c-0.61,0.33-1.09,0.82-1.41,1.42l-5.83,10.64   l-1.15,2.1l-0.42-0.77l-1.74-3.18l-1.77-3.23l-3.05-5.56c-0.32-0.6-0.81-1.09-1.41-1.42L106.24,155.96z M319.98,470.37H88.08   c-23.93,0-43.7-18.2-46.18-41.48c-0.18-1.64-0.27-3.29-0.27-4.97V243.91c0-1.67,0.1-3.32,0.28-4.96   c1.86-17.09,13.25-32.14,29.5-38.38l40.95-15.76c3.05-1.18,5.98-2.62,8.74-4.33l3.16,5.77c0.25,0.46,0.6,0.85,1,1.15   c0.6,0.45,1.34,0.71,2.12,0.71c1.32,0,2.51-0.72,3.13-1.87l9.6-17.56l17.57-9.6c1.14-0.61,1.86-1.82,1.86-3.12   c0-1.32-0.72-2.51-1.85-3.13l-9.65-5.28l-1.75-0.95l32.23-76.54c7.26-17.26,24.06-28.43,42.8-28.43h160.43   c19.45,0,37,12.29,43.65,30.57l0.42,1.15c-0.62,0.74-1.23,1.49-1.81,2.26c-4.06,5.26-7.28,11.26-9.47,17.82l-1.26,3.79   c-0.62,1.86,0.39,3.89,2.26,4.52c0.38,0.13,0.75,0.18,1.12,0.18c1.5,0,2.9-0.94,3.4-2.44l1.26-3.79c1.57-4.69,3.73-9.06,6.39-13.01   c0.31-0.48,0.64-0.94,0.98-1.4l11.57,31.82h-38.02l-7-19.26c-3.34-9.21-11.81-15.58-21.46-16.38V47.1c0-1.96-1.6-3.57-3.57-3.57   c-1.97,0-3.57,1.6-3.57,3.57v30.26h-48.92c-9.77-13.72-24.94-22.91-41.97-25.01c-2.46-0.3-4.95-0.46-7.48-0.46h-1.68   c-0.63,0-1.23,0.16-1.74,0.46c-1.09,0.61-1.83,1.78-1.83,3.12c0,1.97,1.61,3.57,3.57,3.57h1.68c15.84,0,30.41,6.91,40.36,18.32   h-77.82c-10.09,0-19.13,6-23.05,15.31l-32.34,76.79c-9.36,22.26-27.67,40.01-50.25,48.7l-31.79,12.24   c-9.59,3.69-16.03,13.07-16.03,23.34v155.91c0,13.79,11.21,25.01,25.01,25.01h213.77c1.61,2.19,2.97,3.79,3.84,4.77V470.37z    M400.51,434.79c-1.23,0.61-2.01,1.85-2.01,3.22v32.36h-71.36v-32.36c0-0.95-0.38-1.85-1.05-2.52c-0.03-0.03-0.3-0.31-0.77-0.85   c-0.66-0.74-1.67-1.93-2.9-3.57c-0.76-1.02-1.61-2.22-2.51-3.57c-1.9-2.86-4-6.45-5.98-10.71c-4.21-9.05-7.91-21.14-7.91-35.73   c0-19.12,6.49-29.67,12.22-38.97c4.73-7.7,9.22-14.97,9.22-25.34v-35.73c0-1.97,1.61-3.57,3.57-3.57c9.86,0,17.86,8.02,17.86,17.87   v42.88c0,1.39,0.81,2.67,2.09,3.24c0.48,0.22,0.98,0.32,1.48,0.32c0.85,0,1.69-0.3,2.34-0.88l1.23-1.07l28.59-25.02l3.57-3.12   l3.57-3.13l10.15-8.88c4.23-3.7,10.66-3.48,14.64,0.48l3.7,3.7c3.08,3.08,3.94,7.69,2.35,11.61c-0.27,0.67-0.61,1.31-1.01,1.92   l-4.82,7.23l-2.98,4.46c-0.8,1.19-0.8,2.76,0,3.96l2.98,4.46l8.91,13.37c1.19,1.78,1.8,3.83,1.8,5.95v58.19   c0,4.07-2.36,7.86-6.04,9.64l-13.28,6.45l-7.36,3.57L400.51,434.79z M470.37,423.92c0,1.68-0.09,3.33-0.27,4.97   c-2.48,23.29-22.25,41.48-46.18,41.48h-18.27v-30.11l18.93-9.2c6.1-2.98,10.05-9.28,10.05-16.08v-202.1   c0-7.1-1.23-14.08-3.65-20.76l-3.23-8.87l20.71-36.24c0.01-0.03,0.03-0.05,0.03-0.07c0.11-0.21,0.2-0.42,0.27-0.64   c0.03-0.09,0.05-0.17,0.08-0.27c0-0.02,0.01-0.03,0.01-0.06c0.01-0.06,0.02-0.11,0.03-0.16c0.02-0.05,0.03-0.11,0.03-0.17   c0.02-0.13,0.03-0.26,0.03-0.4v-8.32l16.49,45.36c1.69,4.65,2.95,9.41,3.77,14.25c0.78,4.55,1.17,9.16,1.17,13.83V423.92z"></path>
	<path class="st1" d="M373.91,141.67h-14.29c-1.97,0-3.57,1.6-3.57,3.57s1.6,3.57,3.57,3.57h14.29c1.97,0,3.57-1.6,3.57-3.57   S375.88,141.67,373.91,141.67z"></path>
	<path class="st1" d="M39.91,73.34l17.57,9.61l9.6,17.56c0.62,1.13,1.83,1.85,3.13,1.85c1.31,0,2.51-0.72,3.13-1.85l9.6-17.56   l17.57-9.61c1.13-0.62,1.85-1.83,1.85-3.13c0-1.31-0.72-2.51-1.85-3.13l-17.56-9.61l-9.6-17.56c-1.26-2.28-5.02-2.28-6.27,0   l-9.6,17.57l-17.57,9.6c-1.13,0.62-1.85,1.83-1.85,3.13C38.06,71.52,38.77,72.72,39.91,73.34z M52.13,68.53L52.13,68.53l0.02-0.01   l9.67-5.29c0.6-0.32,1.09-0.81,1.41-1.41l6.97-12.75l6.97,12.75c0.32,0.6,0.81,1.09,1.41,1.41l9.67,5.29h0.01l0.01,0.01l3.06,1.68   L78.6,77.19C78,77.51,77.51,78,77.19,78.6l-6.97,12.75L63.24,78.6c-0.32-0.6-0.81-1.09-1.41-1.41l-12.75-6.97L52.13,68.53z"></path>
</g>
</svg>