<svg xmlns="http://www.w3.org/2000/svg" xmlns:xlink="http://www.w3.org/1999/xlink" id="Layer_1" x="0px" y="0px" viewBox="0 0 612 610.02" style="enable-background:new 0 0 612 610.02;" xml:space="preserve">
<style type="text/css">
	.st0{fill:#B0CE38;}
	.st1{fill:#FEFEFE;}
</style>
<g>
	<path class="st0" d="M126.39,425c-20.31-1.39-40.5,16.09-40.94,39.99c-0.41,22.03,18.47,40.47,40.75,40.44   c22-0.04,39.76-17.77,40.43-39.21C167.33,443.51,147.34,423.7,126.39,425z M126.35,486.85c-11.62,0.22-22.28-10.42-22.08-22.02   c0.22-11.89,9.66-20.87,21.96-20.87c12.23,0.01,21.4,9.01,21.44,21.05C147.7,476.64,137.96,486.64,126.35,486.85z M436.99,424.7   c-21.6-0.13-41.56,18.83-40.31,40.46c-1.32,18.48,14.62,40.47,40.41,40.28c22.53-0.14,40.65-18.54,40.15-40.69   C476.67,438.27,454.38,424.8,436.99,424.7z M436.82,486.91c-11.63,0.01-21.15-9.73-21.16-21.67c-0.01-12.59,8.52-21.25,20.96-21.28   c12.44-0.01,22.38,9.65,22.03,21.48C458.3,476.92,448.16,486.91,436.82,486.91z M436.99,424.7c-21.6-0.13-41.56,18.83-40.31,40.46   c-1.32,18.48,14.62,40.47,40.41,40.28c22.53-0.14,40.65-18.54,40.15-40.69C476.67,438.27,454.38,424.8,436.99,424.7z    M436.82,486.91c-11.63,0.01-21.15-9.73-21.16-21.67c-0.01-12.59,8.52-21.25,20.96-21.28c12.44-0.01,22.38,9.65,22.03,21.48   C458.3,476.92,448.16,486.91,436.82,486.91z M126.39,425c-20.31-1.39-40.5,16.09-40.94,39.99c-0.41,22.03,18.47,40.47,40.75,40.44   c22-0.04,39.76-17.77,40.43-39.21C167.33,443.51,147.34,423.7,126.39,425z M126.35,486.85c-11.62,0.22-22.28-10.42-22.08-22.02   c0.22-11.89,9.66-20.87,21.96-20.87c12.23,0.01,21.4,9.01,21.44,21.05C147.7,476.64,137.96,486.64,126.35,486.85z M126.39,425   c-20.31-1.39-40.5,16.09-40.94,39.99c-0.41,22.03,18.47,40.47,40.75,40.44c22-0.04,39.76-17.77,40.43-39.21   C167.33,443.51,147.34,423.7,126.39,425z M126.35,486.85c-11.62,0.22-22.28-10.42-22.08-22.02c0.22-11.89,9.66-20.87,21.96-20.87   c12.23,0.01,21.4,9.01,21.44,21.05C147.7,476.64,137.96,486.64,126.35,486.85z M436.99,424.7c-21.6-0.13-41.56,18.83-40.31,40.46   c-1.32,18.48,14.62,40.47,40.41,40.28c22.53-0.14,40.65-18.54,40.15-40.69C476.67,438.27,454.38,424.8,436.99,424.7z    M436.82,486.91c-11.63,0.01-21.15-9.73-21.16-21.67c-0.01-12.59,8.52-21.25,20.96-21.28c12.44-0.01,22.38,9.65,22.03,21.48   C458.3,476.92,448.16,486.91,436.82,486.91z M436.99,424.7c-21.6-0.13-41.56,18.83-40.31,40.46   c-1.32,18.48,14.62,40.47,40.41,40.28c22.53-0.14,40.65-18.54,40.15-40.69C476.67,438.27,454.38,424.8,436.99,424.7z    M436.82,486.91c-11.63,0.01-21.15-9.73-21.16-21.67c-0.01-12.59,8.52-21.25,20.96-21.28c12.44-0.01,22.38,9.65,22.03,21.48   C458.3,476.92,448.16,486.91,436.82,486.91z M126.39,425c-20.31-1.39-40.5,16.09-40.94,39.99c-0.41,22.03,18.47,40.47,40.75,40.44   c22-0.04,39.76-17.77,40.43-39.21C167.33,443.51,147.34,423.7,126.39,425z M126.35,486.85c-11.62,0.22-22.28-10.42-22.08-22.02   c0.22-11.89,9.66-20.87,21.96-20.87c12.23,0.01,21.4,9.01,21.44,21.05C147.7,476.64,137.96,486.64,126.35,486.85z M126.39,425   c-20.31-1.39-40.5,16.09-40.94,39.99c-0.41,22.03,18.47,40.47,40.75,40.44c22-0.04,39.76-17.77,40.43-39.21   C167.33,443.51,147.34,423.7,126.39,425z M126.35,486.85c-11.62,0.22-22.28-10.42-22.08-22.02c0.22-11.89,9.66-20.87,21.96-20.87   c12.23,0.01,21.4,9.01,21.44,21.05C147.7,476.64,137.96,486.64,126.35,486.85z M436.99,424.7c-21.6-0.13-41.56,18.83-40.31,40.46   c-1.32,18.48,14.62,40.47,40.41,40.28c22.53-0.14,40.65-18.54,40.15-40.69C476.67,438.27,454.38,424.8,436.99,424.7z    M436.82,486.91c-11.63,0.01-21.15-9.73-21.16-21.67c-0.01-12.59,8.52-21.25,20.96-21.28c12.44-0.01,22.38,9.65,22.03,21.48   C458.3,476.92,448.16,486.91,436.82,486.91z M436.99,424.7c-21.6-0.13-41.56,18.83-40.31,40.46   c-1.32,18.48,14.62,40.47,40.41,40.28c22.53-0.14,40.65-18.54,40.15-40.69C476.67,438.27,454.38,424.8,436.99,424.7z    M436.82,486.91c-11.63,0.01-21.15-9.73-21.16-21.67c-0.01-12.59,8.52-21.25,20.96-21.28c12.44-0.01,22.38,9.65,22.03,21.48   C458.3,476.92,448.16,486.91,436.82,486.91z M126.39,425c-20.31-1.39-40.5,16.09-40.94,39.99c-0.41,22.03,18.47,40.47,40.75,40.44   c22-0.04,39.76-17.77,40.43-39.21C167.33,443.51,147.34,423.7,126.39,425z M126.35,486.85c-11.62,0.22-22.28-10.42-22.08-22.02   c0.22-11.89,9.66-20.87,21.96-20.87c12.23,0.01,21.4,9.01,21.44,21.05C147.7,476.64,137.96,486.64,126.35,486.85z M126.39,425   c-20.31-1.39-40.5,16.09-40.94,39.99c-0.41,22.03,18.47,40.47,40.75,40.44c22-0.04,39.76-17.77,40.43-39.21   C167.33,443.51,147.34,423.7,126.39,425z M126.35,486.85c-11.62,0.22-22.28-10.42-22.08-22.02c0.22-11.89,9.66-20.87,21.96-20.87   c12.23,0.01,21.4,9.01,21.44,21.05C147.7,476.64,137.96,486.64,126.35,486.85z M436.99,424.7c-21.6-0.13-41.56,18.83-40.31,40.46   c-1.32,18.48,14.62,40.47,40.41,40.28c22.53-0.14,40.65-18.54,40.15-40.69C476.67,438.27,454.38,424.8,436.99,424.7z    M436.82,486.91c-11.63,0.01-21.15-9.73-21.16-21.67c-0.01-12.59,8.52-21.25,20.96-21.28c12.44-0.01,22.38,9.65,22.03,21.48   C458.3,476.92,448.16,486.91,436.82,486.91z M436.99,424.7c-21.6-0.13-41.56,18.83-40.31,40.46   c-1.32,18.48,14.62,40.47,40.41,40.28c22.53-0.14,40.65-18.54,40.15-40.69C476.67,438.27,454.38,424.8,436.99,424.7z    M436.82,486.91c-11.63,0.01-21.15-9.73-21.16-21.67c-0.01-12.59,8.52-21.25,20.96-21.28c12.44-0.01,22.38,9.65,22.03,21.48   C458.3,476.92,448.16,486.91,436.82,486.91z M126.39,425c-20.31-1.39-40.5,16.09-40.94,39.99c-0.41,22.03,18.47,40.47,40.75,40.44   c22-0.04,39.76-17.77,40.43-39.21C167.33,443.51,147.34,423.7,126.39,425z M126.35,486.85c-11.62,0.22-22.28-10.42-22.08-22.02   c0.22-11.89,9.66-20.87,21.96-20.87c12.23,0.01,21.4,9.01,21.44,21.05C147.7,476.64,137.96,486.64,126.35,486.85z M604.04,221.13   c-28.97-58.3-58.09-116.57-87.17-174.81c-3.27-6.55-7.74-12.15-13.94-16.19c-15.8-10.28-33.8-8.27-49.06,5.95   c-16.93,15.8-33.77,31.75-50.27,48.02c-4.58,4.51-7.03,3.87-10.36-0.88c-3.59-5.13-7.47-10.18-12.79-13.66   c-9.49-6.2-22.16-4.53-30.19,3.71c-8.29,8.52-9.52,20.51-2.33,30.8c2.59,3.69,2.74,5.62-0.2,9.11   c-6.97,8.29-13.46,16.98-19.86,25.7c-2.27,3.11-3.98,4.53-8.56,4.07c-16.9-1.75-30.01,11.05-27.99,27.2   c0.56,4.45-0.9,5.74-4.1,7.21c-24.21,11.05-45.62,26.28-65.33,43.96c-6.72,6.04-17.28,4.9-22.31-2.71   c-10.55-15.93-25.74-21.68-44.14-19.32c-15.83,2.03-29.84,15.91-33.72,33.14c-0.77,3.36-2.16,3.85-5.11,4.55   c-23.55,5.5-38.36,29.96-31.87,52.19c3.32,11.37,3.32,11.37-8.5,11.37c-19.45,0-36.46,14.18-40.02,33.39   c-3.49,18.77,8.26,38.18,26.71,45.01c9.89,3.66,19.48,2.64,30.01-0.9c-2.3,7.47-3.65,12.96-12.02,15.44   c-15.05,4.46-24.25,15.54-24.61,31.61c-0.58,26.29-0.48,52.61,0.01,78.9c0.28,14.92,10.6,27.12,24.41,32.45   c4.87,1.87,12.18-1.43,14.36,4.4c1.81,4.87,0.39,10.97,0.39,16.51c0,0.97,0,1.93,0.01,2.9c0.17,14.76,12.28,27,27.02,27.15   c11.11,0.1,22.22,0.09,33.32,0c13.73-0.1,24.26-9.53,26.84-23.15c1.29-6.75,1.03-13.47,0.84-20.19c-0.13-4.64,1.06-6.1,5.92-6.03   c20.76,0.28,41.52,0.12,62.29,0.12c41.27,0,82.55,0.1,123.84-0.13c5.29-0.03,7.4,1.07,6.84,6.69c-0.52,5.26-0.14,10.62-0.09,15.92   c0.19,14.33,12.33,26.6,26.62,26.76c11.59,0.13,23.18,0.14,34.77-0.01c12.63-0.17,23.54-10.21,25.7-22.76   c1.25-7.21,0.9-14.43,0.87-21.66c-0.01-3.62,0.91-4.72,4.79-4.95c18.95-1.13,34.53-17.44,34.69-36.32c0.22-24.87,0.22-49.73,0-74.6   c-0.14-16.51-13.08-32.59-28.75-34.98c-5.24-0.8-7.24-2.77-8.91-7.27c-12.91-34.97-26.19-69.81-39.01-104.8   c-5.97-16.3-20.4-28-39.4-27.52c-27.26,0.68-54.55-0.07-81.83,0.36c-6.4,0.1-8.42-2.61-9.15-7.97   c-1.74-12.73,2.39-23.06,12.31-31.23c2.75-2.27,4.45-2.8,7.56-0.01c7.66,6.82,16.92,7.94,26.18,3.97c9.3-4,14.64-11.47,14.67-21.87   c0-3.4,1.19-5.1,4.1-6.5c10.07-4.84,20.18-9.59,29.96-14.98c4.24-2.35,6.56-2.26,10.05,1.46c8.18,8.76,19.35,9.81,29.46,3.65   c9.27-5.65,13.44-16.6,10.59-27.32c-1.81-6.79-6.81-11.43-11.01-16.56c-1.84-2.25-2.49-3.56-0.07-5.87   c12.95-12.3,25.78-24.73,38.55-37.23c2.49-2.43,3.52-2.14,5.03,0.96c3.88,7.92,8.14,15.67,12.24,23.5   c22.24,42.5,44.46,85,66.74,127.46c6.14,11.7,17.19,17.6,27.48,14.96C605.32,254.45,612.75,238.64,604.04,221.13z M76.07,362.62   c-12.1,0.23-21.67-10.89-21.11-23.38c0.54-11.85,10.98-20.56,23.57-19.9c3.52,0.19,6.33,1.96,9.42,3.14   c6.23,2.42,11.85,0.03,13.24-6.34c0.81-3.65,2.03-6.75,4.69-9.39c4.48-4.42,4.32-9.34,0.99-14.3c-5.61-8.33-6.23-17.04-1.26-25.65   c5.1-8.84,12.92-12.86,23.39-11.66c6.4,0.72,10.5-4.07,10.39-11.6c-0.17-10.84,4.36-18.9,14.01-23.92c3.06-1.58,6.37-2.1,8.47-1.71   c12.08,0,19.63,4.72,23.41,14.98c2.59,7.05,6.43,11.02,14.36,9.75c11.6-1.87,24.28,9.21,24.81,21.67   c0.59,13.78-9.05,24.94-23.26,25.96c-12.83,0.91-24.93-1.88-28.44-16.92c-1.59-6.87-6.98-9.6-12.5-7.3   c-5.52,2.29-7.46,6.78-6.13,12.86c2.43,11.01-1.04,21.21-14.96,22.28c-12.79,0.99-12.91,2.11-13.23,14.43   c-0.2,7.78-5.72,12.85-13.56,12.46c-12.28-0.61-13.37,0.64-14.12,12.59C97.33,354.86,87.35,362.42,76.07,362.62z M140.88,568.58   c-5.29-0.19-10.57,0.01-15.86-0.04c-7.53-0.07-10.6-2.96-10.63-10.24c-0.03-6.45-2.19-14.86,1.01-18.8   c3.36-4.16,12.12-0.93,18.51-1.33c2.16-0.13,4.33-0.01,6.49-0.01c6.72,0,13.46,0.1,20.18-0.04c3.04-0.07,4.56,0.96,4.24,4.11   c-0.03,0.25,0,0.49,0,0.72C164.94,567.78,166.05,569.48,140.88,568.58z M451.49,557.36c-0.39,8.01-3.78,11.15-11.7,11.18   c-9.42,0.04-18.82,0.07-28.22,0c-7.46-0.06-10.31-3.01-10.39-10.55c-0.06-5.3,0.17-10.62-0.09-15.92   c-0.16-3.29,1.09-4.07,4.16-3.98c6.98,0.19,13.98,0.06,20.98,0.06c6.75,0,13.52,0.16,20.27-0.06c3.64-0.13,5.32,0.87,5.11,4.81   C451.35,547.71,451.74,552.55,451.49,557.36z M491.14,433.43c-0.75,20.98-0.67,42.02,0,63c0.42,13.25-7.63,23.21-22.73,23.09   c-62.03-0.51-124.08-0.22-186.13-0.22c-62.27,0-124.56,0-186.85-0.01c-12.47,0-20.15-5.75-20.5-17.96   c-0.71-24.6-0.7-49.24,0.04-73.82c0.36-12.21,8.31-18.16,21.28-18.19c40.56-0.06,81.11-0.01,121.67-0.01   c83.05,0,166.09,0.16,249.14-0.13C481.33,409.12,491.73,416.55,491.14,433.43z M397.08,271.6c8.18,0,13.99,4.46,16.7,11.5   c13.43,35.01,26.39,70.2,39.49,105.34c0.16,0.39-0.09,0.94-0.19,1.68H301.12c25.05-13.63,48.22-26.22,71.39-38.85   c3.78-2.06,7.79-3.95,8.4-9.02c0.45-3.66-0.78-6.56-3.69-8.81c-3.46-2.68-7.08-2.46-10.68-0.51   c-12.78,6.94-25.49,13.99-38.26,20.95c-20.96,11.41-41.94,22.76-62.87,34.2c-2.35,1.27-4.53,2.36-7.36,2.36   c-49.47-0.07-98.94-0.06-149.26-0.06c5.72-15.05,11.31-29.62,16.76-44.24c0.59-1.59,1.69-2.16,2.93-2.87   c7.88-4.51,13.33-10.88,15.18-19.96c0.61-2.98,2.65-4.19,5.33-4.81c8.31-1.93,15.02-6.32,19.31-13.72   c1.91-3.29,3.36-1.68,5.62-0.72c18.41,7.81,36.24,7.72,52.92-4.62c7.79-5.77,12.83-13.5,14.91-22.9c0.84-3.82,2.32-5.03,6.2-5.03   C297.65,271.64,347.37,271.6,397.08,271.6z M302.91,199.37c-15.66,13.21-22.11,29.8-18.5,49.95c0.7,3.93-1.35,3.32-3.38,3.33   c-6.27,0.07-12.54,0.03-18.83,0.03h-6.5c-14.8,0-14.69-0.06-21.77-12.85c-1.55-2.8-0.19-3.82,1.52-5.32   c18.99-16.67,39.53-31,62.61-41.57c3.27-1.49,5.59-2.33,7.74,1.29C307.87,197.71,304.23,198.27,302.91,199.37z M341.73,200.01   c-2.43,1.26-5.29,1.29-7.27-1.09c-7.87-9.42-15.66-18.9-23.41-28.44c-2.27-2.81-1.23-5.42,1.17-7.59c2.27-2.07,5.29-2.38,7.14-0.25   c8.52,9.81,16.7,19.89,24.96,29.9c0.39,0.49,0.29,1.39,0.42,2.09C345.11,197.21,343.59,199.04,341.73,200.01z M357.48,173.33   c-2.52,1.33-3.87,1.07-5.29-1.1c-0.65-1.01-1.36-1.98-2.11-2.93c-3.77-4.61-10.5-8.85-10.27-14.07c0.23-4.74,6.3-9.21,9.85-13.78   c3.98-5.13,8.14-10.13,11.99-15.35c1.56-2.14,2.43-2.4,4.2-0.23c8.14,10.11,16.41,20.11,25.02,30.59   C379.35,162.24,368.33,167.6,357.48,173.33z M426.2,163.77c-3.51,1.52-5.48-0.87-7.3-3.03c-6.82-8.08-13.52-16.28-20.25-24.45   c-11.01-13.36-22.05-26.71-33.04-40.1c-2.61-3.17-5.88-6.61-0.93-10.28c4.51-3.33,6.88,0.42,9.36,3.42   c17.28,20.99,34.56,41.97,51.92,62.9c1.69,2.04,3.39,4,4.07,6.55C429.4,161.03,428.39,162.81,426.2,163.77z M585.12,240.02   c-5.61,3.04-7.79-1.45-9.79-5.23c-26.23-50.03-52.42-100.08-78.51-150.19c-4.17-8-9.68-13.59-19.29-13.52   c-6.1,0-10.91,2.84-15.15,7.01c-12.05,11.82-24.23,23.51-36.2,35.43c-3.24,3.24-5,3.8-8.18-0.49c-7.21-9.69-7.62-9.56,1.33-18.11   c16.24-15.49,32.53-30.88,48.9-46.21c11.05-10.33,24.58-7.65,31.65,6.4c23.64,46.92,47.17,93.91,70.7,140.87   c5.52,10.99,10.81,22.11,16.43,33.04C589.24,233.4,590.11,237.31,585.12,240.02z M437.09,505.44   c22.53-0.14,40.65-18.54,40.15-40.69c-0.58-26.48-22.87-39.95-40.26-40.05c-21.6-0.13-41.56,18.83-40.31,40.46   C395.36,483.64,411.29,505.63,437.09,505.44z M436.62,443.96c12.44-0.01,22.38,9.65,22.03,21.48   c-0.35,11.47-10.49,21.47-21.83,21.47c-11.63,0.01-21.15-9.73-21.16-21.67C415.64,452.65,424.17,443.99,436.62,443.96z M126.39,425   c-20.31-1.39-40.5,16.09-40.94,39.99c-0.41,22.03,18.47,40.47,40.75,40.44c22-0.04,39.76-17.77,40.43-39.21   C167.33,443.51,147.34,423.7,126.39,425z M126.35,486.85c-11.62,0.22-22.28-10.42-22.08-22.02c0.22-11.89,9.66-20.87,21.96-20.87   c12.23,0.01,21.4,9.01,21.44,21.05C147.7,476.64,137.96,486.64,126.35,486.85z M126.39,425c-20.31-1.39-40.5,16.09-40.94,39.99   c-0.41,22.03,18.47,40.47,40.75,40.44c22-0.04,39.76-17.77,40.43-39.21C167.33,443.51,147.34,423.7,126.39,425z M126.35,486.85   c-11.62,0.22-22.28-10.42-22.08-22.02c0.22-11.89,9.66-20.87,21.96-20.87c12.23,0.01,21.4,9.01,21.44,21.05   C147.7,476.64,137.96,486.64,126.35,486.85z M436.99,424.7c-21.6-0.13-41.56,18.83-40.31,40.46   c-1.32,18.48,14.62,40.47,40.41,40.28c22.53-0.14,40.65-18.54,40.15-40.69C476.67,438.27,454.38,424.8,436.99,424.7z    M436.82,486.91c-11.63,0.01-21.15-9.73-21.16-21.67c-0.01-12.59,8.52-21.25,20.96-21.28c12.44-0.01,22.38,9.65,22.03,21.48   C458.3,476.92,448.16,486.91,436.82,486.91z M436.99,424.7c-21.6-0.13-41.56,18.83-40.31,40.46   c-1.32,18.48,14.62,40.47,40.41,40.28c22.53-0.14,40.65-18.54,40.15-40.69C476.67,438.27,454.38,424.8,436.99,424.7z    M436.82,486.91c-11.63,0.01-21.15-9.73-21.16-21.67c-0.01-12.59,8.52-21.25,20.96-21.28c12.44-0.01,22.38,9.65,22.03,21.48   C458.3,476.92,448.16,486.91,436.82,486.91z M126.39,425c-20.31-1.39-40.5,16.09-40.94,39.99c-0.41,22.03,18.47,40.47,40.75,40.44   c22-0.04,39.76-17.77,40.43-39.21C167.33,443.51,147.34,423.7,126.39,425z M126.35,486.85c-11.62,0.22-22.28-10.42-22.08-22.02   c0.22-11.89,9.66-20.87,21.96-20.87c12.23,0.01,21.4,9.01,21.44,21.05C147.7,476.64,137.96,486.64,126.35,486.85z M126.39,425   c-20.31-1.39-40.5,16.09-40.94,39.99c-0.41,22.03,18.47,40.47,40.75,40.44c22-0.04,39.76-17.77,40.43-39.21   C167.33,443.51,147.34,423.7,126.39,425z M126.35,486.85c-11.62,0.22-22.28-10.42-22.08-22.02c0.22-11.89,9.66-20.87,21.96-20.87   c12.23,0.01,21.4,9.01,21.44,21.05C147.7,476.64,137.96,486.64,126.35,486.85z M436.99,424.7c-21.6-0.13-41.56,18.83-40.31,40.46   c-1.32,18.48,14.62,40.47,40.41,40.28c22.53-0.14,40.65-18.54,40.15-40.69C476.67,438.27,454.38,424.8,436.99,424.7z    M436.82,486.91c-11.63,0.01-21.15-9.73-21.16-21.67c-0.01-12.59,8.52-21.25,20.96-21.28c12.44-0.01,22.38,9.65,22.03,21.48   C458.3,476.92,448.16,486.91,436.82,486.91z M436.99,424.7c-21.6-0.13-41.56,18.83-40.31,40.46   c-1.32,18.48,14.62,40.47,40.41,40.28c22.53-0.14,40.65-18.54,40.15-40.69C476.67,438.27,454.38,424.8,436.99,424.7z    M436.82,486.91c-11.63,0.01-21.15-9.73-21.16-21.67c-0.01-12.59,8.52-21.25,20.96-21.28c12.44-0.01,22.38,9.65,22.03,21.48   C458.3,476.92,448.16,486.91,436.82,486.91z M126.39,425c-20.31-1.39-40.5,16.09-40.94,39.99c-0.41,22.03,18.47,40.47,40.75,40.44   c22-0.04,39.76-17.77,40.43-39.21C167.33,443.51,147.34,423.7,126.39,425z M126.35,486.85c-11.62,0.22-22.28-10.42-22.08-22.02   c0.22-11.89,9.66-20.87,21.96-20.87c12.23,0.01,21.4,9.01,21.44,21.05C147.7,476.64,137.96,486.64,126.35,486.85z M126.39,425   c-20.31-1.39-40.5,16.09-40.94,39.99c-0.41,22.03,18.47,40.47,40.75,40.44c22-0.04,39.76-17.77,40.43-39.21   C167.33,443.51,147.34,423.7,126.39,425z M126.35,486.85c-11.62,0.22-22.28-10.42-22.08-22.02c0.22-11.89,9.66-20.87,21.96-20.87   c12.23,0.01,21.4,9.01,21.44,21.05C147.7,476.64,137.96,486.64,126.35,486.85z M436.99,424.7c-21.6-0.13-41.56,18.83-40.31,40.46   c-1.32,18.48,14.62,40.47,40.41,40.28c22.53-0.14,40.65-18.54,40.15-40.69C476.67,438.27,454.38,424.8,436.99,424.7z    M436.82,486.91c-11.63,0.01-21.15-9.73-21.16-21.67c-0.01-12.59,8.52-21.25,20.96-21.28c12.44-0.01,22.38,9.65,22.03,21.48   C458.3,476.92,448.16,486.91,436.82,486.91z M436.99,424.7c-21.6-0.13-41.56,18.83-40.31,40.46   c-1.32,18.48,14.62,40.47,40.41,40.28c22.53-0.14,40.65-18.54,40.15-40.69C476.67,438.27,454.38,424.8,436.99,424.7z    M436.82,486.91c-11.63,0.01-21.15-9.73-21.16-21.67c-0.01-12.59,8.52-21.25,20.96-21.28c12.44-0.01,22.38,9.65,22.03,21.48   C458.3,476.92,448.16,486.91,436.82,486.91z M126.39,425c-20.31-1.39-40.5,16.09-40.94,39.99c-0.41,22.03,18.47,40.47,40.75,40.44   c22-0.04,39.76-17.77,40.43-39.21C167.33,443.51,147.34,423.7,126.39,425z M126.35,486.85c-11.62,0.22-22.28-10.42-22.08-22.02   c0.22-11.89,9.66-20.87,21.96-20.87c12.23,0.01,21.4,9.01,21.44,21.05C147.7,476.64,137.96,486.64,126.35,486.85z M126.39,425   c-20.31-1.39-40.5,16.09-40.94,39.99c-0.41,22.03,18.47,40.47,40.75,40.44c22-0.04,39.76-17.77,40.43-39.21   C167.33,443.51,147.34,423.7,126.39,425z M126.35,486.85c-11.62,0.22-22.28-10.42-22.08-22.02c0.22-11.89,9.66-20.87,21.96-20.87   c12.23,0.01,21.4,9.01,21.44,21.05C147.7,476.64,137.96,486.64,126.35,486.85z M436.99,424.7c-21.6-0.13-41.56,18.83-40.31,40.46   c-1.32,18.48,14.62,40.47,40.41,40.28c22.53-0.14,40.65-18.54,40.15-40.69C476.67,438.27,454.38,424.8,436.99,424.7z    M436.82,486.91c-11.63,0.01-21.15-9.73-21.16-21.67c-0.01-12.59,8.52-21.25,20.96-21.28c12.44-0.01,22.38,9.65,22.03,21.48   C458.3,476.92,448.16,486.91,436.82,486.91z M436.99,424.7c-21.6-0.13-41.56,18.83-40.31,40.46   c-1.32,18.48,14.62,40.47,40.41,40.28c22.53-0.14,40.65-18.54,40.15-40.69C476.67,438.27,454.38,424.8,436.99,424.7z    M436.82,486.91c-11.63,0.01-21.15-9.73-21.16-21.67c-0.01-12.59,8.52-21.25,20.96-21.28c12.44-0.01,22.38,9.65,22.03,21.48   C458.3,476.92,448.16,486.91,436.82,486.91z M126.39,425c-20.31-1.39-40.5,16.09-40.94,39.99c-0.41,22.03,18.47,40.47,40.75,40.44   c22-0.04,39.76-17.77,40.43-39.21C167.33,443.51,147.34,423.7,126.39,425z M126.35,486.85c-11.62,0.22-22.28-10.42-22.08-22.02   c0.22-11.89,9.66-20.87,21.96-20.87c12.23,0.01,21.4,9.01,21.44,21.05C147.7,476.64,137.96,486.64,126.35,486.85z"></path>
	<path class="st0" d="M40.98,35.07C22.14,34.57,5.84,48.86,6.29,69.3c0.45,20.37,14.04,33.39,33.79,33.8   c19.47,0.39,34.13-14.24,34.19-34.01C74.36,49.97,59.99,35.58,40.98,35.07z M40.78,84.51c-7.79,0.32-15.89-7.65-15.88-15.62   c0.01-7.94,7.17-14.86,15.41-14.89c8.6-0.03,15.05,6.23,15.18,14.75C55.61,76.76,48.69,84.18,40.78,84.51z"></path>
	<path class="st0" d="M222.98,111.62c0.01,2.39,0.25,4.82-0.04,7.18c-0.69,5.68-3.89,9.43-9.74,9.26c-5.75-0.17-9.01-3.69-9.05-9.68   c-0.03-4.55,0.02-9.1-0.01-13.65c-0.04-5.97,4.01-8.96,8.86-9.38c5.17-0.45,8.86,3.1,9.88,8.38   C223.38,106.27,222.97,108.98,222.98,111.62z"></path>
	<path class="st0" d="M185.9,74.57c2.16,0,4.33,0.02,6.49,0c5.06-0.04,8.1,2.42,8.95,7.39c0.95,5.55-1.25,10.01-6.69,10.92   c-5.83,0.97-12.05,1.01-17.89,0.14c-5.2-0.78-8.14-4.8-7.36-10.51c0.73-5.32,3.91-7.97,9.3-7.94   C181.1,74.58,183.5,74.57,185.9,74.57z"></path>
	<path class="st0" d="M204.15,55.5c0-2.16-0.09-4.33,0.02-6.48c0.27-5.54,2.82-8.97,8.72-9.27c6.2-0.31,9.44,3.04,10.01,8.77   c0.47,4.76,0.44,9.63,0.01,14.39c-0.51,5.73-3.63,9.16-9.87,8.91c-5.89-0.23-8.57-3.53-8.86-9.12   C204.05,60.31,204.15,57.9,204.15,55.5z"></path>
	<path class="st0" d="M241.71,74.57c2.17,0,4.34-0.02,6.51,0c5.67,0.07,8.98,2.98,9.49,8.57c0.54,5.87-3.21,9.21-8.25,10.02   c-5.17,0.84-10.64,0.7-15.87,0.08c-5.33-0.64-8.8-4.4-8.4-9.82c0.38-5.14,3.25-8.97,9.28-8.86   C236.89,74.61,239.3,74.57,241.71,74.57z"></path>
	<path class="st0" d="M317.18,19.52c5.74-0.04,10.01,4.02,10.13,9.62c0.11,5.48-5.12,10.89-10.33,10.67   c-5.04-0.21-9.98-5.38-9.96-10.42C307.04,24.19,311.8,19.56,317.18,19.52z"></path>
	<path class="st0" d="M505.47,276.62c-0.02,5.69-4.21,9.66-10.21,9.66c-6.11-0.01-10.08-3.83-10.08-9.69c0-5.79,4.08-9.71,10.11-9.7   C501.26,266.9,505.48,270.94,505.47,276.62z"></path>
	<path class="st0" d="M40.49,247.18c-0.11,5.3-4.89,9.99-10.11,9.93c-5.07-0.06-10.07-5-10.17-10.02   c-0.1-5.28,5.27-10.45,10.64-10.25C36.15,237.02,40.6,241.79,40.49,247.18z"></path>
	<path class="st1" d="M126.39,425c-20.31-1.39-40.5,16.09-40.94,39.99c-0.41,22.03,18.47,40.47,40.75,40.44   c22-0.04,39.76-17.77,40.43-39.21C167.33,443.51,147.34,423.7,126.39,425z M126.35,486.85c-11.62,0.22-22.28-10.42-22.08-22.02   c0.22-11.89,9.66-20.87,21.96-20.87c12.23,0.01,21.4,9.01,21.44,21.05C147.7,476.64,137.96,486.64,126.35,486.85z"></path>
	<path class="st1" d="M436.99,424.7c-21.6-0.13-41.56,18.83-40.31,40.46c-1.32,18.48,14.62,40.47,40.41,40.28   c22.53-0.14,40.65-18.54,40.15-40.69C476.67,438.27,454.38,424.8,436.99,424.7z M436.82,486.91c-11.63,0.01-21.15-9.73-21.16-21.67   c-0.01-12.59,8.52-21.25,20.96-21.28c12.44-0.01,22.38,9.65,22.03,21.48C458.3,476.92,448.16,486.91,436.82,486.91z"></path>
	<path class="st0" d="M436.99,424.7c-21.6-0.13-41.56,18.83-40.31,40.46c-1.32,18.48,14.62,40.47,40.41,40.28   c22.53-0.14,40.65-18.54,40.15-40.69C476.67,438.27,454.38,424.8,436.99,424.7z M436.82,486.91c-11.63,0.01-21.15-9.73-21.16-21.67   c-0.01-12.59,8.52-21.25,20.96-21.28c12.44-0.01,22.38,9.65,22.03,21.48C458.3,476.92,448.16,486.91,436.82,486.91z"></path>
	<path class="st0" d="M126.39,425c-20.31-1.39-40.5,16.09-40.94,39.99c-0.41,22.03,18.47,40.47,40.75,40.44   c22-0.04,39.76-17.77,40.43-39.21C167.33,443.51,147.34,423.7,126.39,425z M126.35,486.85c-11.62,0.22-22.28-10.42-22.08-22.02   c0.22-11.89,9.66-20.87,21.96-20.87c12.23,0.01,21.4,9.01,21.44,21.05C147.7,476.64,137.96,486.64,126.35,486.85z"></path>
</g>
</svg>