<svg xmlns="http://www.w3.org/2000/svg" xmlns:xlink="http://www.w3.org/1999/xlink" id="Layer_1" x="0px" y="0px" viewBox="0 0 612 610.02" style="enable-background:new 0 0 612 610.02;" xml:space="preserve">
<style type="text/css">
	.st0{display:none;}
	.st1{display:inline;fill:#B0CE38;}
	.st2{display:inline;fill:#FEFEFE;}
	.st3{fill:#B0CE38;}
</style>
<g class="st0">
	<path class="st1" d="M126.39,425c-20.31-1.39-40.5,16.09-40.94,39.99c-0.41,22.03,18.47,40.47,40.75,40.44   c22-0.04,39.76-17.77,40.43-39.21C167.33,443.51,147.34,423.7,126.39,425z M126.35,486.85c-11.62,0.22-22.28-10.42-22.08-22.02   c0.22-11.89,9.66-20.87,21.96-20.87c12.23,0.01,21.4,9.01,21.44,21.05C147.7,476.64,137.96,486.64,126.35,486.85z M436.99,424.7   c-21.6-0.13-41.56,18.83-40.31,40.46c-1.32,18.48,14.62,40.47,40.41,40.28c22.53-0.14,40.65-18.54,40.15-40.69   C476.67,438.27,454.38,424.8,436.99,424.7z M436.82,486.91c-11.63,0.01-21.15-9.73-21.16-21.67c-0.01-12.59,8.52-21.25,20.96-21.28   c12.44-0.01,22.38,9.65,22.03,21.48C458.3,476.92,448.16,486.91,436.82,486.91z M436.99,424.7c-21.6-0.13-41.56,18.83-40.31,40.46   c-1.32,18.48,14.62,40.47,40.41,40.28c22.53-0.14,40.65-18.54,40.15-40.69C476.67,438.27,454.38,424.8,436.99,424.7z    M436.82,486.91c-11.63,0.01-21.15-9.73-21.16-21.67c-0.01-12.59,8.52-21.25,20.96-21.28c12.44-0.01,22.38,9.65,22.03,21.48   C458.3,476.92,448.16,486.91,436.82,486.91z M126.39,425c-20.31-1.39-40.5,16.09-40.94,39.99c-0.41,22.03,18.47,40.47,40.75,40.44   c22-0.04,39.76-17.77,40.43-39.21C167.33,443.51,147.34,423.7,126.39,425z M126.35,486.85c-11.62,0.22-22.28-10.42-22.08-22.02   c0.22-11.89,9.66-20.87,21.96-20.87c12.23,0.01,21.4,9.01,21.44,21.05C147.7,476.64,137.96,486.64,126.35,486.85z M126.39,425   c-20.31-1.39-40.5,16.09-40.94,39.99c-0.41,22.03,18.47,40.47,40.75,40.44c22-0.04,39.76-17.77,40.43-39.21   C167.33,443.51,147.34,423.7,126.39,425z M126.35,486.85c-11.62,0.22-22.28-10.42-22.08-22.02c0.22-11.89,9.66-20.87,21.96-20.87   c12.23,0.01,21.4,9.01,21.44,21.05C147.7,476.64,137.96,486.64,126.35,486.85z M436.99,424.7c-21.6-0.13-41.56,18.83-40.31,40.46   c-1.32,18.48,14.62,40.47,40.41,40.28c22.53-0.14,40.65-18.54,40.15-40.69C476.67,438.27,454.38,424.8,436.99,424.7z    M436.82,486.91c-11.63,0.01-21.15-9.73-21.16-21.67c-0.01-12.59,8.52-21.25,20.96-21.28c12.44-0.01,22.38,9.65,22.03,21.48   C458.3,476.92,448.16,486.91,436.82,486.91z M436.99,424.7c-21.6-0.13-41.56,18.83-40.31,40.46   c-1.32,18.48,14.62,40.47,40.41,40.28c22.53-0.14,40.65-18.54,40.15-40.69C476.67,438.27,454.38,424.8,436.99,424.7z    M436.82,486.91c-11.63,0.01-21.15-9.73-21.16-21.67c-0.01-12.59,8.52-21.25,20.96-21.28c12.44-0.01,22.38,9.65,22.03,21.48   C458.3,476.92,448.16,486.91,436.82,486.91z M126.39,425c-20.31-1.39-40.5,16.09-40.94,39.99c-0.41,22.03,18.47,40.47,40.75,40.44   c22-0.04,39.76-17.77,40.43-39.21C167.33,443.51,147.34,423.7,126.39,425z M126.35,486.85c-11.62,0.22-22.28-10.42-22.08-22.02   c0.22-11.89,9.66-20.87,21.96-20.87c12.23,0.01,21.4,9.01,21.44,21.05C147.7,476.64,137.96,486.64,126.35,486.85z M126.39,425   c-20.31-1.39-40.5,16.09-40.94,39.99c-0.41,22.03,18.47,40.47,40.75,40.44c22-0.04,39.76-17.77,40.43-39.21   C167.33,443.51,147.34,423.7,126.39,425z M126.35,486.85c-11.62,0.22-22.28-10.42-22.08-22.02c0.22-11.89,9.66-20.87,21.96-20.87   c12.23,0.01,21.4,9.01,21.44,21.05C147.7,476.64,137.96,486.64,126.35,486.85z M436.99,424.7c-21.6-0.13-41.56,18.83-40.31,40.46   c-1.32,18.48,14.62,40.47,40.41,40.28c22.53-0.14,40.65-18.54,40.15-40.69C476.67,438.27,454.38,424.8,436.99,424.7z    M436.82,486.91c-11.63,0.01-21.15-9.73-21.16-21.67c-0.01-12.59,8.52-21.25,20.96-21.28c12.44-0.01,22.38,9.65,22.03,21.48   C458.3,476.92,448.16,486.91,436.82,486.91z M436.99,424.7c-21.6-0.13-41.56,18.83-40.31,40.46   c-1.32,18.48,14.62,40.47,40.41,40.28c22.53-0.14,40.65-18.54,40.15-40.69C476.67,438.27,454.38,424.8,436.99,424.7z    M436.82,486.91c-11.63,0.01-21.15-9.73-21.16-21.67c-0.01-12.59,8.52-21.25,20.96-21.28c12.44-0.01,22.38,9.65,22.03,21.48   C458.3,476.92,448.16,486.91,436.82,486.91z M126.39,425c-20.31-1.39-40.5,16.09-40.94,39.99c-0.41,22.03,18.47,40.47,40.75,40.44   c22-0.04,39.76-17.77,40.43-39.21C167.33,443.51,147.34,423.7,126.39,425z M126.35,486.85c-11.62,0.22-22.28-10.42-22.08-22.02   c0.22-11.89,9.66-20.87,21.96-20.87c12.23,0.01,21.4,9.01,21.44,21.05C147.7,476.64,137.96,486.64,126.35,486.85z M126.39,425   c-20.31-1.39-40.5,16.09-40.94,39.99c-0.41,22.03,18.47,40.47,40.75,40.44c22-0.04,39.76-17.77,40.43-39.21   C167.33,443.51,147.34,423.7,126.39,425z M126.35,486.85c-11.62,0.22-22.28-10.42-22.08-22.02c0.22-11.89,9.66-20.87,21.96-20.87   c12.23,0.01,21.4,9.01,21.44,21.05C147.7,476.64,137.96,486.64,126.35,486.85z M436.99,424.7c-21.6-0.13-41.56,18.83-40.31,40.46   c-1.32,18.48,14.62,40.47,40.41,40.28c22.53-0.14,40.65-18.54,40.15-40.69C476.67,438.27,454.38,424.8,436.99,424.7z    M436.82,486.91c-11.63,0.01-21.15-9.73-21.16-21.67c-0.01-12.59,8.52-21.25,20.96-21.28c12.44-0.01,22.38,9.65,22.03,21.48   C458.3,476.92,448.16,486.91,436.82,486.91z M436.99,424.7c-21.6-0.13-41.56,18.83-40.31,40.46   c-1.32,18.48,14.62,40.47,40.41,40.28c22.53-0.14,40.65-18.54,40.15-40.69C476.67,438.27,454.38,424.8,436.99,424.7z    M436.82,486.91c-11.63,0.01-21.15-9.73-21.16-21.67c-0.01-12.59,8.52-21.25,20.96-21.28c12.44-0.01,22.38,9.65,22.03,21.48   C458.3,476.92,448.16,486.91,436.82,486.91z M126.39,425c-20.31-1.39-40.5,16.09-40.94,39.99c-0.41,22.03,18.47,40.47,40.75,40.44   c22-0.04,39.76-17.77,40.43-39.21C167.33,443.51,147.34,423.7,126.39,425z M126.35,486.85c-11.62,0.22-22.28-10.42-22.08-22.02   c0.22-11.89,9.66-20.87,21.96-20.87c12.23,0.01,21.4,9.01,21.44,21.05C147.7,476.64,137.96,486.64,126.35,486.85z M604.04,221.13   c-28.97-58.3-58.09-116.57-87.17-174.81c-3.27-6.55-7.74-12.15-13.94-16.19c-15.8-10.28-33.8-8.27-49.06,5.95   c-16.93,15.8-33.77,31.75-50.27,48.02c-4.58,4.51-7.03,3.87-10.36-0.88c-3.59-5.13-7.47-10.18-12.79-13.66   c-9.49-6.2-22.16-4.53-30.19,3.71c-8.29,8.52-9.52,20.51-2.33,30.8c2.59,3.69,2.74,5.62-0.2,9.11   c-6.97,8.29-13.46,16.98-19.86,25.7c-2.27,3.11-3.98,4.53-8.56,4.07c-16.9-1.75-30.01,11.05-27.99,27.2   c0.56,4.45-0.9,5.74-4.1,7.21c-24.21,11.05-45.62,26.28-65.33,43.96c-6.72,6.04-17.28,4.9-22.31-2.71   c-10.55-15.93-25.74-21.68-44.14-19.32c-15.83,2.03-29.84,15.91-33.72,33.14c-0.77,3.36-2.16,3.85-5.11,4.55   c-23.55,5.5-38.36,29.96-31.87,52.19c3.32,11.37,3.32,11.37-8.5,11.37c-19.45,0-36.46,14.18-40.02,33.39   c-3.49,18.77,8.26,38.18,26.71,45.01c9.89,3.66,19.48,2.64,30.01-0.9c-2.3,7.47-3.65,12.96-12.02,15.44   c-15.05,4.46-24.25,15.54-24.61,31.61c-0.58,26.29-0.48,52.61,0.01,78.9c0.28,14.92,10.6,27.12,24.41,32.45   c4.87,1.87,12.18-1.43,14.36,4.4c1.81,4.87,0.39,10.97,0.39,16.51c0,0.97,0,1.93,0.01,2.9c0.17,14.76,12.28,27,27.02,27.15   c11.11,0.1,22.22,0.09,33.32,0c13.73-0.1,24.26-9.53,26.84-23.15c1.29-6.75,1.03-13.47,0.84-20.19c-0.13-4.64,1.06-6.1,5.92-6.03   c20.76,0.28,41.52,0.12,62.29,0.12c41.27,0,82.55,0.1,123.84-0.13c5.29-0.03,7.4,1.07,6.84,6.69c-0.52,5.26-0.14,10.62-0.09,15.92   c0.19,14.33,12.33,26.6,26.62,26.76c11.59,0.13,23.18,0.14,34.77-0.01c12.63-0.17,23.54-10.21,25.7-22.76   c1.25-7.21,0.9-14.43,0.87-21.66c-0.01-3.62,0.91-4.72,4.79-4.95c18.95-1.13,34.53-17.44,34.69-36.32c0.22-24.87,0.22-49.73,0-74.6   c-0.14-16.51-13.08-32.59-28.75-34.98c-5.24-0.8-7.24-2.77-8.91-7.27c-12.91-34.97-26.19-69.81-39.01-104.8   c-5.97-16.3-20.4-28-39.4-27.52c-27.26,0.68-54.55-0.07-81.83,0.36c-6.4,0.1-8.42-2.61-9.15-7.97   c-1.74-12.73,2.39-23.06,12.31-31.23c2.75-2.27,4.45-2.8,7.56-0.01c7.66,6.82,16.92,7.94,26.18,3.97c9.3-4,14.64-11.47,14.67-21.87   c0-3.4,1.19-5.1,4.1-6.5c10.07-4.84,20.18-9.59,29.96-14.98c4.24-2.35,6.56-2.26,10.05,1.46c8.18,8.76,19.35,9.81,29.46,3.65   c9.27-5.65,13.44-16.6,10.59-27.32c-1.81-6.79-6.81-11.43-11.01-16.56c-1.84-2.25-2.49-3.56-0.07-5.87   c12.95-12.3,25.78-24.73,38.55-37.23c2.49-2.43,3.52-2.14,5.03,0.96c3.88,7.92,8.14,15.67,12.24,23.5   c22.24,42.5,44.46,85,66.74,127.46c6.14,11.7,17.19,17.6,27.48,14.96C605.32,254.45,612.75,238.64,604.04,221.13z M76.07,362.62   c-12.1,0.23-21.67-10.89-21.11-23.38c0.54-11.85,10.98-20.56,23.57-19.9c3.52,0.19,6.33,1.96,9.42,3.14   c6.23,2.42,11.85,0.03,13.24-6.34c0.81-3.65,2.03-6.75,4.69-9.39c4.48-4.42,4.32-9.34,0.99-14.3c-5.61-8.33-6.23-17.04-1.26-25.65   c5.1-8.84,12.92-12.86,23.39-11.66c6.4,0.72,10.5-4.07,10.39-11.6c-0.17-10.84,4.36-18.9,14.01-23.92c3.06-1.58,6.37-2.1,8.47-1.71   c12.08,0,19.63,4.72,23.41,14.98c2.59,7.05,6.43,11.02,14.36,9.75c11.6-1.87,24.28,9.21,24.81,21.67   c0.59,13.78-9.05,24.94-23.26,25.96c-12.83,0.91-24.93-1.88-28.44-16.92c-1.59-6.87-6.98-9.6-12.5-7.3   c-5.52,2.29-7.46,6.78-6.13,12.86c2.43,11.01-1.04,21.21-14.96,22.28c-12.79,0.99-12.91,2.11-13.23,14.43   c-0.2,7.78-5.72,12.85-13.56,12.46c-12.28-0.61-13.37,0.64-14.12,12.59C97.33,354.86,87.35,362.42,76.07,362.62z M140.88,568.58   c-5.29-0.19-10.57,0.01-15.86-0.04c-7.53-0.07-10.6-2.96-10.63-10.24c-0.03-6.45-2.19-14.86,1.01-18.8   c3.36-4.16,12.12-0.93,18.51-1.33c2.16-0.13,4.33-0.01,6.49-0.01c6.72,0,13.46,0.1,20.18-0.04c3.04-0.07,4.56,0.96,4.24,4.11   c-0.03,0.25,0,0.49,0,0.72C164.94,567.78,166.05,569.48,140.88,568.58z M451.49,557.36c-0.39,8.01-3.78,11.15-11.7,11.18   c-9.42,0.04-18.82,0.07-28.22,0c-7.46-0.06-10.31-3.01-10.39-10.55c-0.06-5.3,0.17-10.62-0.09-15.92   c-0.16-3.29,1.09-4.07,4.16-3.98c6.98,0.19,13.98,0.06,20.98,0.06c6.75,0,13.52,0.16,20.27-0.06c3.64-0.13,5.32,0.87,5.11,4.81   C451.35,547.71,451.74,552.55,451.49,557.36z M491.14,433.43c-0.75,20.98-0.67,42.02,0,63c0.42,13.25-7.63,23.21-22.73,23.09   c-62.03-0.51-124.08-0.22-186.13-0.22c-62.27,0-124.56,0-186.85-0.01c-12.47,0-20.15-5.75-20.5-17.96   c-0.71-24.6-0.7-49.24,0.04-73.82c0.36-12.21,8.31-18.16,21.28-18.19c40.56-0.06,81.11-0.01,121.67-0.01   c83.05,0,166.09,0.16,249.14-0.13C481.33,409.12,491.73,416.55,491.14,433.43z M397.08,271.6c8.18,0,13.99,4.46,16.7,11.5   c13.43,35.01,26.39,70.2,39.49,105.34c0.16,0.39-0.09,0.94-0.19,1.68H301.12c25.05-13.63,48.22-26.22,71.39-38.85   c3.78-2.06,7.79-3.95,8.4-9.02c0.45-3.66-0.78-6.56-3.69-8.81c-3.46-2.68-7.08-2.46-10.68-0.51   c-12.78,6.94-25.49,13.99-38.26,20.95c-20.96,11.41-41.94,22.76-62.87,34.2c-2.35,1.27-4.53,2.36-7.36,2.36   c-49.47-0.07-98.94-0.06-149.26-0.06c5.72-15.05,11.31-29.62,16.76-44.24c0.59-1.59,1.69-2.16,2.93-2.87   c7.88-4.51,13.33-10.88,15.18-19.96c0.61-2.98,2.65-4.19,5.33-4.81c8.31-1.93,15.02-6.32,19.31-13.72   c1.91-3.29,3.36-1.68,5.62-0.72c18.41,7.81,36.24,7.72,52.92-4.62c7.79-5.77,12.83-13.5,14.91-22.9c0.84-3.82,2.32-5.03,6.2-5.03   C297.65,271.64,347.37,271.6,397.08,271.6z M302.91,199.37c-15.66,13.21-22.11,29.8-18.5,49.95c0.7,3.93-1.35,3.32-3.38,3.33   c-6.27,0.07-12.54,0.03-18.83,0.03h-6.5c-14.8,0-14.69-0.06-21.77-12.85c-1.55-2.8-0.19-3.82,1.52-5.32   c18.99-16.67,39.53-31,62.61-41.57c3.27-1.49,5.59-2.33,7.74,1.29C307.87,197.71,304.23,198.27,302.91,199.37z M341.73,200.01   c-2.43,1.26-5.29,1.29-7.27-1.09c-7.87-9.42-15.66-18.9-23.41-28.44c-2.27-2.81-1.23-5.42,1.17-7.59c2.27-2.07,5.29-2.38,7.14-0.25   c8.52,9.81,16.7,19.89,24.96,29.9c0.39,0.49,0.29,1.39,0.42,2.09C345.11,197.21,343.59,199.04,341.73,200.01z M357.48,173.33   c-2.52,1.33-3.87,1.07-5.29-1.1c-0.65-1.01-1.36-1.98-2.11-2.93c-3.77-4.61-10.5-8.85-10.27-14.07c0.23-4.74,6.3-9.21,9.85-13.78   c3.98-5.13,8.14-10.13,11.99-15.35c1.56-2.14,2.43-2.4,4.2-0.23c8.14,10.11,16.41,20.11,25.02,30.59   C379.35,162.24,368.33,167.6,357.48,173.33z M426.2,163.77c-3.51,1.52-5.48-0.87-7.3-3.03c-6.82-8.08-13.52-16.28-20.25-24.45   c-11.01-13.36-22.05-26.71-33.04-40.1c-2.61-3.17-5.88-6.61-0.93-10.28c4.51-3.33,6.88,0.42,9.36,3.42   c17.28,20.99,34.56,41.97,51.92,62.9c1.69,2.04,3.39,4,4.07,6.55C429.4,161.03,428.39,162.81,426.2,163.77z M585.12,240.02   c-5.61,3.04-7.79-1.45-9.79-5.23c-26.23-50.03-52.42-100.08-78.51-150.19c-4.17-8-9.68-13.59-19.29-13.52   c-6.1,0-10.91,2.84-15.15,7.01c-12.05,11.82-24.23,23.51-36.2,35.43c-3.24,3.24-5,3.8-8.18-0.49c-7.21-9.69-7.62-9.56,1.33-18.11   c16.24-15.49,32.53-30.88,48.9-46.21c11.05-10.33,24.58-7.65,31.65,6.4c23.64,46.92,47.17,93.91,70.7,140.87   c5.52,10.99,10.81,22.11,16.43,33.04C589.24,233.4,590.11,237.31,585.12,240.02z M437.09,505.44   c22.53-0.14,40.65-18.54,40.15-40.69c-0.58-26.48-22.87-39.95-40.26-40.05c-21.6-0.13-41.56,18.83-40.31,40.46   C395.36,483.64,411.29,505.63,437.09,505.44z M436.62,443.96c12.44-0.01,22.38,9.65,22.03,21.48   c-0.35,11.47-10.49,21.47-21.83,21.47c-11.63,0.01-21.15-9.73-21.16-21.67C415.64,452.65,424.17,443.99,436.62,443.96z M126.39,425   c-20.31-1.39-40.5,16.09-40.94,39.99c-0.41,22.03,18.47,40.47,40.75,40.44c22-0.04,39.76-17.77,40.43-39.21   C167.33,443.51,147.34,423.7,126.39,425z M126.35,486.85c-11.62,0.22-22.28-10.42-22.08-22.02c0.22-11.89,9.66-20.87,21.96-20.87   c12.23,0.01,21.4,9.01,21.44,21.05C147.7,476.64,137.96,486.64,126.35,486.85z M126.39,425c-20.31-1.39-40.5,16.09-40.94,39.99   c-0.41,22.03,18.47,40.47,40.75,40.44c22-0.04,39.76-17.77,40.43-39.21C167.33,443.51,147.34,423.7,126.39,425z M126.35,486.85   c-11.62,0.22-22.28-10.42-22.08-22.02c0.22-11.89,9.66-20.87,21.96-20.87c12.23,0.01,21.4,9.01,21.44,21.05   C147.7,476.64,137.96,486.64,126.35,486.85z M436.99,424.7c-21.6-0.13-41.56,18.83-40.31,40.46   c-1.32,18.48,14.62,40.47,40.41,40.28c22.53-0.14,40.65-18.54,40.15-40.69C476.67,438.27,454.38,424.8,436.99,424.7z    M436.82,486.91c-11.63,0.01-21.15-9.73-21.16-21.67c-0.01-12.59,8.52-21.25,20.96-21.28c12.44-0.01,22.38,9.65,22.03,21.48   C458.3,476.92,448.16,486.91,436.82,486.91z M436.99,424.7c-21.6-0.13-41.56,18.83-40.31,40.46   c-1.32,18.48,14.62,40.47,40.41,40.28c22.53-0.14,40.65-18.54,40.15-40.69C476.67,438.27,454.38,424.8,436.99,424.7z    M436.82,486.91c-11.63,0.01-21.15-9.73-21.16-21.67c-0.01-12.59,8.52-21.25,20.96-21.28c12.44-0.01,22.38,9.65,22.03,21.48   C458.3,476.92,448.16,486.91,436.82,486.91z M126.39,425c-20.31-1.39-40.5,16.09-40.94,39.99c-0.41,22.03,18.47,40.47,40.75,40.44   c22-0.04,39.76-17.77,40.43-39.21C167.33,443.51,147.34,423.7,126.39,425z M126.35,486.85c-11.62,0.22-22.28-10.42-22.08-22.02   c0.22-11.89,9.66-20.87,21.96-20.87c12.23,0.01,21.4,9.01,21.44,21.05C147.7,476.64,137.96,486.64,126.35,486.85z M126.39,425   c-20.31-1.39-40.5,16.09-40.94,39.99c-0.41,22.03,18.47,40.47,40.75,40.44c22-0.04,39.76-17.77,40.43-39.21   C167.33,443.51,147.34,423.7,126.39,425z M126.35,486.85c-11.62,0.22-22.28-10.42-22.08-22.02c0.22-11.89,9.66-20.87,21.96-20.87   c12.23,0.01,21.4,9.01,21.44,21.05C147.7,476.64,137.96,486.64,126.35,486.85z M436.99,424.7c-21.6-0.13-41.56,18.83-40.31,40.46   c-1.32,18.48,14.62,40.47,40.41,40.28c22.53-0.14,40.65-18.54,40.15-40.69C476.67,438.27,454.38,424.8,436.99,424.7z    M436.82,486.91c-11.63,0.01-21.15-9.73-21.16-21.67c-0.01-12.59,8.52-21.25,20.96-21.28c12.44-0.01,22.38,9.65,22.03,21.48   C458.3,476.92,448.16,486.91,436.82,486.91z M436.99,424.7c-21.6-0.13-41.56,18.83-40.31,40.46   c-1.32,18.48,14.62,40.47,40.41,40.28c22.53-0.14,40.65-18.54,40.15-40.69C476.67,438.27,454.38,424.8,436.99,424.7z    M436.82,486.91c-11.63,0.01-21.15-9.73-21.16-21.67c-0.01-12.59,8.52-21.25,20.96-21.28c12.44-0.01,22.38,9.65,22.03,21.48   C458.3,476.92,448.16,486.91,436.82,486.91z M126.39,425c-20.31-1.39-40.5,16.09-40.94,39.99c-0.41,22.03,18.47,40.47,40.75,40.44   c22-0.04,39.76-17.77,40.43-39.21C167.33,443.51,147.34,423.7,126.39,425z M126.35,486.85c-11.62,0.22-22.28-10.42-22.08-22.02   c0.22-11.89,9.66-20.87,21.96-20.87c12.23,0.01,21.4,9.01,21.44,21.05C147.7,476.64,137.96,486.64,126.35,486.85z M126.39,425   c-20.31-1.39-40.5,16.09-40.94,39.99c-0.41,22.03,18.47,40.47,40.75,40.44c22-0.04,39.76-17.77,40.43-39.21   C167.33,443.51,147.34,423.7,126.39,425z M126.35,486.85c-11.62,0.22-22.28-10.42-22.08-22.02c0.22-11.89,9.66-20.87,21.96-20.87   c12.23,0.01,21.4,9.01,21.44,21.05C147.7,476.64,137.96,486.64,126.35,486.85z M436.99,424.7c-21.6-0.13-41.56,18.83-40.31,40.46   c-1.32,18.48,14.62,40.47,40.41,40.28c22.53-0.14,40.65-18.54,40.15-40.69C476.67,438.27,454.38,424.8,436.99,424.7z    M436.82,486.91c-11.63,0.01-21.15-9.73-21.16-21.67c-0.01-12.59,8.52-21.25,20.96-21.28c12.44-0.01,22.38,9.65,22.03,21.48   C458.3,476.92,448.16,486.91,436.82,486.91z M436.99,424.7c-21.6-0.13-41.56,18.83-40.31,40.46   c-1.32,18.48,14.62,40.47,40.41,40.28c22.53-0.14,40.65-18.54,40.15-40.69C476.67,438.27,454.38,424.8,436.99,424.7z    M436.82,486.91c-11.63,0.01-21.15-9.73-21.16-21.67c-0.01-12.59,8.52-21.25,20.96-21.28c12.44-0.01,22.38,9.65,22.03,21.48   C458.3,476.92,448.16,486.91,436.82,486.91z M126.39,425c-20.31-1.39-40.5,16.09-40.94,39.99c-0.41,22.03,18.47,40.47,40.75,40.44   c22-0.04,39.76-17.77,40.43-39.21C167.33,443.51,147.34,423.7,126.39,425z M126.35,486.85c-11.62,0.22-22.28-10.42-22.08-22.02   c0.22-11.89,9.66-20.87,21.96-20.87c12.23,0.01,21.4,9.01,21.44,21.05C147.7,476.64,137.96,486.64,126.35,486.85z M126.39,425   c-20.31-1.39-40.5,16.09-40.94,39.99c-0.41,22.03,18.47,40.47,40.75,40.44c22-0.04,39.76-17.77,40.43-39.21   C167.33,443.51,147.34,423.7,126.39,425z M126.35,486.85c-11.62,0.22-22.28-10.42-22.08-22.02c0.22-11.89,9.66-20.87,21.96-20.87   c12.23,0.01,21.4,9.01,21.44,21.05C147.7,476.64,137.96,486.64,126.35,486.85z M436.99,424.7c-21.6-0.13-41.56,18.83-40.31,40.46   c-1.32,18.48,14.62,40.47,40.41,40.28c22.53-0.14,40.65-18.54,40.15-40.69C476.67,438.27,454.38,424.8,436.99,424.7z    M436.82,486.91c-11.63,0.01-21.15-9.73-21.16-21.67c-0.01-12.59,8.52-21.25,20.96-21.28c12.44-0.01,22.38,9.65,22.03,21.48   C458.3,476.92,448.16,486.91,436.82,486.91z M436.99,424.7c-21.6-0.13-41.56,18.83-40.31,40.46   c-1.32,18.48,14.62,40.47,40.41,40.28c22.53-0.14,40.65-18.54,40.15-40.69C476.67,438.27,454.38,424.8,436.99,424.7z    M436.82,486.91c-11.63,0.01-21.15-9.73-21.16-21.67c-0.01-12.59,8.52-21.25,20.96-21.28c12.44-0.01,22.38,9.65,22.03,21.48   C458.3,476.92,448.16,486.91,436.82,486.91z M126.39,425c-20.31-1.39-40.5,16.09-40.94,39.99c-0.41,22.03,18.47,40.47,40.75,40.44   c22-0.04,39.76-17.77,40.43-39.21C167.33,443.51,147.34,423.7,126.39,425z M126.35,486.85c-11.62,0.22-22.28-10.42-22.08-22.02   c0.22-11.89,9.66-20.87,21.96-20.87c12.23,0.01,21.4,9.01,21.44,21.05C147.7,476.64,137.96,486.64,126.35,486.85z"></path>
	<path class="st1" d="M40.98,35.07C22.14,34.57,5.84,48.86,6.29,69.3c0.45,20.37,14.04,33.39,33.79,33.8   c19.47,0.39,34.13-14.24,34.19-34.01C74.36,49.97,59.99,35.58,40.98,35.07z M40.78,84.51c-7.79,0.32-15.89-7.65-15.88-15.62   c0.01-7.94,7.17-14.86,15.41-14.89c8.6-0.03,15.05,6.23,15.18,14.75C55.61,76.76,48.69,84.18,40.78,84.51z"></path>
	<path class="st1" d="M222.98,111.62c0.01,2.39,0.25,4.82-0.04,7.18c-0.69,5.68-3.89,9.43-9.74,9.26c-5.75-0.17-9.01-3.69-9.05-9.68   c-0.03-4.55,0.02-9.1-0.01-13.65c-0.04-5.97,4.01-8.96,8.86-9.38c5.17-0.45,8.86,3.1,9.88,8.38   C223.38,106.27,222.97,108.98,222.98,111.62z"></path>
	<path class="st1" d="M185.9,74.57c2.16,0,4.33,0.02,6.49,0c5.06-0.04,8.1,2.42,8.95,7.39c0.95,5.55-1.25,10.01-6.69,10.92   c-5.83,0.97-12.05,1.01-17.89,0.14c-5.2-0.78-8.14-4.8-7.36-10.51c0.73-5.32,3.91-7.97,9.3-7.94   C181.1,74.58,183.5,74.57,185.9,74.57z"></path>
	<path class="st1" d="M204.15,55.5c0-2.16-0.09-4.33,0.02-6.48c0.27-5.54,2.82-8.97,8.72-9.27c6.2-0.31,9.44,3.04,10.01,8.77   c0.47,4.76,0.44,9.63,0.01,14.39c-0.51,5.73-3.63,9.16-9.87,8.91c-5.89-0.23-8.57-3.53-8.86-9.12   C204.05,60.31,204.15,57.9,204.15,55.5z"></path>
	<path class="st1" d="M241.71,74.57c2.17,0,4.34-0.02,6.51,0c5.67,0.07,8.98,2.98,9.49,8.57c0.54,5.87-3.21,9.21-8.25,10.02   c-5.17,0.84-10.64,0.7-15.87,0.08c-5.33-0.64-8.8-4.4-8.4-9.82c0.38-5.14,3.25-8.97,9.28-8.86   C236.89,74.61,239.3,74.57,241.71,74.57z"></path>
	<path class="st1" d="M317.18,19.52c5.74-0.04,10.01,4.02,10.13,9.62c0.11,5.48-5.12,10.89-10.33,10.67   c-5.04-0.21-9.98-5.38-9.96-10.42C307.04,24.19,311.8,19.56,317.18,19.52z"></path>
	<path class="st1" d="M505.47,276.62c-0.02,5.69-4.21,9.66-10.21,9.66c-6.11-0.01-10.08-3.83-10.08-9.69c0-5.79,4.08-9.71,10.11-9.7   C501.26,266.9,505.48,270.94,505.47,276.62z"></path>
	<path class="st1" d="M40.49,247.18c-0.11,5.3-4.89,9.99-10.11,9.93c-5.07-0.06-10.07-5-10.17-10.02   c-0.1-5.28,5.27-10.45,10.64-10.25C36.15,237.02,40.6,241.79,40.49,247.18z"></path>
	<path class="st2" d="M126.39,425c-20.31-1.39-40.5,16.09-40.94,39.99c-0.41,22.03,18.47,40.47,40.75,40.44   c22-0.04,39.76-17.77,40.43-39.21C167.33,443.51,147.34,423.7,126.39,425z M126.35,486.85c-11.62,0.22-22.28-10.42-22.08-22.02   c0.22-11.89,9.66-20.87,21.96-20.87c12.23,0.01,21.4,9.01,21.44,21.05C147.7,476.64,137.96,486.64,126.35,486.85z"></path>
	<path class="st2" d="M436.99,424.7c-21.6-0.13-41.56,18.83-40.31,40.46c-1.32,18.48,14.62,40.47,40.41,40.28   c22.53-0.14,40.65-18.54,40.15-40.69C476.67,438.27,454.38,424.8,436.99,424.7z M436.82,486.91c-11.63,0.01-21.15-9.73-21.16-21.67   c-0.01-12.59,8.52-21.25,20.96-21.28c12.44-0.01,22.38,9.65,22.03,21.48C458.3,476.92,448.16,486.91,436.82,486.91z"></path>
	<path class="st1" d="M436.99,424.7c-21.6-0.13-41.56,18.83-40.31,40.46c-1.32,18.48,14.62,40.47,40.41,40.28   c22.53-0.14,40.65-18.54,40.15-40.69C476.67,438.27,454.38,424.8,436.99,424.7z M436.82,486.91c-11.63,0.01-21.15-9.73-21.16-21.67   c-0.01-12.59,8.52-21.25,20.96-21.28c12.44-0.01,22.38,9.65,22.03,21.48C458.3,476.92,448.16,486.91,436.82,486.91z"></path>
	<path class="st1" d="M126.39,425c-20.31-1.39-40.5,16.09-40.94,39.99c-0.41,22.03,18.47,40.47,40.75,40.44   c22-0.04,39.76-17.77,40.43-39.21C167.33,443.51,147.34,423.7,126.39,425z M126.35,486.85c-11.62,0.22-22.28-10.42-22.08-22.02   c0.22-11.89,9.66-20.87,21.96-20.87c12.23,0.01,21.4,9.01,21.44,21.05C147.7,476.64,137.96,486.64,126.35,486.85z"></path>
</g>
<g class="st0">
	<path class="st1" d="M521.81,437.24c-0.22-18.42-12.1-32.76-29.75-36.37c-4.24-0.87-6.27-2.83-7.77-6.91   c-11.85-32.17-23.71-64.34-36.09-96.31c-8.36-21.55-24.25-34.81-47.67-35.41c-35.55-0.91-71.15-0.24-106.73-0.24v-0.33   c-33.67,0-67.33-0.11-100.99,0.03c-26.95,0.1-43.95,12.23-53.41,37.5c-11.96,31.91-24.02,63.78-35.95,95.7   c-1.13,3.05-2.13,5.22-5.94,6.13c-17.38,4.17-28.54,18.35-28.72,36.55c-0.23,23.8-0.29,47.61,0.02,71.41   c0.26,20.54,14.76,36.02,35.03,37.62c3.93,0.31,4.81,1.59,4.74,5.13c-0.13,6.24-0.18,12.52,0.28,18.73   c1.09,14.43,12.63,25.19,27.1,25.4c10.81,0.16,21.64,0.12,32.45,0c15-0.16,26.27-10.48,27.67-25.56c0.55-5.96,0.64-12.01,0.36-18   c-0.2-4.45,1.2-5.69,5.66-5.63c18.75,0.25,37.51,0.09,56.26,0.09c43.04,0,86.08,0.11,129.12-0.13c5.37-0.03,7.2,1.2,6.8,6.72   c-0.42,5.96-0.17,12.03,0.4,18c1.33,13.74,12.76,24.27,26.42,24.48c11.3,0.18,22.61,0.17,33.91,0c14.04-0.21,25.54-10.9,26.7-24.97   c0.53-6.46,0.42-12.97,0.36-19.46c-0.02-3.16,0.68-4.46,4.33-4.79c20.71-1.88,35.09-16.83,35.4-37.25   C522.17,485.33,522.11,461.28,521.81,437.24z M136.33,362.34c7.28-19.41,14.45-38.86,21.78-58.24c5.92-15.64,16.21-22.98,32.63-23   c68.53-0.07,137.06-0.02,205.58-0.04c15.86,0,27.42,7.26,33.14,21.8c12.45,31.68,24.15,63.66,36.46,96.32H314.05   c16.99-9.27,32.18-17.55,47.37-25.83c8.18-4.46,16.4-8.88,24.54-13.41c7.28-4.05,9.36-8.9,6.35-14.33   c-3.18-5.74-7.9-6.59-15.34-2.55c-32.73,17.8-65.44,35.63-98.14,53.48c-2.95,1.6-5.74,3.05-9.36,3.04   c-48.09-0.11-96.18-0.08-144.26-0.09c-0.72,0-1.43-0.16-2.82-0.33C127.09,386.76,131.74,374.56,136.33,362.34z M176.45,571.08   c-0.7,4.01-4.64,5.86-8.89,5.88c-10.08,0.03-20.16,0.19-30.23-0.04c-6.27-0.14-9.65-3.57-9.5-10.06c0.14-6.44-2.05-14.6,1.08-18.82   c2.98-4.02,11.63-0.85,17.78-1.25c1.91-0.12,3.83-0.02,5.75-0.02c2.64,0,5.29-0.12,7.92,0.03c5.43,0.31,14.16-2.31,15.63,1.03   C179.01,554.7,177.8,563.34,176.45,571.08z M462.88,551.11c-0.27,5.27,0.03,10.56-0.11,15.83c-0.18,6.8-3.29,9.83-10.28,10.03   c-4.79,0.13-9.6,0.02-14.39,0.02c0-0.01,0-0.01,0-0.02c-5.04,0-10.09,0.19-15.12-0.06c-5.81-0.28-9.12-3.18-9.47-9.41   c-1.18-20.73-1.26-20.73,18.97-20.73c8.64,0,17.29,0.16,25.92-0.06C461.81,546.63,463.06,547.59,462.88,551.11z M502.66,504.96   c-0.05,15.95-6.97,22.87-22.76,22.87c-123.09,0.01-246.18,0.02-369.28,0.02c-15.62,0-22.64-7.09-22.68-22.99   c-0.06-21.16-0.06-42.31,0-63.47c0.04-15.89,7.01-22.85,22.78-22.85c61.79-0.02,123.58-0.01,185.37-0.01h183.19   c16.43,0,23.38,6.78,23.42,22.96C502.74,462.65,502.73,483.81,502.66,504.96z M448.96,433.16c-22.01-0.13-40.88,18.72-40.77,40.72   c0.12,21.94,18.05,39.92,40.21,40.32c22.49,0.4,40.66-17.48,40.79-40.15C489.33,451.54,471.39,433.3,448.96,433.16z M448.48,494.86   c-12.04-0.11-20.97-9.53-20.73-21.85c0.23-11.58,9.66-20.43,21.6-20.27c11.81,0.15,20.64,9.21,20.62,21.16   C469.94,486.02,460.76,494.98,448.48,494.86z M139.36,433.23c-22.45,0.01-40.42,18.14-40.4,40.74   c0.03,22.57,18.21,40.52,40.75,40.23c22.26-0.29,40.12-18.17,40.17-40.24C179.93,451.57,161.67,433.22,139.36,433.23z    M160.91,474.2c-0.32,11.8-10.03,20.86-22.14,20.68c-11.51-0.17-20.86-9.63-20.9-21.13c-0.03-11.65,9.69-21.07,21.67-21   C151.43,452.81,161.23,462.65,160.91,474.2z"></path>
	<path class="st1" d="M411.58,44.66c-19.47-0.27-38.95-0.06-58.42-0.06c-33.9,0-67.81-0.08-101.71,0.11c-4.43,0.03-6-1.02-5.54-5.54   c0.41-4.04,0.22-8.17,0.05-12.25c-0.33-8.04-3.66-11.31-11.51-11.39c-6.49-0.07-12.99-0.17-19.47,0.03   c-27.82,0.87-50.18,12.72-67.61,34.11c-17.45,21.42-20.95,46.67-19.34,73.13c0.38,6.18,4.69,9.2,10.72,9.43   c4.8,0.18,9.62,0.15,14.43,0.01c3.07-0.09,4.95,0.37,4.81,4.22c-0.26,7.44-0.21,14.91-0.01,22.35c0.09,3.21-1.07,4.15-4.14,4.08   c-6.97-0.16-13.96-0.29-20.91,0.02c-24.58,1.06-40.51,24.03-32.3,46.35c5.13,13.95,18.12,22.35,35.1,22.4   c27.16,0.08,54.33,0.1,81.5-0.04c9.6-0.05,19.22,0.73,28.81-0.65c16.09-2.32,28.7-15.91,29.13-31.54   c0.48-17.89-10.24-31.67-27.15-35.43c-9.08-2.03-18.19-0.91-27.29-1.05c-3.79-0.06-4.95-1.13-4.77-4.89   c0.3-6.24,0.47-12.53-0.01-18.74c-0.42-5.55,1.17-7.26,6.99-7.19c22.86,0.26,23.06,0.04,22.92-22.42c-0.03-5.25,1.56-6.2,6.43-6.16   c26.69,0.25,53.38,0.12,80.07,0.12c26.68-0.01,53.37,0.05,80.06-0.03c13.32-0.04,24.27-7.4,28.66-18.96   C448.67,64.71,434.3,44.99,411.58,44.66z M239.4,182.19c9.09,0.04,14.88,4.51,16.48,12.1c1.44,6.86-1.56,12.07-7.16,15.95   c-3.2,2.21-6.87,1.88-10.44,1.89c-17.06,0.05-34.11,0.03-51.17,0.02c-17.3,0-34.59,0.06-51.89-0.02   c-11.12-0.06-17.32-5.38-17.4-14.65c-0.08-9.08,6.36-15.25,17.08-15.31C169.73,181.99,204.56,182,239.4,182.19z M176.97,147.68   v-0.72c0-15.95,0-15.84,16.24-14.78c3.15,0.21,4.06,1.13,3.98,4.19c-0.19,7.64,1.1,15.54-0.4,22.88c-1.56,7.6-8.88,2.38-13.48,3.39   c-2.22,0.49-6.7,2.26-6.38-3.49C177.15,155.34,176.97,151.5,176.97,147.68z M221.26,113.05c-11.52-0.09-23.05-0.04-34.57-0.04   c-11.28,0-22.57-0.13-33.84,0.07c-4.1,0.08-5.89-0.73-5.96-5.47c-0.61-41.7,33.83-75.32,75.18-73.26c3.38,0.16,4.54,0.98,4.53,4.46   c-0.13,23.28-0.17,46.57,0.02,69.85C226.65,113.04,224.43,113.07,221.26,113.05z M418,83.26c-2.61,1.28-5.54,1.29-8.46,1.29   c-52.42-0.03-104.84-0.08-157.25,0.12c-5.02,0.02-6.49-1.29-6.42-6.36c0.18-14.3-0.06-14.3,14.1-14.3h71.41v0.04   c25.73,0,51.46-0.01,77.19,0.03c2.63,0,5.31,0.1,7.87,0.64c4.54,0.96,6.83,4.14,7.27,8.65C424.16,77.98,422.01,81.3,418,83.26z"></path>
	<path class="st1" d="M597.85,260.55c-11.57-6.21-24.64-10.83-34.11-19.41c-9.49-8.59-13.32-22.33-19.77-33.75   c-2.66-4.73-5.09-9.63-11.35-9.52c-5.84,0.11-8.4,4.66-10.83,9.24c-5.26,9.91-10.73,19.71-16.02,29.61   c-1.63,3.06-3.81,5.26-6.93,6.9c-10.76,5.67-21.4,11.58-32.07,17.42c-3.93,2.15-7.18,4.78-7,9.9c0.17,4.7,3.05,7.16,6.87,9.2   c10.3,5.52,20.44,11.36,30.8,16.77c3.99,2.09,6.83,4.76,8.92,8.8c5.28,10.16,11.05,20.07,16.43,30.18   c2.26,4.23,4.62,7.72,10.16,7.68c5.56-0.05,7.83-3.83,10.06-7.9c5.39-9.84,11.03-19.56,16.08-29.56c2.19-4.34,5.17-7.06,9.38-9.26   c10.38-5.4,20.5-11.31,30.8-16.88c3.85-2.09,6.62-4.7,6.46-9.43C605.84,265.04,602,262.79,597.85,260.55z M533,313.96   c-8.06-21.32-21.99-35.6-43.42-43.37c21.6-7.74,35.51-21.81,42.37-44.48c6.2,10.8,9.87,21.24,16.91,28.33   c6.97,7.01,17.34,10.64,27.92,16.74C555.37,278.81,540.29,291.97,533,313.96z"></path>
	<path class="st1" d="M94.37,275.61c-2.01-1.28-4.08-2.57-6.29-3.42c-10.57-4.1-17.87-11.39-21.97-21.95   c-0.43-1.1-1.17-2.08-1.67-3.15c-2.12-4.54-4.69-8.2-10.53-8.24c-5.92-0.04-8.69,3.71-10.45,8.28   c-5.1,13.24-14.38,22.04-27.49,27.07c-0.65,0.25-1.21,0.76-1.83,1.12c-8.43,5.05-9.06,13.85-0.32,17.79   c14.61,6.6,25.51,16.15,31.13,31.35c0.4,1.08,1.25,2.05,2.05,2.93c1.86,2.03,4.12,3.23,6.57,2.96c5.15,0.09,8.07-2.61,9.68-6.64   c5.66-14.21,15.26-24.37,29.73-29.72c0.44-0.16,0.82-0.49,1.23-0.74C102.08,288.25,102.17,280.55,94.37,275.61z M54.18,301.12   c-4.05-7.64-7.91-13.83-17.65-16.04c8.29-4.36,14.59-8.46,16.94-17.92c3.96,8.14,8.22,14.27,16.37,17.13   C62.09,287.42,57.43,292.89,54.18,301.12z"></path>
	<path class="st1" d="M438.45,133.83c-19.03-0.05-34.38,14.85-34.67,33.67c-0.28,18.47,15.44,34.31,34.11,34.36   c18.87,0.05,34.37-15.07,34.66-33.81C472.84,149.42,457.35,133.88,438.45,133.83z M437.64,182.92   c-7.87-0.35-14.34-7.17-14.36-15.13c-0.01-8.39,6.71-15.11,15.04-15.02c8.38,0.08,14.82,6.82,14.67,15.33   C452.84,176.39,445.7,183.28,437.64,182.92z"></path>
	<path class="st1" d="M86.88,83.54c-2.63-0.01-5.27,0.17-7.88-0.04c-5.66-0.47-8.72-3.98-8.72-9.36c0-5.44,3.29-8.95,8.8-9.38   c4.99-0.39,10.05-0.35,15.04-0.02c5.9,0.39,9.28,4.16,9.08,9.83c-0.19,5.26-3.41,8.75-9.15,8.96   C91.66,83.62,89.27,83.54,86.88,83.54z"></path>
	<path class="st1" d="M49.5,46.52c0.01-2.4-0.1-4.81,0.03-7.21c0.31-5.55,3.02-8.96,8.82-9.34c5.89-0.39,9.21,3.11,9.99,8.24   c0.78,5.17,0.68,10.59,0.11,15.81c-0.59,5.35-4.25,8.95-9.67,8.77c-5.69-0.19-9.23-3.64-9.28-9.78   C49.47,50.85,49.49,48.68,49.5,46.52z"></path>
	<path class="st1" d="M30.97,83.55c-2.4,0-4.8,0.05-7.2,0c-5.88-0.12-8.98-3.75-9.14-9.03c-0.18-5.67,3.08-9.5,9.13-9.82   c4.79-0.25,9.61-0.29,14.4,0.01c5.92,0.37,9.19,3.72,9.04,9.78c-0.14,5.74-3.36,8.73-9.03,9.03   C35.78,83.66,33.37,83.55,30.97,83.55z"></path>
	<path class="st1" d="M68.57,102.31c-0.03,3.55,0.54,7.12-1.09,10.58c-2.21,4.71-5.97,5.98-10.6,5.23   c-4.22-0.68-6.86-3.38-7.12-7.71c-0.3-5.01-0.25-10.05-0.21-15.08c0.04-5.63,2.89-9.09,8.56-9.53c6.05-0.48,9.39,2.98,10.39,8.62   C68.95,96.98,68.57,99.68,68.57,102.31z"></path>
	<path class="st1" d="M566.46,138.39c-5.9,0.09-9.93-3.7-10.15-9.52c-0.22-6.08,3.98-10.71,9.8-10.79   c5.48-0.08,10.67,5.03,10.58,10.42C576.6,133.67,571.8,138.31,566.46,138.39z"></path>
	<path class="st1" d="M448.96,433.16c-22.01-0.13-40.88,18.72-40.77,40.72c0.12,21.94,18.05,39.92,40.21,40.32   c22.49,0.4,40.66-17.48,40.79-40.15C489.33,451.54,471.39,433.3,448.96,433.16z M448.48,494.86c-12.04-0.11-20.97-9.53-20.73-21.85   c0.23-11.58,9.66-20.43,21.6-20.27c11.81,0.15,20.64,9.21,20.62,21.16C469.94,486.02,460.76,494.98,448.48,494.86z M139.36,433.23   c-22.45,0.01-40.42,18.14-40.4,40.74c0.03,22.57,18.21,40.52,40.75,40.23c22.26-0.29,40.12-18.17,40.17-40.24   C179.93,451.57,161.67,433.22,139.36,433.23z M160.91,474.2c-0.32,11.8-10.03,20.86-22.14,20.68c-11.51-0.17-20.86-9.63-20.9-21.13   c-0.03-11.65,9.69-21.07,21.67-21C151.43,452.81,161.23,462.65,160.91,474.2z"></path>
	<path class="st1" d="M448.96,433.16c-22.01-0.13-40.88,18.72-40.77,40.72c0.12,21.94,18.05,39.92,40.21,40.32   c22.49,0.4,40.66-17.48,40.79-40.15C489.33,451.54,471.39,433.3,448.96,433.16z M448.48,494.86c-12.04-0.11-20.97-9.53-20.73-21.85   c0.23-11.58,9.66-20.43,21.6-20.27c11.81,0.15,20.64,9.21,20.62,21.16C469.94,486.02,460.76,494.98,448.48,494.86z"></path>
	<path class="st1" d="M139.36,433.23c-22.45,0.01-40.42,18.14-40.4,40.74c0.03,22.57,18.21,40.52,40.75,40.23   c22.26-0.29,40.12-18.17,40.17-40.24C179.93,451.57,161.67,433.22,139.36,433.23z M160.91,474.2   c-0.32,11.8-10.03,20.86-22.14,20.68c-11.51-0.17-20.86-9.63-20.9-21.13c-0.03-11.65,9.69-21.07,21.67-21   C151.43,452.81,161.23,462.65,160.91,474.2z"></path>
</g>
<g>
	<path class="st3" d="M317.63,237.67c-66.71,0.05-119.14,52.82-119.56,119.58c-0.42,65.69,54.01,119.63,119.69,119.62   c65.7,0,119.55-53.95,119.51-119.74C437.04,292.6,385.82,237.61,317.63,237.67z M420.38,341.74c0.59,3.31-0.63,4.02-3.71,3.99   c-15.44-0.13-30.89-0.12-46.33-0.02c-2.82,0.01-4.4-0.64-4.8-3.75c-0.24-1.88-1.35-3.67-2.15-5.46c-3.93-8.87-3.72-8.66,3.19-15.95   c9.67-10.2,18.98-20.75,28.97-31.73C409.87,305.97,417.01,322.98,420.38,341.74z M331.33,254.23c20.52,3.33,38.91,11.2,52.78,23.58   c-11.51,12.43-22.96,24.78-34.39,37.15c-1.43,1.54-2.52,1.67-4.46,0.35c-4.41-2.99-9.19-5.43-14.5-6.47   c-2.45-0.48-3.11-1.79-3.1-4.14c0.07-15.68,0.1-31.36-0.03-47.05C327.61,254.74,328.37,253.75,331.33,254.23z M251.97,277.15   c15.71-12.72,33.61-20.25,53.6-23c4.72-0.65,7.21,0.09,6.67,5.94c-0.65,7.07-0.15,14.25-0.16,21.39   c-0.01,7.13-0.09,14.27,0.03,21.4c0.04,2.85-0.13,4.49-3.85,5.02c-6.23,0.89-12.16,3.27-17.39,6.96c-2.22,1.57-3.74,1.74-5.93-0.43   c-10.94-10.92-22.04-21.68-33.22-32.34C249.51,279.98,249.78,278.92,251.97,277.15z M215.21,341.67   c2.79-17.75,9.64-33.6,20.5-47.88c2.09-2.75,3.13-2.49,5.27-0.37c11,10.9,22.05,21.75,33.24,32.46c2.02,1.94,2.1,3.27,0.56,5.44   c-1.35,1.9-2.73,4.06-3.15,6.29c-1.41,7.31-5.77,8.94-12.6,8.19c-5.88-0.66-11.89-0.14-17.85-0.13c-7.55,0-15.09-0.08-22.64,0.04   C215.46,345.76,214.66,345.22,215.21,341.67z M235.39,420.25c-11.85-15.69-18.52-33.3-20.91-52.7c-0.56-4.54,0.18-6.82,5.67-6.37   c6.91,0.57,13.89,0.14,20.84,0.14c7.54,0.01,15.09,0.07,22.63-0.03c2.65-0.03,4.28,0.11,4.56,3.62c0.5,6.34,2.75,12.38,6.29,17.63   c2.07,3.08,1.36,4.52-1.01,6.79c-10.78,10.27-21.43,20.68-31.96,31.2C239.03,423,237.91,423.58,235.39,420.25z M308.01,460.26   c-21.34-1.84-39.96-10.06-56.5-23.43c-1.96-1.59-1.71-2.54-0.06-4.13c11.27-10.9,22.5-21.84,33.63-32.88   c1.97-1.97,3.4-1.84,5.56-0.39c5.46,3.66,11.48,6.22,18,7.09c2.97,0.39,3.5,1.68,3.46,4.24c-0.1,7.74-0.03,15.48-0.03,23.22   c0.01,7.34-0.12,14.69,0.07,22.03C312.23,459.16,311.69,460.58,308.01,460.26z M317.53,391.68c-18.92-0.09-34.06-15.41-34.07-34.47   c-0.01-19.23,14.91-34.24,34.09-34.28c18.95-0.05,34.41,15.06,34.75,33.95C352.64,375.57,336.45,391.77,317.53,391.68z    M382.77,437.82c-14.97,12-31.98,19.15-50.83,22.26c-3.43,0.56-4.43-0.54-4.32-3.99c0.24-7.72,0.08-15.46,0.08-23.19   c0-7.54,0.12-15.07-0.07-22.6c-0.07-2.89,0.81-4.31,3.7-4.89c4.67-0.94,8.98-2.99,12.85-5.71c2.57-1.81,4.15-1.77,6.48,0.56   c10.67,10.63,21.47,21.14,32.46,31.45C385.95,434.37,385.56,435.57,382.77,437.82z M395.23,425.55   c-11.58-12.65-22.63-24.88-33.92-36.86c-2.08-2.21-1.91-3.49-0.5-5.84c3.27-5.41,5.73-11.22,6.29-17.62   c0.25-2.89,1.4-4.01,4.49-3.97c15.27,0.15,30.55,0.11,45.83,0.02c2.72-0.02,3.63,0.36,3.46,3.56   C419.76,385.3,410.83,407.86,395.23,425.55z"></path>
	<path class="st3" d="M516.86,176.89c-2.74-0.96-3.98-2.12-4.99-4.89c-6.68-18.48-23-29.98-41.99-30   c-19.18-0.01-35.35,11.37-42.1,29.86c-0.96,2.64-2.11,4.05-4.99,5.03c-7.6,2.56-14.35,6.85-19.17,13.38   c-2.44,3.31-4.48,3.2-7.85,1.64c-48.21-22.29-97.33-24.11-146.55-4.33c-69.41,27.91-112.93,93.67-114.57,165.87   c-0.55,23.99,3.64,47.21,12.29,69.58c1.43,3.71,0.78,4.26-3.03,5.17c-15.2,3.62-26.89,12.53-31.52,27.55   c-2.6,8.46-6.3,11.72-14.82,13.85c-20.33,5.06-31.71,24.57-28.45,45.78c2.84,18.42,20.44,32.97,40.05,32.99   c39.91,0.03,79.82-0.06,119.73,0.05c12.59,0.04,23.33-4.02,31.66-13.46c2.29-2.6,4.35-2.71,7.14-1.88   c16.21,4.84,32.77,7.27,49.71,7.02c18.34,0.31,36.24-2.52,53.74-7.89c98.96-30.38,154.1-137.02,118.9-236.21   c-1.04-2.92-1.16-4.55,2.16-6.41c9.48-5.3,16.08-13.39,19.63-23.69c0.94-2.75,2.2-3.95,4.99-4.91   c17.73-6.1,29.94-23.18,30.05-41.45C547,200.37,535.16,183.35,516.86,176.89z M253.29,518.02c-4.48,9.96-12.89,14.64-23.73,14.69   c-19.84,0.08-39.68,0.02-59.53,0.02c-20.23,0-40.47,0.11-60.71-0.04c-12.03-0.09-22.92-9.16-24.64-20.07   c-1.97-12.42,4.56-23.76,16.13-27.79c3.94-1.37,7.89-1.78,12.19-1c9.49,1.74,12.3-0.9,12.13-10.46   c-0.28-14.96,8.42-26.85,21.83-29.85c14.29-3.19,26.9,3.32,33.04,17.36c2.09,4.76,4.99,7.21,10.46,6.57   c10.61-1.26,18.4,2.76,23.04,12.72c1.96,4.22,5.36,5.8,10.27,4.39c10.28-2.95,19.22-0.39,26.12,7.89   C256.31,500.16,257.31,509.07,253.29,518.02z M350.33,521.11c-25.52,5.07-50.68,4.2-75.79-2.4c-3.64-0.96-4.36-2.3-3.79-5.67   c3.88-23.06-15.52-47.16-42.21-45.51c-2.74,0.17-4.23-0.4-5.93-2.53c-6.43-8.1-14.77-13-25.3-13.35c-2.95-0.1-4.6-1.22-6.09-3.7   c-5.05-8.42-12.22-14.47-21.47-17.85c-2.44-0.89-3.69-2.44-4.77-4.75c-29.88-63.98-12.5-145.42,40.85-192.39   c26.09-22.97,56.18-37.16,90.55-41.68c32.96-4.33,64.51,1.26,94.49,15.63c2.11,1.01,3.03,1.79,2.62,4.79   c-3.12,22.82,8.06,41.29,29.74,49.38c2.63,0.98,3.64,2.43,4.52,4.81c6.84,18.53,21.93,29.47,41.39,29.86   c3.06,0.06,4.32,0.95,5.42,3.9c6.91,18.74,10.3,38.06,10.37,57.99C484.91,436.84,428.14,505.66,350.33,521.11z M508.75,246.76   c-6.47,1.26-9.92,3.79-11.01,10.8c-1.96,12.5-14.23,22.27-26.94,22.66c-13.14,0.41-25.87-8.55-28.54-21.31   c-1.55-7.4-4.47-11.02-12.36-12.39c-12.29-2.14-21.19-14.6-21.22-27.3c-0.04-14.06,9.21-25.63,23.04-28.22   c5.81-1.09,8.76-3.9,10.06-9.79c3.24-14.73,14.55-23.77,28.52-23.58c13.72,0.19,24.99,10.04,27.7,24.54   c0.99,5.29,4.08,7.71,9.08,8.67c12.79,2.45,20.59,10.13,23.26,22.89C533.44,228.52,523.62,243.88,508.75,246.76z"></path>
	<path class="st3" d="M96.43,239.76c-15.52-0.09-28.42,12.57-28.53,27.99c-0.1,15.65,12.33,28.21,28.03,28.31   c15.92,0.09,28.2-11.98,28.29-27.8C124.32,252.45,112.03,239.85,96.43,239.76z M96.07,280.28c-6.71-0.04-12.54-5.84-12.47-12.39   c0.08-6.38,6.3-12.5,12.64-12.45c6.59,0.06,12.21,5.89,12.18,12.64C108.39,275.07,103.07,280.32,96.07,280.28z"></path>
	<path class="st3" d="M382.58,109.82c-15.04-0.07-26.43,11.1-26.48,25.98c-0.04,14.87,11.42,26.53,26.09,26.54   c14.41,0.01,26.55-12.14,26.48-26.49C408.59,121.54,396.91,109.88,382.58,109.82z M381.98,146.66   c-5.58-0.18-10.35-5.27-10.22-10.93c0.13-5.68,5.09-10.43,10.73-10.28c5.59,0.15,10.58,5.34,10.38,10.79   C392.67,141.59,387.2,146.82,381.98,146.66z"></path>
	<path class="st3" d="M148.86,78.31c0.24-2.53,0.18-5.14,0.8-7.58c1.03-4.09,3.87-6.44,8.18-6.05c3.96,0.35,6.62,2.7,6.93,6.76   c0.33,4.3,0.38,8.65,0.15,12.96c-0.24,4.58-3.1,7.36-7.55,7.52c-4.52,0.15-7.23-2.79-8.03-7.11c-0.39-2.09-0.07-4.31-0.07-6.47   C149.14,78.32,149,78.32,148.86,78.31z"></path>
	<path class="st3" d="M165.41,124.3c-0.28,2.67-0.33,5.47-0.91,8.15c-0.78,3.58-3.5,5.17-6.96,5.28c-3.4,0.11-6.41-1.02-7.45-4.6   c-1.68-5.79-1.71-11.72-0.03-17.51c1.1-3.78,4.18-4.96,7.92-4.7c3.61,0.25,5.9,2.15,6.6,5.64   C165.08,119.05,165.14,121.63,165.41,124.3z"></path>
	<path class="st3" d="M180.24,108.95c-1.98,0-3.97,0.09-5.95-0.01c-4.68-0.24-7.31-2.67-7.54-7.42c-0.23-4.84,2.64-7.54,6.94-8.11   c4.29-0.57,8.77-0.54,13.07-0.03c4.42,0.53,7.29,3.64,7.06,8.12c-0.22,4.34-2.75,7.37-7.63,7.44   C184.21,108.98,182.22,108.95,180.24,108.95z"></path>
	<path class="st3" d="M133.67,108.98c-1.58-0.01-3.16,0.06-4.73-0.02c-5.2-0.27-8.93-3.42-8.5-7.75c0.49-4.92,3.52-7.75,8.58-7.95   c3.34-0.14,6.7-0.14,10.05,0c5.38,0.22,9.01,3.66,8.65,8.32c-0.4,5.28-3.64,7.5-8.74,7.41   C137.22,108.96,135.44,108.98,133.67,108.98z"></path>
	<path class="st3" d="M307.53,105.4c-4.65-0.04-8.36-3.56-8.47-8.03c-0.11-4.5,4.11-8.8,8.63-8.78c4.56,0.02,8.34,4.14,8.2,8.93   C315.73,102.36,312.46,105.45,307.53,105.4z"></path>
	<path class="st3" d="M96.28,170.69c-4.65,0.05-8.13-3.33-8.29-8.05c-0.17-5.13,3.15-8.68,8.15-8.7c4.4-0.02,8.44,3.7,8.67,7.99   C105.04,166.32,100.85,170.64,96.28,170.69z"></path>
	<path class="st3" d="M317.63,237.67c-66.71,0.05-119.14,52.82-119.56,119.58c-0.42,65.69,54.01,119.63,119.69,119.62   c65.7,0,119.55-53.95,119.51-119.74C437.04,292.6,385.82,237.61,317.63,237.67z M420.38,341.74c0.59,3.31-0.63,4.02-3.71,3.99   c-15.44-0.13-30.89-0.12-46.33-0.02c-2.82,0.01-4.4-0.64-4.8-3.75c-0.24-1.88-1.35-3.67-2.15-5.46c-3.93-8.87-3.72-8.66,3.19-15.95   c9.67-10.2,18.98-20.75,28.97-31.73C409.87,305.97,417.01,322.98,420.38,341.74z M331.33,254.23c20.52,3.33,38.91,11.2,52.78,23.58   c-11.51,12.43-22.96,24.78-34.39,37.15c-1.43,1.54-2.52,1.67-4.46,0.35c-4.41-2.99-9.19-5.43-14.5-6.47   c-2.45-0.48-3.11-1.79-3.1-4.14c0.07-15.68,0.1-31.36-0.03-47.05C327.61,254.74,328.37,253.75,331.33,254.23z M251.97,277.15   c15.71-12.72,33.61-20.25,53.6-23c4.72-0.65,7.21,0.09,6.67,5.94c-0.65,7.07-0.15,14.25-0.16,21.39   c-0.01,7.13-0.09,14.27,0.03,21.4c0.04,2.85-0.13,4.49-3.85,5.02c-6.23,0.89-12.16,3.27-17.39,6.96c-2.22,1.57-3.74,1.74-5.93-0.43   c-10.94-10.92-22.04-21.68-33.22-32.34C249.51,279.98,249.78,278.92,251.97,277.15z M215.21,341.67   c2.79-17.75,9.64-33.6,20.5-47.88c2.09-2.75,3.13-2.49,5.27-0.37c11,10.9,22.05,21.75,33.24,32.46c2.02,1.94,2.1,3.27,0.56,5.44   c-1.35,1.9-2.73,4.06-3.15,6.29c-1.41,7.31-5.77,8.94-12.6,8.19c-5.88-0.66-11.89-0.14-17.85-0.13c-7.55,0-15.09-0.08-22.64,0.04   C215.46,345.76,214.66,345.22,215.21,341.67z M235.39,420.25c-11.85-15.69-18.52-33.3-20.91-52.7c-0.56-4.54,0.18-6.82,5.67-6.37   c6.91,0.57,13.89,0.14,20.84,0.14c7.54,0.01,15.09,0.07,22.63-0.03c2.65-0.03,4.28,0.11,4.56,3.62c0.5,6.34,2.75,12.38,6.29,17.63   c2.07,3.08,1.36,4.52-1.01,6.79c-10.78,10.27-21.43,20.68-31.96,31.2C239.03,423,237.91,423.58,235.39,420.25z M308.01,460.26   c-21.34-1.84-39.96-10.06-56.5-23.43c-1.96-1.59-1.71-2.54-0.06-4.13c11.27-10.9,22.5-21.84,33.63-32.88   c1.97-1.97,3.4-1.84,5.56-0.39c5.46,3.66,11.48,6.22,18,7.09c2.97,0.39,3.5,1.68,3.46,4.24c-0.1,7.74-0.03,15.48-0.03,23.22   c0.01,7.34-0.12,14.69,0.07,22.03C312.23,459.16,311.69,460.58,308.01,460.26z M317.53,391.68c-18.92-0.09-34.06-15.41-34.07-34.47   c-0.01-19.23,14.91-34.24,34.09-34.28c18.95-0.05,34.41,15.06,34.75,33.95C352.64,375.57,336.45,391.77,317.53,391.68z    M382.77,437.82c-14.97,12-31.98,19.15-50.83,22.26c-3.43,0.56-4.43-0.54-4.32-3.99c0.24-7.72,0.08-15.46,0.08-23.19   c0-7.54,0.12-15.07-0.07-22.6c-0.07-2.89,0.81-4.31,3.7-4.89c4.67-0.94,8.98-2.99,12.85-5.71c2.57-1.81,4.15-1.77,6.48,0.56   c10.67,10.63,21.47,21.14,32.46,31.45C385.95,434.37,385.56,435.57,382.77,437.82z M395.23,425.55   c-11.58-12.65-22.63-24.88-33.92-36.86c-2.08-2.21-1.91-3.49-0.5-5.84c3.27-5.41,5.73-11.22,6.29-17.62   c0.25-2.89,1.4-4.01,4.49-3.97c15.27,0.15,30.55,0.11,45.83,0.02c2.72-0.02,3.63,0.36,3.46,3.56   C419.76,385.3,410.83,407.86,395.23,425.55z"></path>
	<path class="st3" d="M317.63,237.67c-66.71,0.05-119.14,52.82-119.56,119.58c-0.42,65.69,54.01,119.63,119.69,119.62   c65.7,0,119.55-53.95,119.51-119.74C437.04,292.6,385.82,237.61,317.63,237.67z M420.38,341.74c0.59,3.31-0.63,4.02-3.71,3.99   c-15.44-0.13-30.89-0.12-46.33-0.02c-2.82,0.01-4.4-0.64-4.8-3.75c-0.24-1.88-1.35-3.67-2.15-5.46c-3.93-8.87-3.72-8.66,3.19-15.95   c9.67-10.2,18.98-20.75,28.97-31.73C409.87,305.97,417.01,322.98,420.38,341.74z M331.33,254.23c20.52,3.33,38.91,11.2,52.78,23.58   c-11.51,12.43-22.96,24.78-34.39,37.15c-1.43,1.54-2.52,1.67-4.46,0.35c-4.41-2.99-9.19-5.43-14.5-6.47   c-2.45-0.48-3.11-1.79-3.1-4.14c0.07-15.68,0.1-31.36-0.03-47.05C327.61,254.74,328.37,253.75,331.33,254.23z M251.97,277.15   c15.71-12.72,33.61-20.25,53.6-23c4.72-0.65,7.21,0.09,6.67,5.94c-0.65,7.07-0.15,14.25-0.16,21.39   c-0.01,7.13-0.09,14.27,0.03,21.4c0.04,2.85-0.13,4.49-3.85,5.02c-6.23,0.89-12.16,3.27-17.39,6.96c-2.22,1.57-3.74,1.74-5.93-0.43   c-10.94-10.92-22.04-21.68-33.22-32.34C249.51,279.98,249.78,278.92,251.97,277.15z M215.21,341.67   c2.79-17.75,9.64-33.6,20.5-47.88c2.09-2.75,3.13-2.49,5.27-0.37c11,10.9,22.05,21.75,33.24,32.46c2.02,1.94,2.1,3.27,0.56,5.44   c-1.35,1.9-2.73,4.06-3.15,6.29c-1.41,7.31-5.77,8.94-12.6,8.19c-5.88-0.66-11.89-0.14-17.85-0.13c-7.55,0-15.09-0.08-22.64,0.04   C215.46,345.76,214.66,345.22,215.21,341.67z M235.39,420.25c-11.85-15.69-18.52-33.3-20.91-52.7c-0.56-4.54,0.18-6.82,5.67-6.37   c6.91,0.57,13.89,0.14,20.84,0.14c7.54,0.01,15.09,0.07,22.63-0.03c2.65-0.03,4.28,0.11,4.56,3.62c0.5,6.34,2.75,12.38,6.29,17.63   c2.07,3.08,1.36,4.52-1.01,6.79c-10.78,10.27-21.43,20.68-31.96,31.2C239.03,423,237.91,423.58,235.39,420.25z M308.01,460.26   c-21.34-1.84-39.96-10.06-56.5-23.43c-1.96-1.59-1.71-2.54-0.06-4.13c11.27-10.9,22.5-21.84,33.63-32.88   c1.97-1.97,3.4-1.84,5.56-0.39c5.46,3.66,11.48,6.22,18,7.09c2.97,0.39,3.5,1.68,3.46,4.24c-0.1,7.74-0.03,15.48-0.03,23.22   c0.01,7.34-0.12,14.69,0.07,22.03C312.23,459.16,311.69,460.58,308.01,460.26z M317.53,391.68c-18.92-0.09-34.06-15.41-34.07-34.47   c-0.01-19.23,14.91-34.24,34.09-34.28c18.95-0.05,34.41,15.06,34.75,33.95C352.64,375.57,336.45,391.77,317.53,391.68z    M382.77,437.82c-14.97,12-31.98,19.15-50.83,22.26c-3.43,0.56-4.43-0.54-4.32-3.99c0.24-7.72,0.08-15.46,0.08-23.19   c0-7.54,0.12-15.07-0.07-22.6c-0.07-2.89,0.81-4.31,3.7-4.89c4.67-0.94,8.98-2.99,12.85-5.71c2.57-1.81,4.15-1.77,6.48,0.56   c10.67,10.63,21.47,21.14,32.46,31.45C385.95,434.37,385.56,435.57,382.77,437.82z M395.23,425.55   c-11.58-12.65-22.63-24.88-33.92-36.86c-2.08-2.21-1.91-3.49-0.5-5.84c3.27-5.41,5.73-11.22,6.29-17.62   c0.25-2.89,1.4-4.01,4.49-3.97c15.27,0.15,30.55,0.11,45.83,0.02c2.72-0.02,3.63,0.36,3.46,3.56   C419.76,385.3,410.83,407.86,395.23,425.55z"></path>
</g>
</svg>